<svg id="logo" xmlns="http://www.w3.org/2000/svg" viewBox="0 0 3149.7 2410.7">
  <defs>
    <radialGradient id="gradient" fx="0.25" fy="0.25" cx="0.4" cy="0.4" r="0.9">
      <stop offset="0%" stop-color="rgb(178,132,42)" />
      <stop offset="100%" stop-color="rgb(151,105,21)" />
    </radialGradient>
    <style>
      #logo .cls-1, #logo .cls-2, #logo .cls-3, #logo .cls-4, #logo .cls-5, #logo .cls-6, #logo .cls-7, #logo .cls-8, #logo .cls-9 {
        fill: none;
        stroke: #fff;
        stroke-miterlimit: 10;
      }

      #logo .cls-1 {
        stroke-width: 40px;
      }

      #logo .cls-2 {
        stroke-width: 60px;
      }

      #logo .cls-3 {
        stroke-width: 90px;
      }

      #logo .cls-4 {
        stroke-width: 25px;
      }

      #logo .cls-5 {
        stroke-width: 30px;
      }

      #logo .cls-6 {
        stroke-width: 80px;
      }

      #logo .cls-7 {
        stroke-width: 55px;
      }

      #logo .cls-8 {
        stroke-width: 20px;
      }

      #logo .cls-9 {
        stroke-width: 50px;
      }
    </style>
    <mask id="mask">
      <g id="Lines">
        <g id="the">
          <path id="t-top" class="cls-1" d="M1152.9,512c-176-180,184.4-244.1,270.6-241.6,123.9,3.5,397.3-70.6,301.8-212.7C1672.5-20.8,1531,106.2,1530.9,200"/>
          <path id="t-body" class="cls-2" d="M1383.1,158c44.2,93.2,10.6,247.7-5.9,333.7-50.2,261-15.3,266.4,77.8,228.3"/>
          <path id="he" class="cls-2" d="M1470.9,283c-1,75-57.2,323.5-41,330s30.5-121,39.4-155c17.6-66.9,64.9-84,78.8-82.3,16.8,2-71.1,189.3-10.2,194.3,18,1.5,83.3-222.3,119.1-230.7s57.7,27.7,5.9,119.2c-21.1,37.3,9-17.5,9-47.5s-46.7,36.6-64,85,6.6,65.6,45,47,130-167,145-229"/>
        </g>
        <g id="mystery">
          <path id="M-main" class="cls-3" d="M542.6,934.6c40.7,58.7,11.3,155.8-46.6,200.6s-176.9,10-140.9-107.1C396.6,893,597.6,703.7,670.9,804c76,104-93,603.8-91.7,736,1.7,162,179.3,8.5,141.7,36-48.7,35.6-116.9,42.6-68.9-99.9S906.9,882,976.1,883.6c33,.8,7.5,32.5-31.5,152s-129.5,414.9-55.5,340,262.5-734,336.9-714.3c61.1,16.1-255.3,821.1-54.9,801a110.6,110.6,0,0,0,25.9-6.2"/>
          <path id="M-top" class="cls-3" d="M583.1,737.2c302.2-74.7,138,301.3,56.1,682.4-1.8,8.5-34.8,118.4-9.3,185.4"/>
          <path id="M-end" class="cls-4" d="M1192.4,1456.5c28.4-23.6,110-84.5,121-215.5"/>
          <path id="y-main" class="cls-2" d="M1253.5,954.1c13.4-25.1,36.4-45.3,63.4-41.1,47.5,7.3-56,297-18,300,52.9,4.2,195-327,182-349s24-36,31-31-10.8,166.2-29,249c-24,109-104,387-185,414-40.6,13.5-93.3-63-76-141.6,13.5-61.4,131-204.4,89.8,7.3"/>
          <path id="y-top" class="cls-2" d="M1315.9,900c78,23,10,234.1-5,278"/>
          <path id="y-bottom" class="cls-2" d="M1451.9,1003c-3,31-61.3,322.9-61.3,322.9"/>
          <path id="y-s" class="cls-5" d="M1510.3,1036.6c-2,37.7-18.2,87.3-5.3,85.7,44.6-5.6,122.6-149,118.6-212.3-2.3-36.8-48.8-108.7,13.3-161.3,40.3-34.2,135.3-44.7,76,64"/>
          <path id="s-main" class="cls-3" d="M1717.3,749.4c-150.8,0,77,389.4-99.3,378-154.5-10,18.3-262.7,163.3-241.3"/>
          <path id="t-start" class="cls-5" d="M1811,672.1c-65.7-9.1-79.1-162.1,15.5-194,0,0,24.8-17,87.2-17"/>
          <path id="t-body-2" data-name="t-body" class="cls-3" d="M1874.9,477.7c10,40.3-85.3,553.7-71.3,574.3s82.7-44.7,183.3-390.7"/>
          <path id="t-top-2" data-name="t-top" class="cls-2" d="M1645.9,666.3c86-44.9,465.7-186.6,554-128.9"/>
          <path id="e" class="cls-3" d="M2051.5,894.6c42-62.6,87-134.6,91.5-189.3s-69.2-99.1-152.5,118.1c-76.8,200.3,49.1,209.9,126.3,122.4,64.1-72.7,110.3-303.9,120.2-366.2,11.5-72.6-51.4-22-79,19"/>
          <path id="ry" class="cls-6" d="M2238.4,691.6c12-16.5,155.7-182.5,145.1-125-13.9,75-104.8,298.9-51,326.4,37.8,19.3,167.5-215.7,166-279.8s-2.7-68.3-31-68.3,47-57.3,86-57.3-97,358.5-61,354,205.5-300,180-354,43-62.4,42.5-36.5-88.6,512.8-178.1,649.2c-41.2,62.8-141.4,48.3-136.8-22.7s101.4-245.7,108.4-93.6"/>
          <path id="y-end" class="cls-6" d="M2674.5,765.4c34-13.2,194.3-281.4,201.7-358.3"/>
        </g>
        <g id="at">
          <path id="a-start" class="cls-1" d="M1876.5,1326.5c-24-220.7-223.7-74-267.9,48.6-81.6,226.5,60.2,279,141.3,202.5s317.8-443.7,348.6-496.5"/>
          <path id="a-end" class="cls-2" d="M2090.7,1102.2c-147.1,527.2-33.1,584.2,129.7,345.3"/>
          <path id="a-across" class="cls-7" d="M1797.9,1260.1c-39.3,168,204.2,62.9,247.7,45.7s66.8-40.7,80.4-45.7"/>
          <path id="a-end-2" data-name="a-end" class="cls-8" d="M2123.6,1266.5c86-72.5,76.8-143.8,44.2-139.4-52.8,7.2-89.6,68.7-28.2,122.2"/>
          <path id="t-mid" class="cls-9" d="M2079.6,1228.7c17.4-1.7,78.8-8.3,78-40-1.8-72.7,31-63.1,24.7-36.7-23.3,96.6-32.9,193.8-48.4,252-20.8,78,49.7,80.2,98-122.3"/>
          <path id="t-across" class="cls-5" d="M2188.2,1196.7c29.2-11.1,202.8-79.4,161.4,11.9"/>
        </g>
      </g>
    </mask>
    <mask id="shape">
      <g id="theMysteryAt" mask="url(#mask)" fill="#fff">
        <path d="M1311.7,1237.3c-91.1,24-27.1-165.5-19.7-215.1,3.6-24.2,14.8-59.4,6.9-82.8-15.6-46.3-36.7-6-58.5-4.5-12.2-18.1,112.7-97.7,133.7-3,17.7,79.5-34.6,176.2-36.3,256.4,31.9-5.4,78.5-143.1,91.3-172,15.1-34.3,29.7-65.9,36.3-103.3,3-17,1.3-33.8,2.2-49.3-.1,1.8-10.4-13.6-10.4-12.4.1-21.7,47.8-34.6,62.3-29.7,20.8,7.1,20.2,18.8,21,40.1,1.5,43.9-7.5,90.7-14.5,134-2.5,15.3-28.7,147.8,7,96.8,9-12.8,3.4-30,8.1-45.6,9.2-30.1,37.4-43,52.3-64.2,50.9-72.4-26-128.7,9.7-206,16.1-34.7,65.8-69.4,104.4-60.1,67.3,16.3,26.8,67.5,5.7,95.2q.1-9,.9-17.9c-3.6,11.6,14.1-16,13-21.3-6.3-30.7-38-22.9-48.8,3.1s46.7,135.2,32.1,147.3c36.8-30.7,71.4-38.2,80.3-93.4,7.9-49.2,16.5-100.9,19.4-150.8-.1,2.1-56.2-42.7-57.9-43-6.2-.8-102.8,45.3-106,30.5-5-18.3,87.4-40.7,102.5-44.2-14.4-67,8.1-123.5,71.8-156.1,28.9-14.8,70.1-25.6,89.6,5.9,5.3,8.6,4.1,93.6.1,92.3,19.4,10.7,91.5-32.9,117.6-39.8,51.5-13.7,105.6-29,157.1-10,36.9,13.6,10.2,8.2,46.9,1.7,28-4.9,41.3-4,47.6,27.4,3.9,19.2-8,90.1-15,99.2,22.1-28.7,124.5-176.5,156.4-94.8,12.9,33-26.2,106.8-35.4,140.7-10.8,39.6-21.3,80.9-24.8,122-3,36-6.2,86.8,31.5,46.5,28.2-30.1,44.7-90.4,59.2-128.1s34-79.6,41.1-119c2.7-15.2,6.6-50.2-8.8-60.6-21-14.2-32.1,10.7-49.3,14.3-24.4-5.8,51.1-44.7,55.4-45.8,40.7-10.1,72,2.8,77.5,45.5s-8.2,93-16,134.6c-4.2,22.5-30.2,90.6-19.3,112.3,8.7,17.3,24.4-28.2,30.3-39,17.3-31.9,32.4-64.7,47.2-97.7s33.4-66.2,43.4-101.6c1-3.4,15.5-108-2.3-94.7,7.7-13,41.7-30.2,57.8-27.5,25.7,4.3,21.8,11.6,25.8,33.8,8.1,45.1-8.2,103.1-16,147.9-2.9,16.5-28.7,98.3-6.8,101.2,26.7,3.6,67.5-100.2,75.9-119.6a999.7,999.7,0,0,0,43.7-123.9c3.1-10.9,5.4-45,13.2-51.7,28.9-24.5,23.5,12.5,19.9,32.9-18.9,108.1-71.8,228.4-157.9,296.4-19,15-20.2,8.7-29.2,40.4-6.4,22.6-12.3,45.3-18.8,67.8-14.2,48.9-29.8,97.7-52.4,143.4-24.6,49.7-53.3,102.3-107.9,121.6-49.6,17.5-87.4-1.9-96.3-53.6-6.8-39.3,1.1-84.4,16.3-120.6,13.7-32.6,75-124.3,103.3-56.5,4.4,10.6,2.8,74-12.7,72.6-17.1-1.5,4.7-46.9,1-57.6-21.2-60.4-68.2,31.3-77.3,60.3-11,34.8-26.6,107.1,11.8,131.6,52.5,33.4,90.4-61.1,103.8-95.3,19.8-50.3,33.1-102.6,45.1-155.2,8.2-36,42.4-123.3,25.7-156.3,7,6.6-65.5,122.3-72.3,129.4-15.8,16.5-53.4,36.6-74.9,24.9-31-17-8.1-43.8-14.4-68.2-15.1,55.7-127.8,201.2-170.6,95.5-34.9-86.1,30.2-180.7,31.1-264.6,0-.2-29.1,25.3-31.9,28.5-23.8,27.4-30.1,62.4-42.5,100.1-17.8,54.4-39.1,108-70.5,156.3s-67.5,82.1-122.3,99.1c-51.7,16-115.5,13.7-126.4-51.7-11.7,4.8-35.7,66.2-44.3,77.1-20.7,26.5-60.6,60.9-94.9,35.5-44.8-33.1-1.9-126.3-4.4-172,.7,12.7-36.6,18.6-42.5,23.1-22.4,17.3-17.1,19.1-18.1,43.3-1.4,33.4,4.5,63.2-6.7,96.4-26.3,77.5-111,117.4-166.2,50.8-14.9,17.5-42.1,17-54.4,30.8-14.1,15.8-18.5,67.3-24.5,88.7-15.7,55.7-33.2,110.8-58.7,162.8-19.6,40-44.8,86.7-85.6,107.7-61.2,31.5-93.6,12.1-117.4-43.8-14.9,30.4-84,28.2-105.1,11.6-27.2-21.4-28.2-62.6-28.6-93.6-1-95.8,15.7-197.3,32.8-291.6,11.2-61.7,24.9-123.7,40.5-184.2,13.3-51.3,47.6-113.2,43.6-165.7-96.9,184.4-151.7,394.5-238.7,585.7-23.5,51.6-108.8,152.1-122.2,36.5-6.7-57.5,15.6-124,31.6-179,13.7-47.2,28.5-94.1,43.6-140.8,10.6-32.8,53.2-104.1,49-136.6-72.7,44.3-117,171.7-153.4,247.3-47.6,98.9-91.6,200.4-123.7,305.7-10.2,33.3-21.9,70.3-19.6,105.6,2.2,33.5,5.7,42.7,29.3,28.7,14.6-8.7,52.2-62.1,45.5-4.8-3.1,26.4-42.5,48-64.7,53.9-150.6,40.5-62.7-276-46.9-340C644,1197.2,670,1098,681,995.8S675.7,729,537.1,814A363.6,363.6,0,0,0,388.7,990.5c-30.4,76.7-22,194.3,81.2,144.5,37.2-18,70.5-56.2,83.1-94.9,5.5-16.9,3.9-27,2.4-41.8-1.3-12.3-17.5-21.4-5.6-37.5,23.1-31.1,35,22,33.7,38.9-2.1,26.7-17.7,61.6-32.2,83.9-24,36.8-68.3,85.1-118.2,92.6-108,16.2-102.1-124.4-78.3-192,43.2-123.1,212.3-283.3,354.8-250.4,103.1,23.8,76.6,172,67.1,248.5-1.4,11.3-27.2,203.6-34.9,203.6,19.7-50.7,51.8-100.7,78-149.5C850.5,979,903.9,850.3,983.1,858c77.7,7.6,15.8,124.1,3.3,165-11.2,36.6-22.2,73.5-32.6,110.6-8.5,30.2-56.2,147.8-39.2,172.5,31.3-70,240.7-705.1,337.6-655.4,48,24.6-21.1,214.9-29.7,255.3-25.8,121.4-54.2,243.9-71.5,367.8-3.2,23.3-25.6,223.6,47.1,161.9,14.1-12,11.5-50.6,16.5-69.4,6.3-23.7,15.7-48.7,30.3-68.7C1264,1271.2,1299.6,1264.8,1311.7,1237.3Zm527.5-199.1c39.6,18,92.8-191.1,101.6-219.2,14-44.8,22-68.2,53.4-100.1,34.8-35.2,75.4-87.6,131.8-78.7,103.7,16.2-7,200.4-55.9,227.2-12.9,7.1-42.8,25.3-30.5-7.9,1.4-3.8,33.6-19.5,37.7-22.8,12.4-9.9,18.3-18.6,27.4-31.1,14.5-20,62.4-107.9,27.7-132.9-62.1-44.7-140,221.4-124.7,268.3,35.8,109.4,155-56,174.9-99.9,13.2-29,21.4-56.8,29.1-87.6,3.5-13.8,17.6-43.6,16.7-57.9-2.1-32-5.3-9.2-28.5-37.4-10.9-13.3-12.2-31.4-15-47.6-.2-.9-6.4-7.2-6.7-16.2-.4-11.6,9.7-25.6,7.3-36.7-11.9-56.8-110.3-25.3-146.1-15.8-38.6,10.3-116.6,23.5-133.7,62.9s-16.2,99.2-23.7,142.4C1866,840.2,1834.8,943.1,1839.2,1038.2Zm-528.4,281.8c-17.5,24.8-26.7,54.9-45.8,79.8-16.1,21-40.5,34.5-33.1,63,16.4,62.7,79.4,12.1,97.5-18.7,62.5-106.2,80.4-243.2,97-362.7a6.8,6.8,0,0,0-2-.6c-11.6,29.3-27.9,57.3-43.5,84.6s-47.1,53.4-54.8,74.4c-1.4,3.9,7.9,128.8-17.8,111.9Q1309.5,1335.8,1310.8,1319.9Zm253.2-227.8c13.8,39.9,64.9,10.4,75.9-13.2,12.2-26.1,6.4-72.1-.6-98.9C1608.2,983.4,1580.2,1069.6,1563.9,1092.1Zm207.6-478.9c65.8-19.1,57.7-57,60.3-120.7C1778.4,509.4,1751.7,557.2,1771.5,613.3Zm-473.7,661.5c-42.8-2.2-71.3,99.8-69.6,132.5C1264.7,1376.6,1286,1318.9,1297.8,1274.8Zm519.7-658.1c-5.7-3.6-38.6,11.3-39.8,12.4,9.4,15.4,18.4,26.3,34.2,35.8C1814.7,649,1816.2,632.6,1817.5,616.6Zm-254.3,427.7c4-7,7.5-11.7,11.5-22.6C1567.1,1024.1,1562.5,1033,1563.2,1044.3Z"/>
        <path d="M1433,723c-22.7,31.2-71.3,43.7-92.3,8.3-22.5-37.9-8.6-110.7-4-152,10.9-96.8,40.4-194.1,42.1-291.6-44.4-.2-89.2,22.2-130.2,34.5-33,9.9-67.2,15.5-96.7,37.1s-51.9,63.1-34.1,100.3c5.4,11.3,41.4,23.9,21.5,38.1-10.9,7.8-17.9-14.3-22-18.5-74.9-77,44-160.8,102.9-187.1,37.7-16.8,77.8-21.1,118.1-28.7,12.4-2.3,34.4-2.5,41.9-12.1s-8.4-24.4-3.2-32.5c23.2-36.4,53.2,35,65.7,39,28.8,9.1,79.4-12.3,106.7-17.4,67.3-12.6,139.4-31.3,173.5-100.1,31.4-63.4-13.9-105.3-73.7-86.7-69.9,21.8-75.4,79.6-116.4,130.7-11.9-30.6,36-97.4,58.7-115.5,24.6-19.6,63.9-40.4,95.6-39,100.7,4.3,63.2,121.8,17,169.3-43.7,45-100.9,64.2-163.2,76.2-12.8,2.5-33.3,1.1-41.8,9.6-10,10-10.9,59.7-13.3,73.4-6.2,34.8-18.5,112.7-19,116.1,4.7-37.2,83.8-147.8,98.1-74,4.5,23-39.5,146.9-21.3,157,29,16.1,31.5-111.9,42.8-136.2,18.1-39.2,51.6-87.6,94.9-86.1,55.2,1.9,31.5,68.1,6.1,102.7-7.3,10-25.8,37.5-41.6,37.2-24-.5,20.2-28.3,21.6-29.6,18.7-19.3,57.7-112.6,8-88.7-31.1,15-49.2,79-53.9,111.1-14.6,99.4,67.4,55.8,96.6-1.6,14.7-28.8,32-112.1,59.4-119.5,2-.2-44.9,124.8-52.2,136.5-23.9,38.3-93.8,111.9-144.2,65.3-44.7,53.2-90.5,40.8-84.9-29.8,3.2-40.7,18.4-80.6,24.6-120.7-30.1,24.9-95.8,186-67.6,208.6-64.6,55.6-36-101-33.6-118.5q14-100.8,29-201.5c-26.8,2.1-26,72.8-30.2,99.7-8,50.4-16.5,100.7-24.5,151s-19.8,103.7-18.1,154.2C1377.8,751.4,1391.2,721.4,1433,723Z"/>
        <path d="M2137.3,1268.3c-34.5,4.8-55.8,16.2-66.5,49-17.9,54.5-24.4,120.8-23.6,177.9.7,51.9,22,117.8,82.8,73,23.6-17.4,37.6-46.3,46.9-73.3,4.1-11.9,6.3-59.7,19.3-61.8,19,3.5-39.2,203.5-140.1,170.4-105-34.5-46-222.4-36.9-297.2-3.9-2.6-50.8,15.9-51.1,16.1-22.5,14.3-37.9,51-53.5,73.3-30,43.1-59.8,84.8-93.8,124.7-55.9,65.5-206.1,174.2-246.9,30.7-25.9-91.2,19.5-204.5,79.4-273,38.1-43.6,103.6-89.9,164.5-73.1,32.6,9,45,29.4,58,58.8,2.5,5.7,23.2,59.9,6.6,58.8-10.8-.7-17.2-56.2-22.1-66-11.2-22.3-28.5-41-54.6-44.8-34.3-5.1-75.2,19.5-99.7,41.6-67.3,60.7-106,163-101.2,252.9,1.9,36,11.8,93.5,56.5,98.6s95.1-50.2,119.5-79.5c43.5-52.1,114.5-126.1,138.2-189.5-27.5,9.5-76.4,27.8-103.1,6.8-17.7-14-28.4-61.6-4.4-72.5,7.6,1.4-3.6,60.9,39.2,66.8,63.6,8.7,94.2-36.8,123.3-83,23.9-38,53.8-116.6,92-142.4,51.7-35,36.8,34.6,35.7,64.6-12.8-14.2,52.6-53.8,59.4-54.9,46-7.1,36.4,26.5,35.9,61,35.3-26.2,226.9-54.2,152.4,26.4-5.4-46.3,1.2-50.5-52.9-42.7-25.6,3.7-50.4,7.1-73.8,19.3-43.7,22.8-36.3,64.8-44.6,112.5s-24.6,103.3-21.5,153.1c25.1,13.2,58-135.7,65.9-150.2,26.4-48.4,5.2,34.7-.4,54.1-8.4,29.5-47.6,148.4-96,116.4C2091.9,1448.3,2132.2,1304,2137.3,1268.3Zm-163.6,37.5c36.9-16.9,41.8-3.4,56.4-43.2,5.7-15.5,8-68.6,14.9-74.8C2024.1,1227.8,1998.4,1267.9,1973.7,1305.7Zm179-163.5c-34-5.2-41.7,46.7-33.9,68C2151.4,1198,2153.9,1176.9,2152.7,1142.2Zm-72.4,130.2c19.9-5.7,41.2-17.1,60.1-21.8-20.4,1.7-21.1-38.4-47-21.5C2082.2,1236.4,2084,1260.8,2080.3,1272.4Zm40.2-53.3a55.8,55.8,0,0,0,20.5,21.4q1.7-14.3,2.8-28.6A53.2,53.2,0,0,1,2120.5,1219.1Zm-21.1-35.3-7.8,36.8C2112.2,1221.9,2101.1,1194.5,2099.3,1183.8Z"/>
      </g>
      <g id="Text" fill="#fff">
        <g id="penhaligons">
          <path d="M71.7,1960.7q0,7.3-1,21.8-.5,7.1-.5,14.3,0,5.5.6,23.6t2.3,22.6q1.7,4.5,7.4,8.7a22.3,22.3,0,0,0,12.3,4.5q7.4.5,7.4,3.4a2.4,2.4,0,0,1-2.3,2.7q-2.3.4-17.1.4l-44.3-.2q-18.7,0-19.9-.6a2.2,2.2,0,0,1-1.2-2.2q0-2.6,6.1-3.9,10.8-2.4,15.1-7.6t5.2-22.1q1-17,1-39.2l-.5-43,.5-46.4q0-24.6-3.4-31.5t-13.2-8.6q-10.6-1.9-10.6-4.7t4.8-2.7l31.9.2,51.2-.3q50.6,0,68.1,15.8t17.5,39.4q0,28.2-22.9,42.3t-68.8,14.2Q86.4,1961.6,71.7,1960.7Zm0-6.4,26.9.8a84.7,84.7,0,0,0,30.9-5.6,37.6,37.6,0,0,0,21.2-20.3,69.3,69.3,0,0,0,6.7-29q0-18.2-12.3-30.8t-44.4-12.6q-16.6,0-29,3.5-.2,5.8-.2,7.2l.6,37-.6,39.4Q71.6,1946.8,71.7,1954.2Z"/>
          <path d="M449.6,1853.7q4.7,18,9.2,50.6c-.5.9-1.1,1.3-1.7,1.3a3.6,3.6,0,0,1-2.4-1.3q-11.1-17.9-21.3-27.2T413,1863.8q-10.2-3.9-35.2-3.9t-37.2,2.7q-1.3,1.6-1.3,6,0,1.1-.3,4-1.6,12.9-1.6,69.8,0,2.4.3,6.8l16.8.5q20.3,0,29.4-6.1t15.9-26.1q1.1-3.4,3.2-3.4t3,4.7l-.6,6.5a261.3,261.3,0,0,0-1.3,26.3q0,22,.8,39.6,0,5.5-3,5.5t-3-3.9q-3.4-19-14.2-27.4t-47-8.4q-.5,11.8-.5,38,0,34,2.4,43.2t11.6,14.6q9.2,5.4,31.1,5.4,62.7,0,80.9-43.2,2.2-5.3,4.6-5.3t2.6,3.5a12.5,12.5,0,0,1-.8,4.2q-1,3.1-4.7,22.9-.8,4.2-6.1,25.1l-67.5-.2q-14.5,0-42.6-1.2t-49.8-1.3q-21.7-.1-22.6-.9a2.3,2.3,0,0,1-1-1.8q0-3.2,5.3-3.2,17.9,0,23.5-9.5t5.6-46.2l-.2-33,.5-30.9q0-9.3-1-35.3t-1.9-29.7q-.9-3.7-5-7.3t-18.1-7.3q-4.2-1.1-4.2-3.5t5.6-2.9l32.9,1.8q17.4.8,85.6.8Q448.6,1853.5,449.6,1853.7Z"/>
          <path d="M604,1852.9q9.7,13.1,33.5,40.4l51.6,59.8,49.6,57.4q1.6-29.2,1.6-75.7,0-35-1.5-46.8a30.5,30.5,0,0,0-10.7-19.9q-9.3-8.1-23.1-8.1-6.4,0-6.4-2.7a2.5,2.5,0,0,1,1.4-2.3q1.4-.7,21.7-1.4t34.2-.7l21.8.2h3.5q5,0,5,2.8t-4.4,3q-16.3,1.8-23.4,8.5t-8.5,19.3q-1.4,12.6-1.4,84.7l-1.6,85.1q0,6.4-3.2,6.5a5.3,5.3,0,0,1-2.2-.7q-1.4-.7-14.5-16.3t-32.1-37.3q-19.1-21.8-30.1-35.3-24-29.2-30.3-35.9-23.4-24.8-27.6-31.9-2.7-4.8-5-4.8t-1.8,6.3l.3,25q0,47.5,2.6,75.9t5.4,33.3q2.8,4.9,9.8,9.9a25.2,25.2,0,0,0,14.9,5q10.6,0,10.6,3.9t-6,2.9l-77.5-.2q-5.5,0-5.5-2.7t5.3-3.2q19.8,0,26.4-8.8t6.6-37.3l-1.3-56.6q0-50.1-2.7-59.1t-12.3-21.8q-9.6-12.8-21.8-14.4-5.5-.6-5.5-2.9t7.1-3.1Z"/>
          <path d="M1032.6,1952.1l1.5-44.8q0-29.5-5.9-38.8t-19.7-9.3q-8.1,0-8.1-3.4t4.8-3.1l47,1.6,39.9-.8q4.7,0,4.7,2.9t-3.1,2.6q-12.2,0-19,3.5t-8.9,12.1q-2.2,8.5-3.5,48.7t-1.4,58.4l-.5,39.6q0,18.5,3.5,24.1a23.4,23.4,0,0,0,10.6,8.7,47.6,47.6,0,0,0,14.4,3.9q5.2.6,5.2,3.1t-4.4,2.6l-49.7-1.3-32.4,1.1q-5.6,0-5.6-2.9t4-2.6q12.9-.8,16.8-3.4t6.4-9.8q2.4-7.3,2.7-24.5l.8-58.5q-13.8-1-28.2-1-62.3,0-79,2.3-1.3,30.9-1.3,50.8,0,22.4,1,27.5t6,9.6q5.1,4.4,13.9,6.2,5.5,1.1,5.5,3.5t-3.5,2.9l-3.2-.3q-8.7-1-36.1-1-29.8,0-36.6,1.4l-2.9.2q-3.7,0-3.7-2.5t5-3.5q12.4-1.4,17.7-6.9t7.3-41q2-35.6,2-86.4,0-41.3-3.9-52.1T873.9,1860q-3.4-.3-3.4-2.6t6.9-3.3l64.9-1q6.9,0,8.3.4t1.4,2.6q0,2.5-4.2,3-16,1.6-19.4,5.8t-3.5,52.3q0,5,.5,35,16.4,1.3,38.6,1.3Q992.7,1953.4,1032.6,1952.1Z"/>
          <path d="M1274.7,1847.6h7.4q18,36.9,49.7,126.2,20.4,57.2,28,70.2t24.4,14.4q5.3.5,5.3,3.5t-2.7,2.3l-2.3-.2q-14.8-1.3-37.7-1.3-35.1,0-45.1,1.1-5,0-5-2.9t3.7-2.6q13.7-1.3,18.9-4.7t5.2-10.6q0-6.9-9.8-34.6l-9.5-27.7-74.9,1q-16.8,44.6-16.8,56.3,0,9.9,8.3,14.7a37.2,37.2,0,0,0,16.4,5.3q6,.5,6,3.6,0,1.3-1.9,2.4-25.8-1.1-31.1-1.1-27.1,0-36.4.6-5.2,0-5.2-2.9t4.5-3.2q18.5-2.4,28.4-25.1t30.6-81.7Q1252.1,1896.7,1274.7,1847.6Zm-6.4,35.1q-15,30.6-35,88.9,16.6-.8,23.8-.8l45.3.8q-6-16.8-16.7-44.5Q1272.5,1894.1,1268.3,1882.7Z"/>
          <path d="M1647.7,2063.5l-9,.3q-6,0-21.6-.6t-65-.6h-41l-16.5.8-17.3.8q-12.3,0-12.3-3.2t4.8-2.7q15.6-1,21.8-6.7t8.4-16.4q2.3-10.7,2.3-58l.2-57.7q0-28.1-2.5-39.2t-10.3-17a33.3,33.3,0,0,0-17.6-6.7q-5.2-.5-5.2-3.5t4.7-3l4.2.2q25.6,1.6,59.9,1.6l28.4-.5q4.4,0,4.4,3.2t-4.7,2.9q-11.4,0-19.1,4.5t-10.2,10.4q-2.5,5.9-2.5,23l-1.3,76.2.3,42.5q0,19.8,1.7,25.8a22.6,22.6,0,0,0,7,10.7q5.3,4.8,19.3,4.8l28.9-1q22.1-3.1,39.7-21.6t23.4-33.2q1.8-4.2,4.3-4.2t2.7,3.9q0,4.5-4.6,32.3T1647.7,2063.5Z"/>
          <path d="M1746.2,1850.1l29.4.6,45-.6q8.1,0,8.1,3.2t-4.4,3.1q-17.9,2.3-22.3,12.9t-4.4,78.6q0,25,1.3,56.2t2.9,37.4a19.2,19.2,0,0,0,6.1,10q4.5,3.9,16.8,5.5,4,.5,4,3.1t-3.7,2.9l-40-.3-34.1.5q-5.6,0-5.6-3.2t4.5-3.4q15-.3,17.6-10t2.6-61.7q0-50.3-.9-81.4t-5.2-38q-4.4-6.9-16.4-8.7-4.5-.8-4.5-3.7T1746.2,1850.1Z"/>
          <path d="M2128.2,1919.4q-2.1,0-4.4-5.2-13.2-29-34.9-44.8t-46.2-15.8q-20.1,0-39,12.2t-30.8,37.5a125.5,125.5,0,0,0-11.9,54.1q0,40.9,24.5,70.7t61.2,29.8q13.1,0,22.2-4a61.9,61.9,0,0,0,17.3-11.6q8.1-7.6,9.8-11.3t1.7-19.5q0-26.4-7-34.8t-22.5-8.4l-5,.2q-4.7,0-4.7-3.1t5.2-3.7l8.5.3,36.4-.5,44.6-1q3.7,0,3.7,3.4t-4.2,3.7q-10,1-16.3,4.4t-7.7,7.7q-1.5,4.4-1.5,14.7,0,37.7-1.8,41.4t-30,16.9q-28.2,13.2-56.7,13.2-47.2,0-80.7-30.3t-33.5-76.7q0-31.9,15.9-57.8a108.3,108.3,0,0,1,43.4-40.1q27.6-14.3,56.1-14.3,26.7,0,57.7,15.3,8.7,4.4,12.2,4.4a8.7,8.7,0,0,0,7.7-4.4q2.4-3.7,4.4-3.7,3.7,0,4.4,9.3,1,14.7,4.7,44.8a15,15,0,0,1,.3,2.9Q2131.6,1919.4,2128.2,1919.4Z"/>
          <path d="M2241.7,1955.8q0-21.8,13.2-47.8a112,112,0,0,1,38.6-42.9q25.4-16.9,57.3-16.9,44.6,0,73.7,31.9t29.1,72.8q0,43.5-32.2,78.1t-77.5,34.6q-43.3,0-72.8-30.3T2241.7,1955.8Zm35.9-5.2a192.6,192.6,0,0,0,8,53.9q8,27.7,25.3,40.2t36.9,12.5q31.7,0,50.8-30.9t19.1-71.5q0-39.3-19.5-69.1t-50.9-29.8q-23.7,0-39.4,15.9a95.1,95.1,0,0,0-23,38Q2277.6,1931.9,2277.6,1950.6Z"/>
          <path d="M2589.8,1852.9q9.7,13.1,33.5,40.4l51.6,59.8,49.6,57.4q1.6-29.2,1.6-75.7,0-35-1.5-46.8a30.5,30.5,0,0,0-10.7-19.9q-9.3-8.1-23.1-8.1-6.4,0-6.4-2.7a2.5,2.5,0,0,1,1.4-2.3q1.4-.7,21.7-1.4t34.2-.7l21.8.2h3.5q5,0,5,2.8t-4.4,3q-16.3,1.8-23.4,8.5t-8.5,19.3q-1.4,12.6-1.4,84.7l-1.6,85.1q0,6.4-3.2,6.5a5.3,5.3,0,0,1-2.2-.7q-1.4-.7-14.5-16.3t-32.1-37.3q-19.1-21.8-30.1-35.3-24-29.2-30.3-35.9-23.4-24.8-27.6-31.9-2.7-4.8-5-4.8t-1.8,6.3l.3,25q0,47.5,2.6,75.9t5.4,33.3q2.8,4.9,9.8,9.9a25.2,25.2,0,0,0,14.9,5q10.6,0,10.6,3.9t-6,2.9l-77.5-.2q-5.5,0-5.5-2.7t5.3-3.2q19.8,0,26.4-8.8t6.6-37.3l-1.3-56.6q0-50.1-2.7-59.1t-12.3-21.8q-9.6-12.8-21.8-14.4-5.5-.6-5.5-2.9t7.1-3.1Z"/>
          <path d="M2871.3,1848.7a18.8,18.8,0,0,1,13.3,5.4,18.1,18.1,0,0,1,5.7,13.8q0,15.8-16.7,29.9t-21.4,14.1q-3.1,0-3.1-2.7t11.1-10.6q12.4-10.3,12.4-17.6,0-4.2-7.6-7.9t-8.1-11.6a12.1,12.1,0,0,1,3.9-8.9Q2864.8,1848.7,2871.3,1848.7Z"/>
          <path d="M3100.4,1863.2a22.2,22.2,0,0,0,5.8-9q1.3-3.9,3.7-3.9a4.5,4.5,0,0,1,2.9,1.6q1.1,5.8,3.2,23.4l3.9,30.3q0,2.9-3.5,2.9-1.9,0-3.4-3.2a88,88,0,0,0-25.3-35.1q-16.8-13.9-36.6-13.9t-29.4,11.8q-9.9,11.8-9.9,25,0,16.1,10.8,24.7t44.5,19.3q24.8,7.7,37.1,15a61.7,61.7,0,0,1,20.7,20.3,51,51,0,0,1,8.4,28q0,25.5-21.1,45.6t-51.7,20.1q-27.6,0-55.4-17.2a20.4,20.4,0,0,0-7.1,10.6q-1.3,5.2-4.2,5.2t-3.7-6.6q-1.1-6.6-4.7-62.5.6-1.9,3.4-1.9t3.9,3.5q24.8,62.4,69.3,62.4,22.1,0,34.6-13.3t12.5-30.5a38.6,38.6,0,0,0-6.7-21.9,50.3,50.3,0,0,0-17.7-16.1q-11-6.1-34.9-13.7-30.6-9.8-41.7-18.6a55.4,55.4,0,0,1-16.2-19.8,50.3,50.3,0,0,1-5.2-21.3q0-21.4,19.4-38t47.6-16.6a80.2,80.2,0,0,1,22.3,3.4A123.1,123.1,0,0,1,3100.4,1863.2Z"/>
        </g>
        <g id="mansion">
          <path d="M624.9,2192.8q16.3,35.3,30.3,62.4,16.9,32.4,26.4,53.9a378.5,378.5,0,0,0,22,42.4q33.4-55.3,77.4-158.7l64.1.2q3.4.5,3.4,3t-3.9,2.8q-17.1,1.5-22.8,6.8t-7.1,18.1q-1.4,12.7-2.7,47.4t-1.3,57.7q0,44.3.6,51.6a17.1,17.1,0,0,0,5.5,11.7q4.8,4.4,18.9,6.3,4,.6,4,3.1t-5,2.4l-62.7-.2H755.7q-5.5,0-5.5-2.6t3.7-2.7q13.5-1.8,18-5t6.6-11.5q2.2-8.3,2.2-41.4l3.1-77.4,1.6-38.2q0-4.4-1.3-4.4t-3.2,2.6l-31.9,63.1q-30.6,60.5-37.6,77.4l-10,24.3q-4.7,11.1-5.6,12.2a3,3,0,0,1-2.3,1q-1.9,0-3.2-4.2-2.9-10-29.8-63.5-14-30.2-33.6-68.9t-21.2-40.4q-1.6-1.7-2.4-1.7t-1.6,4l-1.8,97.6-.5,32.2q0,25.6,7,33.5t20.1,7.9q8.4,0,8.4,3.5t-4,2.6l-3.4-.2-10.5.2-22.7-.2q-14.8,0-38.2,1.6c-1.3-.9-1.9-1.7-1.9-2.6s1.9-3.3,5.6-3.4q16.1-.5,23.7-10.6t7.6-45.5l-.3-28.4,2.3-71.9q0-25.2-7.4-34.4t-21.8-11q-6.1-.8-6.1-3.3t4.5-2.8l5.8.2Z"/>
          <path d="M1042.5,2188.6h7.4q18,36.9,49.7,126.2,20.4,57.2,28,70.2t24.4,14.4q5.3.5,5.3,3.5t-2.7,2.3l-2.3-.2q-14.8-1.3-37.7-1.3-35.1,0-45.1,1.1-5,0-5-2.9t3.7-2.6q13.7-1.3,18.9-4.7t5.2-10.6q0-6.9-9.8-34.6l-9.5-27.7-74.9,1q-16.8,44.6-16.8,56.3,0,9.9,8.3,14.7a37.2,37.2,0,0,0,16.4,5.3q6,.5,6,3.6,0,1.3-1.9,2.4-25.8-1.1-31.1-1.1-27.1,0-36.4.6-5.2,0-5.2-2.9t4.5-3.2q18.5-2.4,28.4-25.1t30.6-81.7Q1019.9,2237.8,1042.5,2188.6Zm-6.4,35.1q-15,30.6-35,88.9,16.6-.8,23.8-.8l45.3.8q-6-16.8-16.7-44.5Q1040.2,2235.2,1036,2223.7Z"/>
          <path d="M1304.9,2193.9q9.7,13.1,33.5,40.4l51.6,59.8,49.6,57.4q1.6-29.2,1.6-75.7,0-35-1.5-46.8a30.5,30.5,0,0,0-10.7-19.9q-9.3-8.1-23.1-8.1-6.4,0-6.4-2.7a2.5,2.5,0,0,1,1.4-2.3q1.4-.7,21.7-1.4t34.2-.7l21.8.2h3.5q5,0,5,2.8t-4.4,3q-16.3,1.8-23.4,8.5t-8.5,19.3q-1.4,12.6-1.4,84.7l-1.6,85.1q0,6.4-3.2,6.5a5.3,5.3,0,0,1-2.2-.7q-1.4-.7-14.5-16.3t-32.1-37.3q-19.1-21.8-30.1-35.3-24-29.2-30.3-35.9-23.4-24.8-27.6-31.9-2.7-4.8-5-4.8t-1.8,6.3l.3,25q0,47.5,2.6,75.9t5.4,33.3q2.8,4.9,9.8,9.9a25.2,25.2,0,0,0,14.9,5q10.6,0,10.6,3.9t-6,2.9l-77.5-.2q-5.5,0-5.5-2.7t5.3-3.2q19.8,0,26.4-8.8t6.6-37.3l-1.3-56.6q0-50.1-2.7-59.1t-12.3-21.8q-9.6-12.8-21.8-14.4-5.5-.6-5.5-2.9t7.1-3.1Z"/>
          <path d="M1703.8,2204.3a22.2,22.2,0,0,0,5.8-9q1.3-3.9,3.7-3.9a4.5,4.5,0,0,1,2.9,1.6q1.1,5.8,3.2,23.4l3.9,30.3q0,2.9-3.5,2.9-1.9,0-3.4-3.2a88,88,0,0,0-25.3-35.1q-16.8-13.9-36.6-13.9t-29.4,11.8q-9.9,11.8-9.9,25,0,16.1,10.8,24.7t44.5,19.3q24.8,7.7,37.1,15a61.7,61.7,0,0,1,20.7,20.3,51,51,0,0,1,8.4,28q0,25.5-21.1,45.6t-51.7,20.1q-27.6,0-55.4-17.2a20.4,20.4,0,0,0-7.1,10.6q-1.3,5.2-4.2,5.2t-3.7-6.6q-1.1-6.6-4.7-62.5.6-1.9,3.4-1.9t3.9,3.5q24.8,62.4,69.3,62.4,22.1,0,34.6-13.3t12.5-30.5a38.6,38.6,0,0,0-6.7-21.9,50.3,50.3,0,0,0-17.7-16.1q-11-6.1-34.9-13.7-30.6-9.8-41.7-18.6a55.4,55.4,0,0,1-16.2-19.8,50.3,50.3,0,0,1-5.2-21.3q0-21.4,19.4-38t47.6-16.6a80.2,80.2,0,0,1,22.3,3.4A123.2,123.2,0,0,1,1703.8,2204.3Z"/>
          <path d="M1852.6,2191.2l29.4.6,45-.6q8.1,0,8.1,3.2t-4.4,3.1q-17.9,2.3-22.3,12.9T1904,2289q0,25,1.3,56.2t2.9,37.4a19.2,19.2,0,0,0,6.1,10q4.5,3.9,16.8,5.5,4,.5,4,3.1t-3.7,2.9l-40-.3-34.1.5q-5.6,0-5.6-3.2t4.5-3.4q15-.3,17.6-10t2.6-61.7q0-50.3-.9-81.4t-5.2-38q-4.4-6.9-16.4-8.7-4.5-.8-4.5-3.7T1852.6,2191.2Z"/>
          <path d="M2050.8,2296.9q0-21.8,13.2-47.8a112,112,0,0,1,38.6-42.9q25.4-16.9,57.3-16.9,44.6,0,73.7,31.9t29.1,72.8q0,43.5-32.2,78.1t-77.5,34.6q-43.3,0-72.8-30.3T2050.8,2296.9Zm35.9-5.2a192.6,192.6,0,0,0,8,53.9q8,27.7,25.3,40.2t36.9,12.5q31.7,0,50.8-30.9t19.1-71.5q0-39.3-19.5-69.1t-50.9-29.8q-23.7,0-39.4,15.9a95.1,95.1,0,0,0-23,38Q2086.7,2273,2086.7,2291.7Z"/>
          <path d="M2418.6,2193.9q9.7,13.1,33.5,40.4l51.6,59.8,49.6,57.4q1.6-29.2,1.6-75.7,0-35-1.5-46.8a30.5,30.5,0,0,0-10.7-19.9q-9.3-8.1-23.1-8.1-6.4,0-6.4-2.7a2.5,2.5,0,0,1,1.4-2.3q1.4-.7,21.7-1.4t34.2-.7l21.8.2h3.5q5,0,5,2.8t-4.4,3q-16.3,1.8-23.4,8.5t-8.5,19.3q-1.4,12.6-1.4,84.7l-1.6,85.1q0,6.4-3.2,6.5a5.3,5.3,0,0,1-2.2-.7q-1.4-.7-14.5-16.3t-32.1-37.3q-19.1-21.8-30.1-35.3-24-29.2-30.3-35.9-23.4-24.8-27.6-31.9-2.7-4.8-5-4.8t-1.8,6.3l.3,25q0,47.5,2.6,75.9t5.4,33.3q2.8,4.9,9.8,9.9a25.2,25.2,0,0,0,14.9,5q10.6,0,10.6,3.9t-6,2.9l-77.5-.2q-5.5,0-5.5-2.7t5.3-3.2q19.8,0,26.4-8.8t6.6-37.3l-1.3-56.6q0-50.1-2.7-59.1t-12.3-21.8q-9.6-12.8-21.8-14.4-5.5-.6-5.5-2.9t7.1-3.1Z"/>
        </g>
      </g>
    </mask>
  </defs>
  <rect id="texture" fill="url(#gradient)" mask="url(#shape)" width="100%" height="100%" x="0" y="0"/>
</svg>
