<svg id="copyDecorator" xmlns="http://www.w3.org/2000/svg" viewBox="0 0 303.7 55.8">
  <defs>
    <style>
      .cls-1 {
        fill: #3c3c3c;
      }

      .cls-2 {
        fill: #cba841;
        stroke: #3c3c3c;
        stroke-linejoin: round;
      }
    </style>
  </defs>
  <title>copyDecorator</title>
  <g>
    <path class="cls-1" d="M2.4,42.3a6.7,6.7,0,0,1,3.9-1.7A8.5,8.5,0,0,0,0,47.5c-.1,4.2,3.3,6.7,5.4,6.8H5.1c-1.1-.9-1.3-3.6.8-5.2s1.7-1.4,2.3-2.9a4.8,4.8,0,0,1,1.6-1.2A7.8,7.8,0,0,1,11.9,43l-1.4,1.4h0c-1.1,1.3-2,3.2.1,4.5h.8c2.3-.3,3.5-3,4.3-4.2s2.2-3.5,2.5-3.8h.1c-.4.5-3.9,3.8-1.4,4.7l.7-.2c-1.1-1.5,2.6-6.4,7.5-9.1s11.3-4,14-4.2a54.8,54.8,0,0,0-10.3.7h-.6c-7.7,2.4-18.2,10.9-16.9,16-3.2,0,.7-6.6,5.1-10.1A35.3,35.3,0,0,1,27,33.2C17.5,35.1,8,40,4.6,45.1,8.2,39,17.5,34.8,25.5,32.8c10-2.4,20.2-1.6,27.2.7l2.6,1.1A65.4,65.4,0,0,0,40,32.1c-7.6,1-20.9,6.5-22.1,13.3,1.7-.7,2.7-2.3,3.6-3.2a3.4,3.4,0,0,1,2.7-2.4c1.2-.4,2.8-.5,4.1-.9s1-2.6,2.9-3.4c6.4-1,12.1-.9,14.9,0h.2c-2.7-.9-8.7-.6-15,.3-1.4.2-1,2.9-2.9,3.3s-2.9.5-4.2.9-3.7,3.5-1.9,4a4.3,4.3,0,0,1,2.3-1.3c-2.1.7-5.8,4.8-2.6,8.2h.3c-.6-1.5,1.4-6.2,5.7-8.4a38.8,38.8,0,0,1,11.5-5.3l2.9-.6-1.6.4c-6,1.6-17.9,7.6-18.2,14,4,.4,6.3-3.8,7.9-5.1s1.8-2.1,2.3-2.8c-.5.9-1.5,1.9-2.4,3.5s0,4,2.2,2.1a18.2,18.2,0,0,0,2.9-3.4h0c1.3-1.8,2.4-3.5,3.7-3.8h0c-1.2.5-2,2.1-3.2,3.8,4.6.4,9.5-8.2,19.2-7.1a9.6,9.6,0,0,1,3.3.4c.4.2,1.5.3,1.1,1.4s-1.1.4-1.7.5l-1.4-.2h.2c4.4,1.7,21.3,2.8,26.1,4.3-7.6-1.5-19.9-1.1-26.1-4.3l-.4-.2a22.4,22.4,0,0,0-4.1-.8c-1.5-.2-4.1.2-3.8,1.3a7.2,7.2,0,0,0,3.5.9h0c-1.6,1.1-5.4-.1-8.4,1.7s-1.5,3.4.3,3.1a7.6,7.6,0,0,0,3.3-1.5h.1a6.6,6.6,0,0,1-2.9,1.9,9.8,9.8,0,0,0-2.7,3.9,28.4,28.4,0,0,0-.9,3.7c-.1.3-.1.7-.2,1,.3-1.5,2.6-3,5.4-3.5a7.2,7.2,0,0,0,5.4-3.6h0a5.6,5.6,0,0,1-2.3,3c-2.5,2.2,2.9,2.9,5.6.4s6.2-3.5,8-3.1h0c-1.5,0-3.7,1-6.2,2.5a1.3,1.3,0,0,0,.5,2.1c1.5.6,3-.7,4.5-1.5a35.7,35.7,0,0,1,11.8-3.5c9.1-1.2,19.7.9,30.9,1.9s21.5-.6,29.8-3.7c5.9-2.2,12.1-5.9,15.7-11.3h0l.9.6,1,.8h.1l.8-.7.8-.6h.2c3.4,5.8,9.9,9.8,16.2,12.1,8.3,3.2,18.8,4.5,29.8,3.7s21.8-3,30.9-1.9a33.1,33.1,0,0,1,11.8,3.5c1.5.9,3.1,2.1,4.6,1.5s1-1.4.5-2.1c-2.5-1.4-4.6-2.5-6.2-2.5h0c1.9-.4,5,1,8.1,3.1s8.1,1.8,5.6-.4a5.6,5.6,0,0,1-2.3-3h0a7.1,7.1,0,0,0,5.3,3.6c2.8.4,5.1,2,5.4,3.5a10.2,10.2,0,0,0-.1-1,25.4,25.4,0,0,0-.9-3.6,9.7,9.7,0,0,0-2.7-3.8,7.1,7.1,0,0,1-2.9-1.9h.1a7.5,7.5,0,0,0,3.3,1.5c1.9.3,2.1-2,.4-3.1s-6.8-.6-8.4-1.7h0a7.8,7.8,0,0,0,3.5-.9c.3-1.1-2.3-1.4-3.8-1.3a22.5,22.5,0,0,0-4.1.8l-.3.2c-6.1,3.3-18.5,2.9-26.1,4.4,4.8-1.5,21.6-2.6,26.1-4.4h.2l-1.5.2c-.5-.1-1.2,0-1.7-.5s.7-1.2,1.1-1.4a9.6,9.6,0,0,1,3.3-.4c9.7-1.1,14.6,7.5,19.2,7.1-1.2-1.8-2-3.4-3.2-3.9h0c1.4.4,2.4,2,3.7,3.8h0a15.6,15.6,0,0,0,2.9,3.4c2.2,1.9,3.4-.4,2.1-2.1a34,34,0,0,0-2.4-3.5c.6.7,1.5,1.5,2.4,2.7s3.9,5.4,7.9,5.1c-.4-6.3-12.2-12.3-18.2-14l-1.6-.4,2.9.6a41.4,41.4,0,0,1,11.5,5.2c4.2,2.3,6.3,6.9,5.6,8.4h.3c3.3-3.5-.5-7.6-2.6-8.2a4.8,4.8,0,0,1,2.4,1.3c1.7-.4.5-3.7-2-4s-2.6-.4-4.2-.9-1.5-3.1-2.9-3.3c-6.3-1-12.3-1.2-15-.3h.2c2.9-.9,8.6-1,14.9-.1,2,.8,1.2,3.2,2.9,3.4s2.8.5,4.1.9a3.7,3.7,0,0,1,2.8,2.5c.8.9,1.9,2.5,3.5,3.2C284.6,39.5,271.2,34,263.7,33a71.9,71.9,0,0,0-15.3,2.4l2.6-1c7-2.3,17.2-3.1,27.2-.7,8,1.9,17.3,6.3,20.9,12.3-3.4-5.1-12.9-10-22.4-11.9a35.3,35.3,0,0,1,10.5,5.7c4.4,3.5,8.3,10.2,5.1,10.1,1.3-5.2-9.1-13.6-16.8-16h-.6a50.9,50.9,0,0,0-10.3-.7c2.7.2,8.6,1.9,14,4.2s8.6,7.5,7.5,9l.7.2c2.5-.9-1-4.2-1.3-4.7h.1c.3.2,2.9,2.1,2.5,3.8s2,3.9,4.3,4.1h.9c2.1-1.3,1.2-3.2.1-4.5h-.1a17.4,17.4,0,0,0-1.4-1.4,7.9,7.9,0,0,1,2.1,1.8,3.5,3.5,0,0,1,1.6,1.3c.6,1.4.4,2.2,2.3,2.8s1.9,4.3.8,5.2h-.4c2.1,0,5.5-2.6,5.4-6.7a8.3,8.3,0,0,0-6.3-6.9,6.9,6.9,0,0,1,4,1.7l1.1.2a.4.4,0,0,0,.4-.2h-.3c.1-6.2-13.1-9.8-19-9.9h1.2c2.2.3,7.4.5,11.9,2.5a12.3,12.3,0,0,1,5.1,3.7,16.3,16.3,0,0,0-4.3-4.2c-4.8-3.5-10.3-2.8-13.1-3.4a1.6,1.6,0,0,1-1.5.4,2.4,2.4,0,0,0,1.4-.4l-.4-.2h.4c.4-.4,0-1-.8-1.6h-.1a8.5,8.5,0,0,0-4.4-1.5c-3.7-.8-8.1,0-12.7.6a67.2,67.2,0,0,0-15.6,3.9L245.1,35l.4-.2c4.1-1.3,11.4-5.1,20.7-6,4.6-.7,9.1-1.5,12.9-.5a14.9,14.9,0,0,1,4.8,1.7h.1c1.9-.1,4.9-1,3-3.2a11.4,11.4,0,0,0-7.6-1.7h.1a9.4,9.4,0,0,1,2.4-.3l2.2-.4a3.6,3.6,0,0,1,2.2.3h.2c-1.5-1.7-4.9-3.2-9.2-3s-8.1,3.1-10.3,2.7h.2a5,5,0,0,0,1.7-.4h.3l.5-.2a2.9,2.9,0,0,0,1.7-2c-.4-1.5-2.9-.8-4.7-.1a69,69,0,0,0-7.2,2.8l-3.4,1.6c-5.8,2.9-11,7.1-16.8,10A114,114,0,0,1,209.3,46a75.4,75.4,0,0,1-26.1.6L177,45.3a47.8,47.8,0,0,1-16.3-8.4,33.9,33.9,0,0,0,10.4,1.9,86.5,86.5,0,0,0,9.9-.2h1.7l4.8-.4,8.3,2.7,3.8.9,4.4.8h.7l2,.2c5.1.4,13.7-.2,15-6.5a.7.7,0,0,0,0-.3,5.7,5.7,0,0,0-.2-2.9c-.6-2.2-2.4-3.5-3.9-2.6l-.4.2h.5a2.6,2.6,0,0,1,2.7.9,2.1,2.1,0,0,1,.7,1.3,3.6,3.6,0,0,1-1.2,3,11.2,11.2,0,0,1-2.7,2,17.5,17.5,0,0,1-7.8,1.4l-.5-.4a12.2,12.2,0,0,0-2-1.5l-2.5-1.3a21.5,21.5,0,0,0-5.1-1.6,42.2,42.2,0,0,0-11-.1l-3-1.1-.4-.2-1.4-.4a53,53,0,0,0-10.5-2.8,27.8,27.8,0,0,0-12.5.9,20.5,20.5,0,0,0-4.7,2.2l-2.4-2.6-1.4-1.9a28.6,28.6,0,0,0,2.3-4.1v-.2a18.2,18.2,0,0,0,1.7-5.1c.5-3.3-1.4-5.6-4-7.1,0-.1-.5-.1-.7-.1-2.8,1.5-4.7,3.5-4.7,6.9a10.9,10.9,0,0,0,1.2,4.5l.6,1.2h.1l1.4,2.5h0l.6,1-1.1,1.6c-1,1.1-2,2.3-3.1,3.3a20,20,0,0,0-4.5-2.1,27.6,27.6,0,0,0-12.5-.9,50.1,50.1,0,0,0-9.8,2.6l-1.7.6H118l-3.2,1.3a38.5,38.5,0,0,0-10.8.1,23,23,0,0,0-5.1,1.5l-1.7.8-2.1,1.5-.6.4.6-.4a14.1,14.1,0,0,1,2.9-1.3,19.3,19.3,0,0,1,3.8-.4h.7l4.7.4-4.8,1.4A28.3,28.3,0,0,1,98,39l-1.3.2c-3.5.2-7.7.2-10.9-1.4a8.7,8.7,0,0,1-3.5-3.2,2.5,2.5,0,0,1,.1-2.8l.2-.3a2.8,2.8,0,0,1,1.7-1,3,3,0,0,1,1.6.2A2.4,2.4,0,0,0,82,32a6.2,6.2,0,0,0-.7,3.3v1c1.4,6.4,9.9,6.9,15.1,6.5l2.2-.2h.6a45.9,45.9,0,0,0,6.1-1.3l3.6-.9,6.8-2.2h.1l5,.5h1.7a85.7,85.7,0,0,0,10,.2,36.7,36.7,0,0,0,8.3-1.4,45.6,45.6,0,0,1-14.1,6.9c-2,.5-4.1,1.1-6.2,1.4a77.9,77.9,0,0,1-26.1-.6A112.6,112.6,0,0,1,64.4,35c-5.8-2.9-11-7-16.8-10l-3.4-1.6c-2.4-1-4.8-2-7.2-2.9s-4.4-1.3-4.7.2a3,3,0,0,0,1.7,2h.5l.5.2h-.1l1.7.3h.2c-2.2.4-5.9-2-10.3-2.8s-7.7,1.3-9.2,3h.2a3.3,3.3,0,0,1,2.2-.3l2.2.4a6.3,6.3,0,0,1,2.4.4h.2a11.1,11.1,0,0,0-7.6,1.7c-1.8,2.3,1.2,3.2,3.1,3.3h.1a13.4,13.4,0,0,1,4.8-1.7c3.7-1,8.2-.1,12.8.4,9.3.9,16.6,4.7,20.7,6h.3a53.1,53.1,0,0,1-5.5-1.8,69.5,69.5,0,0,0-15.6-3.8c-4.7-.6-9-1.4-12.7-.5a8.5,8.5,0,0,0-4.4,1.4h-.1c-.8.6-1.2,1.3-.8,1.6h0a2,2,0,0,0,1.5.4,1.5,1.5,0,0,1-1.5-.4c-2.8.7-8.3,0-13.1,3.5A14.8,14.8,0,0,0,2,38.6a11.7,11.7,0,0,1,5.1-3.7c4.5-2.1,9.7-2.2,11.9-2.6h1.2c-5.9,0-19.1,3.7-19,9.9h0Zm1.2,5.1a3.9,3.9,0,0,0-.2,1.1c-.5,1.8-.4,4.5,1.2,5.4a2.8,2.8,0,0,1-1.4-2.2,9.9,9.9,0,0,1,.4-4.3,6.4,6.4,0,0,1,.8-1.9A10.5,10.5,0,0,0,3.5,47.4Zm21.3-4.6h0Zm254.2.9h0Zm21.2,4.6a10,10,0,0,1,.4,4.3,2.7,2.7,0,0,1-1.4,2.1c1.6-.9,1.7-3.6,1.2-5.4a3.2,3.2,0,0,0-.2-1.1,10.3,10.3,0,0,0-.8-1.8A7.6,7.6,0,0,1,300.2,48.3Zm-29.8-1.4.4,1a10.9,10.9,0,0,0-1.3-2.3c-1.4-2.3-6.9-6.6-13.1-6.9s-11.5,1-12.7,1.1C249.9,34.8,267,38.4,270.4,46.9ZM199.8,36.6h.7a17,17,0,0,1,6.3.9,7.2,7.2,0,0,1,2.4,1.4l.5.4h-3.2l-4.4-.6a49.5,49.5,0,0,1-5.9-1.6ZM41.5,53.1a16.7,16.7,0,0,1,3.8-3.9l1.8-1.3A21.8,21.8,0,0,0,41.5,53.1ZM151.7,28.6h0V29a2.6,2.6,0,0,1,.1-.4Zm1.5,6.3-.8.7-.8.9-.9-.9-.8-.8h0l.7-1.3a12.1,12.1,0,0,0,1-4.4v-.3h.2c.4,1.9.3,3.7,1.2,5.5l.2.4ZM258.4,50a16.9,16.9,0,0,1,3.7,3.9,20.5,20.5,0,0,0-5.5-5.1Zm-75.3-2.7a73.5,73.5,0,0,0,22.3.5l12.1-1.3,3.1-.6-1.3.2-1.8.3c10-1.3,20-2.5,28.6-1.3a19.3,19.3,0,0,1,6.8,1.7l2.1,1-1.5-.6-.6-.4a30.9,30.9,0,0,0-6.8-1.7c-11.4-1.3-29.4,2.3-46.4,3.6-10.8.7-21.4-.8-29.2-4A43.1,43.1,0,0,1,158,37C163.8,41.9,172.8,45.6,183.1,47.3ZM162.2,31.9c5.7-.6,11.5,1.1,17.3,3.2a89.9,89.9,0,0,1-12.4.2c-3.2-.3-7-.6-10.2-2A19.1,19.1,0,0,1,162.2,31.9Zm-25.6,3.3a69.3,69.3,0,0,1-12.6-.2c5.8-2.1,11.5-3.7,17.2-3.1a21.4,21.4,0,0,1,5.1,1.3l-.5.4A34.7,34.7,0,0,1,136.5,35.3ZM86.2,45.6c4.1.6,8.2,1,12.1,1.3a78.3,78.3,0,0,0,22.3-.4c10.3-1.8,19.3-5.5,25.1-10.4A43.1,43.1,0,0,1,133.1,44c-7.7,3.2-18.4,4.7-29.2,4-17-1.3-35-4.9-46.4-3.6a26,26,0,0,0-6.8,1.8l-.6.3-1.5.6a9.3,9.3,0,0,1,2.1-.9,18.2,18.2,0,0,1,6.8-1.8c8.5-1.3,18.6,0,28.6,1.2l-1.8-.3L83.1,45ZM60,38.8c-1.3-.2-6.5-2.3-12.8-1s-11.6,4.5-13,6.8a12.9,12.9,0,0,0-1.3,2.3l.4-1C36.6,37.6,53.8,33.9,60,38.8Z"/>
    <path class="cls-2" d="M151.9,28.9c-14.9,0-26-10.3-32.8-10.3-3.7,0-4.7.5-4.7,3.2,1.3-1.4,4.5,0,4.5,1.9s-1.3,3.7-4.4,3.7-4.7-3.5-4.7-5.7S111,15,118.5,15s16,7.7,16,7.7-4.9-4.4-4.9-8.9C129.6,5,135,1,139.9,1s8.9,4.2,8.9,8-1,7.1-6.2,7.1a3.3,3.3,0,0,1-3.3-3.4c0-4.7,6.7-3.9,5.4-.5,1.8.8,3.5-7-4.3-7-3.1,0-7.1,3.5-7.1,8.4,0,8.9,10.8,12.2,18.6,12.2s18.6-3.4,18.6-12.2c0-4.8-4-8.4-7.1-8.4-7.8,0-6.1,7.8-4.3,7-1.3-3.4,5.4-4.2,5.4.5a3.3,3.3,0,0,1-3.3,3.4c-5.2,0-6.2-3.4-6.2-7.1s4.9-8,8.9-8,10.3,4,10.3,12.8c0,4.5-4.9,8.9-4.9,8.9s8.5-7.7,16-7.7,8.7,4.3,8.7,6.6-1.5,5.8-4.7,5.8-4.4-1.8-4.4-3.7,3.2-3.3,4.5-1.9c0-2.7-1-3.2-4.7-3.2C177.8,18.6,166.8,28.9,151.9,28.9Z"/>
  </g>
</svg>
