<svg xmlns="http://www.w3.org/2000/svg" viewBox="0 0 396.9 203.4"><g data-name="Layer 2"><g data-name="Layer 1"><path d="M76.9 188.3h-3.5v10.5a2.2 2.2 0 0 0 1.4 2.3 26 26 0 0 0 3.6.5v1H63.8v-1a28.8 28.8 0 0 0 3.3-.5 2.2 2.2 0 0 0 1.4-2.3v-23.4a2.1 2.1 0 0 0-1.4-2.3 11.7 11.7 0 0 0-3.5-.6v-1h15.3c5.4 0 9.8 2.7 9.8 7.4s-5.9 9.4-11.8 9.4zm-.4-15.6h-3.1v14.2h2.2c6.6 0 7.4-4.8 7.4-7s-1.3-7.2-6.5-7.2zm43.9 26.3a16.5 16.5 0 0 1-11.4 4.4 15.8 15.8 0 0 1-10.9-4.3 15.5 15.5 0 0 1-4.9-11.7c0-5 1.5-8.9 4.4-11.9a15.5 15.5 0 0 1 11.5-4.7 16 16 0 0 1 11.6 4.7 16.2 16.2 0 0 1 4.3 11.4 15.2 15.2 0 0 1-4.6 12.1zm-11.1-26.9c-6.5 0-10.4 5.6-10.4 15s3.3 14.8 10.4 14.8 10.4-6.5 10.4-15-2.9-14.8-10.4-14.8zm46.9 31c-3.6 0-5.4-2.6-6.1-7.7-.5-3.6-1.3-8-6.6-8H140v11.4a2.2 2.2 0 0 0 1.4 2.3 28.8 28.8 0 0 0 3.3.5v1h-14.3v-1a28.8 28.8 0 0 0 3.3-.5 2.2 2.2 0 0 0 1.4-2.3v-23.4a2.2 2.2 0 0 0-1.4-2.3 12.8 12.8 0 0 0-3.3-.6v-1h15.9c4.6 0 9.8 2 9.8 7s-5.2 7-8.5 7.9v.4c2.2.2 6 1.4 6.9 4.7s1 4.8 1.6 7a2.5 2.5 0 0 0 2.5 2.2c1.3 0 2-.8 2-4.1v-1h1.2v1c-.1 4.4-1.6 6.5-5.6 6.5zM144 172.7h-4v13.4h2.8c4 0 7.7-1.5 7.7-6.7s-3.1-6.7-6.5-6.7zm46.4 6.7c-.5-2-3-6.3-4.9-6.5l-3.7-.2h-2.1v25.9a2.4 2.4 0 0 0 1.4 2.3l3.7.8v1h-15.1v-1a20.4 20.4 0 0 0 3.7-.6 2.2 2.2 0 0 0 1.4-2.3v-26.1h-2.1a23.6 23.6 0 0 0-3.7.2c-2 .3-4.4 4.5-4.9 6.5H163v-7.9h28.5v7.9zm30.7 23.7c-3.7 0-5.4-2.6-6.1-7.7-.4-3.6-1.3-8-6.6-8h-3.6v11.4a2.2 2.2 0 0 0 1.4 2.3 28.8 28.8 0 0 0 3.3.5v1h-14.3v-1a28.8 28.8 0 0 0 3.3-.5 2.2 2.2 0 0 0 1.4-2.3v-23.4a2.2 2.2 0 0 0-1.4-2.3 12.8 12.8 0 0 0-3.3-.6v-1h15.9c4.6 0 9.8 2 9.8 7s-5.2 7-8.4 7.9v.4c2.2.2 6 1.4 6.9 4.7s1 4.8 1.5 7 1.8 2.2 2.5 2.2 2-.8 2-4.1v-1h1.2v1c0 4.4-1.5 6.5-5.5 6.5zm-12.2-30.4h-4v13.4h2.8c4 0 7.7-1.5 7.7-6.7s-3.1-6.7-6.5-6.7zm37.7 29.9v-1c1.6-.1 4.6-.6 4.6-1.8a1.8 1.8 0 0 0-.2-1l-2.8-7.2H237a46.4 46.4 0 0 0-1.8 5 9.8 9.8 0 0 0-.5 2.6c0 1.6 3.6 2.4 5.1 2.5v1h-12.5v-1a7.3 7.3 0 0 0 3.2-.9 7.5 7.5 0 0 0 2.6-3.5l10.5-26.2h1.7c4.7 11.8 9.1 23.4 10.8 27.6a3.6 3.6 0 0 0 1.9 2.2 8.4 8.4 0 0 0 3 .8v1h-14.4zm-4.1-25.3l-5 12.7h10zm20.9 25.3v-1a16.3 16.3 0 0 0 3.3-.5 2 2 0 0 0 1.4-2.2v-23.5a2.1 2.1 0 0 0-1.4-2.2 13.2 13.2 0 0 0-3.3-.8v-1h14.3v1a19.1 19.1 0 0 0-3.3.6 1.9 1.9 0 0 0-1.4 2.2v23.5a2.2 2.2 0 0 0 1.4 2.2l3.3.7v1zm45.7-23.2c-.5-2-3-6.3-4.9-6.5l-3.7-.2h-2.1v25.9a2.2 2.2 0 0 0 1.4 2.3l3.7.8v1h-15.1v-1a20.4 20.4 0 0 0 3.7-.6 2.2 2.2 0 0 0 1.4-2.3v-26.1h-2.1a23.6 23.6 0 0 0-3.7.2c-2 .3-4.4 4.5-4.9 6.5h-1.1v-7.9h28.5v7.9zm15.8 23.8a11.8 11.8 0 0 1-7.5-2.3l-1.6 2.1h-1.6l-.3-10.7h1c1.9 4.8 4.8 9.5 10.4 9.5 4.1 0 5.8-2.3 5.8-5.8s-1.7-4.9-4.5-6-4-1.5-6.5-2.7a8.2 8.2 0 0 1-5.4-8.1c0-4.8 3.9-8.4 9.1-8.4a11.2 11.2 0 0 1 6.6 2.3l1.6-2.1h1.6l.2 10.4h-1c-1.8-5.1-3.9-9.1-10-9.1a4.5 4.5 0 0 0-4.3 4.7c0 2.8 1.5 4.4 4 5.7s4.1 1.6 6.2 2.6c3.9 1.8 6.4 3.6 6.4 8.4s-4.3 9.5-10.2 9.5z"/><path d="M117.2 141h7.6v1h-6.4v3.6h5.7v1h-5.7v3.7h6.4v1.1h-7.6V141zm10.8 8.8l.7-.9a4.9 4.9 0 0 0 3.6 1.5c1.4 0 2.3-.7 2.3-1.8 0-1-.5-1.5-2.7-2s-3.5-1.3-3.5-3c0-1.6 1.4-2.8 3.4-2.8a5.4 5.4 0 0 1 3.7 1.3l-.7.9a4.5 4.5 0 0 0-3-1.1c-1.3 0-2.2.7-2.2 1.7s.5 1.5 2.8 2 3.4 1.4 3.4 2.9c0 1.8-1.5 2.9-3.5 2.9a5.3 5.3 0 0 1-4.3-1.6zm14.2-7.8h-3.5v-1h8.2v1h-3.5v9.4h-1.2V142zm5.8 7.8h1.4v1.6H148zm11.4-8.8h1.2v9.3h5.8v1.1h-7V141zm9.3 5.2a5.3 5.3 0 0 1 5.3-5.4 5.2 5.2 0 0 1 5.3 5.3 5.3 5.3 0 0 1-5.3 5.4 5.2 5.2 0 0 1-5.3-5.3zm9.4 0a4.1 4.1 0 1 0-8.2 0 4.1 4.1 0 0 0 4.1 4.3 4.2 4.2 0 0 0 4.1-4.3zm5.2-5.2h1.1l6.6 8.3V141h1.1v10.4h-.9l-6.7-8.6v8.6h-1.2V141zm13.7 0h3.6c3.3 0 5.5 2.2 5.5 5.2a5.2 5.2 0 0 1-5.5 5.2H197zm1.2 1v8.2h2.4a4 4 0 0 0 4.3-4.1 4 4 0 0 0-4.3-4.1zm11.4 4.2a5.3 5.3 0 0 1 5.3-5.4 5.2 5.2 0 0 1 5.3 5.3 5.3 5.3 0 0 1-5.3 5.4 5.2 5.2 0 0 1-5.3-5.3zm9.4 0a4.1 4.1 0 1 0-8.2 0 4.1 4.1 0 0 0 4.1 4.3 4.2 4.2 0 0 0 4.1-4.3zm5.2-5.2h1.1l6.6 8.3V141h1.1v10.4h-.9l-6.7-8.6v8.6h-1.2V141zm20.4 1.1l-2 .6-.3-.9 2.6-.9h.8v10.5h-1.1v-9.3zm5.3 6.5a2.9 2.9 0 0 1 2.1-2.6 2.6 2.6 0 0 1-1.8-2.4c0-1.6 1.6-2.7 3.5-2.7s3.6 1.1 3.6 2.7a2.7 2.7 0 0 1-1.8 2.4 2.8 2.8 0 0 1 2.1 2.5c0 1.8-1.7 3-3.9 3s-3.8-1.2-3.8-2.9zm6.7-.1c0-1.2-1.2-2-2.7-2s-2.7.8-2.7 2c0 1 1 1.9 2.7 1.9s2.7-.8 2.7-1.9zm-.4-4.8c0-1-1-1.8-2.4-1.8s-2.4.8-2.4 1.8c0 1.1 1 1.9 2.4 1.9s2.4-.8 2.4-1.9zm10.4-1.7h-5.7v-1h7v.8l-4.7 9.6h-1.3l4.7-9.4zm4.2 4.2c0-2.9 1.7-5.4 4.4-5.4s4.4 2.4 4.4 5.3-1.7 5.4-4.4 5.4-4.4-2.4-4.4-5.3zm7.6 0c0-2.3-1.2-4.3-3.2-4.3s-3.2 2-3.2 4.3 1.3 4.3 3.2 4.3 3.2-2 3.2-4.3zm-168-93.3h1.4c.4 0 .7.1.8.3l.2.5a.8.8 0 0 1-.5.7.8.8 0 0 1 .7.8c0 .6-.5.9-1.2.9h-1.4zm2.1.9c0-.3-.3-.5-.7-.5h-1v1.1h.9c.4-.1.8-.3.8-.6zm-.7.9h-1v1.1h1.1c.5 0 .8-.2.8-.6-.1-.3-.4-.5-.9-.5zm3.7-.9h.4l-1 2.4c-.2.5-.4.7-.8.7h-.5v-.3h.4c.2 0 .3-.1.5-.4l-1.1-2.3h.4l.9 2zm2.3 1.6c0-.5.4-.8 1-.8h.7c0-.4-.3-.6-.7-.6l-.7.2v-.3l.9-.2a1.1 1.1 0 0 1 .8.3 1.4 1.4 0 0 1 .2.7v1.5h-.3v-.4a1.1 1.1 0 0 1-.9.4.9.9 0 0 1-1-.8zm1.8-.1v-.2h-.7c-.4 0-.7.2-.7.5a.6.6 0 0 0 .6.5c.4-.2.8-.5.8-.8zm1.2-1.5h.3v.5a1.1 1.1 0 0 1 .9-.5 1.1 1.1 0 0 1 1.1 1.2 1.1 1.1 0 0 1-1.1 1.2 1.1 1.1 0 0 1-.9-.5v1.2h-.3zm2 1.1a.8.8 0 0 0-.8-.9 1 1 0 0 0-.9.9.8.8 0 0 0 .9.9c.4.1.8-.3.8-.9zm1.1-1.1h.4v.5a1.1 1.1 0 0 1 .9-.5 1.1 1.1 0 0 1 1.1 1.2 1.1 1.1 0 0 1-1.1 1.2 1.1 1.1 0 0 1-.9-.5v1.2h-.4zm2.1 1.1a.8.8 0 0 0-.8-.9 1 1 0 0 0-.9.9.8.8 0 0 0 .9.9c.5 0 .8-.3.8-.9zm.9.1a1.2 1.2 0 0 1 1.2-1.3 1.2 1.2 0 0 1 1.2 1.2 1.2 1.2 0 0 1-1.2 1.2 1.1 1.1 0 0 1-1.2-1.1zm2.1 0a.9.9 0 0 0-1.8 0 .9.9 0 0 0 .9.9.8.8 0 0 0 .9-.9zm1.2-1.8h.4v-.4h-.4zm0 2.9h.3v-2.4h-.3zm1.3-2.3h.3v.4a.9.9 0 0 1 .8-.5c.6 0 .9.4.9 1v1.5h-.4v-1.4c0-.4-.2-.7-.6-.7a.7.7 0 0 0-.7.7v1.4h-.3zm3 1.7v-1.4h-.3v-.3h.3v-.7h.3v.7h.7v.3h-.7v1.4a.4.4 0 0 0 .4.4h.3v.3h-.4c-.3 0-.6-.2-.6-.7zm1.9-1.7h.3v.4a1 1 0 0 1 .8-.4.9.9 0 0 1 .8.5.9.9 0 0 1 .8-.5.9.9 0 0 1 .9 1v1.5h-.3v-1.4c0-.4-.2-.7-.6-.7a.7.7 0 0 0-.7.7v1.4h-.4v-1.4c0-.4-.2-.7-.6-.7a.7.7 0 0 0-.7.7v1.3h-.3zm4.3 1.1a1.1 1.1 0 0 1 1.1-1.2 1.2 1.2 0 0 1 1.1 1.3H141a.8.8 0 0 0 .8.8.8.8 0 0 0 .7-.3l.2.2a1.1 1.1 0 0 1-1 .4c-.5.1-1-.4-1-1.2zm1.9-.1a.8.8 0 0 0-.8-.8c-.4 0-.7.3-.8.8zm1-1h.4v.4a.8.8 0 0 1 .8-.5c.6 0 .9.4.9 1v1.5h-.4v-1.4a.6.6 0 0 0-.7-.7.7.7 0 0 0-.7.7v1.4h-.4v-2.4zm3.1 1.7v-1.4h-.3v-.3h.3v-.7h.3v.7h.7v.3h-.7v1.4a.4.4 0 0 0 .4.4h.3v.3h-.4c-.3 0-.6-.2-.6-.7zm3.4 0v-1.4h-.3v-.3h.3v-.7h.4v.7h.7v.3h-.7v1.4c0 .3.1.4.4.4h.3v.3h-.4a.6.6 0 0 1-.7-.7zm1.7-.5a1.2 1.2 0 0 1 1.2-1.3 1.2 1.2 0 0 1 1.2 1.2 1.2 1.2 0 0 1-1.2 1.2 1.1 1.1 0 0 1-1.2-1.1zm2.1 0a.9.9 0 0 0-1.8 0 .9.9 0 1 0 1.8 0zm-54.5 3.6h.3v1.5h1.9v-1.5h.3v3.2h-.3v-1.4h-1.9v1.4h-.3v-3.2zm3.5 0h1.4a1.2 1.2 0 0 1 .9.3.9.9 0 0 1 .3.6c0 .5-.4.8-.9.9l1 1.3h-.4l-.9-1.3h-.9v1.3h-.4v-3.1zm1.4 1.7a.7.7 0 0 0 .8-.7c0-.4-.3-.6-.8-.6h-1v1.3zm2.1-1.7h.3v1.5h1.9v-1.5h.3v3.2h-.3v-1.4h-1.9v1.4h-.3v-3.2zm5.9.4h-1.1v-.4h2.5v.4h-1.1v2.8h-.3V59zm2.1-.5h.4v1.4a.8.8 0 0 1 .8-.5c.6 0 .9.4.9 1v1.5h-.3v-1.4a.6.6 0 0 0-.7-.7.7.7 0 0 0-.7.7v1.4h-.4zm2.8 2.2a1.1 1.1 0 0 1 1.1-1.2 1.2 1.2 0 0 1 1.1 1.3h-1.9c.1.5.4.8.8.8a.8.8 0 0 0 .7-.3l.2.2a1.1 1.1 0 0 1-1 .4 1.3 1.3 0 0 1-1-1.2zm1.8-.2a.8.8 0 0 0-.8-.8c-.4 0-.7.3-.8.8zm2.7-1.9h1.1a1.6 1.6 0 0 1 1.7 1.6 1.6 1.6 0 0 1-1.7 1.6h-1.1zm.3.4v2.5h.7a1.2 1.2 0 0 0 1.3-1.3 1.3 1.3 0 0 0-1.3-1.3h-.7zm3.3 1.9v-1.5h.4v1.4c0 .4.2.7.6.7a.7.7 0 0 0 .7-.7v-1.3h.4v2.4h-.4v-.4a.8.8 0 0 1-.8.5 1 1 0 0 1-.9-1.1zm2.9-2.4h.4v2.3l1.3-1.3h.4l-1 1 1 1.3h-.4l-.8-1.1-.5.5v.6h-.4v-3.3zm2.5 2.2a1.1 1.1 0 0 1 1.1-1.2 1.2 1.2 0 0 1 1.1 1.3H131c.1.5.4.8.8.8a.8.8 0 0 0 .7-.3l.2.2a1.1 1.1 0 0 1-1 .4 1.3 1.3 0 0 1-1-1.2zm1.9-.2a.8.8 0 0 0-.8-.8c-.4 0-.7.3-.8.8zm2.4.2a1.2 1.2 0 0 1 1.2-1.3 1.2 1.2 0 0 1 1.2 1.2 1.2 1.2 0 0 1-1.2 1.2 1.1 1.1 0 0 1-1.2-1.1zm2.1 0a.9.9 0 0 0-1.8 0 .9.9 0 1 0 1.8 0zm1.2-.9h-.3v-.3h.3v-.2a.8.8 0 0 1 .2-.6l.5-.2h.4v.3h-.3c-.3 0-.4.2-.4.5v.2h.7v.3h-.7v2h-.4zm3.2-1.2h2.4v.4h-2v1.1h1.8v.3h-1.8v1.1h2v.3h-2.4v-3.2zm3 2.1a1.1 1.1 0 0 1 1.1-1.2 1.1 1.1 0 0 1 .9.5v-1.4h.4v3.3h-.4v-.5a1.1 1.1 0 0 1-.9.5 1.1 1.1 0 0 1-1.1-1.2zm2 0a.8.8 0 0 0-.9-.9c-.5 0-.8.3-.8.9a.8.8 0 0 0 .8.9.9.9 0 0 0 .9-.9zm1.3-1.7h.4v-.4h-.4zm0 2.8h.4v-2.4h-.4zm1.3-2.3h.4v.4a.8.8 0 0 1 .8-.5c.6 0 .9.4.9 1v1.5h-.3v-1.4a.6.6 0 0 0-.7-.7.7.7 0 0 0-.7.7v1.4h-.4zm3.3 1.9v.5h-.4v-3.3h.3v1.5a1.1 1.1 0 0 1 .9-.5 1.1 1.1 0 0 1 1.1 1.2 1.1 1.1 0 0 1-1.1 1.2 1.7 1.7 0 0 1-.8-.6zm1.6-.7a.8.8 0 0 0-.8-.9 1 1 0 0 0-.9.9.9.9 0 0 0 .9.9.8.8 0 0 0 .8-.9zm1.1.2v-1.5h.3v1.4a.6.6 0 0 0 .7.7.7.7 0 0 0 .7-.7v-1.3h.3v2.4h-.3v-.4a.9.9 0 0 1-.8.5 1.1 1.1 0 0 1-.9-1.1zm3-1.4h.4v.6a1.1 1.1 0 0 1 1-.7v.4c-.5 0-.9.4-.9 1.1v.9h-.4v-2.3zm1.8 2.7v-.3a1.6 1.6 0 0 0 .9.3.8.8 0 0 0 .9-.8v-.3a1.1 1.1 0 0 1-2-.6 1.1 1.1 0 0 1 1.1-1.1 1.1 1.1 0 0 1 .9.5v-.4h.4v1.9a1 1 0 0 1-.3.8 1.2 1.2 0 0 1-.9.3 1.2 1.2 0 0 1-1-.3zm2-1.7a.8.8 0 0 0-.9-.8.8.8 0 0 0-.8.8.8.8 0 0 0 .8.8.8.8 0 0 0 .9-.8zm1.2-2h.3v1.4a.9.9 0 0 1 .8-.5c.6 0 .9.4.9 1v1.5h-.4v-1.4c0-.4-.2-.7-.6-.7a.7.7 0 0 0-.7.7v1.4h-.3zm-70.6 5.9h.3l1.2 1.7 1.1-1.7h.4v3.2h-.4V65L94 66.7 92.8 65v2.6h-.3v-3.2zm3.8 2.5c0-.5.4-.8 1-.8h.7c0-.4-.3-.6-.7-.6l-.7.2v-.3l.9-.2a1 1 0 0 1 .8.3.9.9 0 0 1 .3.7v1.5H98v-.4a1.1 1.1 0 0 1-.9.4c-.4-.1-.8-.4-.8-.8zm1.7-.2v-.2h-.7c-.4 0-.7.2-.7.5a.6.6 0 0 0 .6.5c.5-.2.8-.4.8-.8zm1.2-1.5h.4v.4a.8.8 0 0 1 .8-.5c.6 0 .9.4.9 1v1.5h-.3v-1.4a.6.6 0 0 0-.7-.7.7.7 0 0 0-.7.7v1.4h-.4v-2.4zm2.9 1.5v-1.5h.3v1.4a.6.6 0 0 0 .7.7.7.7 0 0 0 .7-.7v-1.3h.4v2.4h-.4v-.6a.8.8 0 0 1-.8.5.9.9 0 0 1-.9-.9zm3.1-1.2h-.3v-.3h.3V65a.8.8 0 0 1 .2-.6l.5-.2h.4v.3h-.3c-.3 0-.4.2-.4.5v.2h.7v.3h-.7v2h-.3v-2zm1.4 1.4c0-.5.4-.8 1-.8h.7c0-.4-.3-.6-.7-.6l-.7.2v-.3l.9-.2a1.1 1.1 0 0 1 .8.3 1.4 1.4 0 0 1 .2.7v1.5h-.3v-.4a1.1 1.1 0 0 1-.9.4c-.5-.1-1-.4-1-.8zm1.8-.2v-.2h-.7c-.4 0-.7.2-.7.5a.6.6 0 0 0 .6.5c.4-.2.8-.4.8-.8zm1-.3a1.2 1.2 0 0 1 1.2-1.3 1.3 1.3 0 0 1 .9.4l-.2.2a1 1 0 0 0-.7-.4.9.9 0 0 0-.9.9.9.9 0 0 0 .9.9.9.9 0 0 0 .7-.3l.2.2a1.1 1.1 0 0 1-1 .4c-.5.2-1.1-.4-1.1-1zm3 .5v-1.4h-.3v-.3h.3v-.7h.4v.7h.7v.3h-.7v1.4c0 .3.1.4.4.4h.3v.3h-.4a.6.6 0 0 1-.7-.7zm1.8-.2v-1.5h.3v1.4a.6.6 0 0 0 .7.7.7.7 0 0 0 .7-.7v-1.3h.3v2.4h-.3v-.6a.9.9 0 0 1-1.7-.4zm3-1.5h.3v.6a1.1 1.1 0 0 1 1-.7v.4c-.5 0-.9.4-.9 1.1v.9h-.3v-2.3zm1.7 1.2a1.1 1.1 0 0 1 1.1-1.2 1.2 1.2 0 0 1 1.1 1.3h-1.9a.8.8 0 0 0 .8.8.8.8 0 0 0 .7-.3l.2.2a1.1 1.1 0 0 1-1 .4 1.3 1.3 0 0 1-1-1.2zm1.9-.2a.8.8 0 0 0-.7-.8c-.4 0-.7.3-.8.8zm1.1-1h.4v.6a1.1 1.1 0 0 1 1-.7v.4c-.5 0-.9.4-.9 1.1v.9h-.4v-2.3zm1.8 2l.2-.2a1.3 1.3 0 0 0 .8.3c.3 0 .5-.1.5-.4 0-.2-.3-.3-.6-.4s-.8-.2-.8-.7a.7.7 0 0 1 .8-.7 1.1 1.1 0 0 1 .8.3v.3l-.7-.2c-.3 0-.4.1-.4.3s.3.3.6.4.8.3.8.7a.8.8 0 0 1-.8.7 1.2 1.2 0 0 1-1.2-.4zm3.9-.8a1.2 1.2 0 0 1 1.2-1.3 1.2 1.2 0 0 1 1.2 1.2 1.2 1.2 0 0 1-1.2 1.2 1.1 1.1 0 0 1-1.2-1.1zm2.1 0a.9.9 0 1 0-1.8 0 .9.9 0 0 0 1.8 0zm1.2-.9h-.3v-.3h.3V65a.8.8 0 0 1 .2-.6l.5-.2h.4v.3h-.3c-.3 0-.4.2-.4.5v.2h.7v.3h-.7v2h-.4zm4.1-.8h-1.1v-.3h2.5v.3h-1v2.9h-.4v-2.9zm1.4 1.7a1.2 1.2 0 0 1 1.2-1.3 1.2 1.2 0 0 1 1.2 1.2 1.2 1.2 0 0 1-1.2 1.2 1.1 1.1 0 0 1-1.2-1.1zm2.1 0a.9.9 0 0 0-1.8 0 .9.9 0 0 0 .9.9.8.8 0 0 0 .9-.9zm1.1-1.7h.4v-.4h-.4zm.1 2.9h.3v-2.4h-.3zm1.3-3.4h.3v3.3h-.3zm1.1 2.2a1.1 1.1 0 0 1 1.1-1.2 1.2 1.2 0 0 1 1.1 1.3h-1.9a.8.8 0 0 0 .8.8.8.8 0 0 0 .7-.3l.2.2a1.1 1.1 0 0 1-1 .4 1.4 1.4 0 0 1-1-1.2zm1.9-.2a.8.8 0 0 0-.7-.8c-.4 0-.7.3-.8.8zm1.2.7v-1.4h-.3v-.3h.3v-.7h.4v.7h.7v.3h-.7v1.4a.4.4 0 0 0 .4.4h.3v.3h-.4a.6.6 0 0 1-.7-.7zm3.4-2.5h1.4a1.2 1.2 0 0 1 .9.3.9.9 0 0 1 .3.6c0 .5-.4.8-.9.9l1 1.3h-.4l-.9-1.3h-1v1.3h-.4zm1.3 1.6a.7.7 0 0 0 .8-.7c0-.4-.3-.6-.8-.6h-1V66zm1.9.4a1.1 1.1 0 0 1 1.1-1.2 1.2 1.2 0 0 1 1.1 1.3h-1.9a.8.8 0 0 0 .8.8.8.8 0 0 0 .7-.3l.2.2a1.1 1.1 0 0 1-1 .4 1.3 1.3 0 0 1-1-1.2zm1.8-.2a.8.8 0 0 0-.8-.8c-.4 0-.7.3-.8.8zm3 .9a1.1 1.1 0 0 1-.9.5 1.1 1.1 0 0 1-1.1-1.2 1.1 1.1 0 0 1 1.1-1.2 1.1 1.1 0 0 1 .9.5v-.4h.4v3.1h-.4zm0-.7a.8.8 0 0 0-.9-.9.8.8 0 0 0-.8.9.8.8 0 0 0 .8.9.9.9 0 0 0 .9-.9zm1.3.3v-1.5h.3v1.4a.6.6 0 0 0 .7.7.7.7 0 0 0 .7-.7v-1.3h.3v2.4h-.3v-.6a.9.9 0 0 1-.8.5.8.8 0 0 1-.9-.9zm2.9-2h.4v-.4h-.4zm0 2.9h.4v-2.4h-.4zm1.1-.4l.2-.2a1.3 1.3 0 0 0 .8.3c.3 0 .5-.1.5-.4 0-.2-.3-.3-.6-.4s-.8-.2-.8-.7a.7.7 0 0 1 .8-.7 1.6 1.6 0 0 1 .9.3l-.2.3-.7-.2c-.3 0-.5.1-.5.3s.3.3.6.4.7.3.7.7a.8.8 0 0 1-.8.7 1.4 1.4 0 0 1-.9-.4zm2.6-2.5h.4v-.4h-.4zm.1 2.9h.3v-2.4h-.3zm1.4-.7v-1.4h-.3v-.3h.3v-.7h.3v.7h.8v.3h-.8v1.4a.4.4 0 0 0 .4.4h.3v.3h-.4c-.4 0-.6-.2-.6-.7zm1.6-.5a1.1 1.1 0 0 1 1.1-1.2 1.2 1.2 0 0 1 1.1 1.3h-1.9c.1.5.4.8.8.8a.8.8 0 0 0 .7-.3l.2.2a1.1 1.1 0 0 1-1 .4 1.3 1.3 0 0 1-1-1.2zm1.9-.2a.8.8 0 0 0-.7-.8c-.4 0-.7.3-.8.8zm.9 1l.2-.2a1.3 1.3 0 0 0 .8.3c.3 0 .5-.1.5-.4 0-.2-.3-.3-.6-.4s-.8-.2-.8-.7a.7.7 0 0 1 .8-.7 1.6 1.6 0 0 1 .9.3l-.2.3-.7-.2c-.3 0-.5.1-.5.3s.3.3.6.4.7.3.7.7a.8.8 0 0 1-.8.7 1.1 1.1 0 0 1-.9-.4zm-71.3 2.9h1.2c.7 0 1.2.4 1.2 1s-.6 1-1.3 1h-.8v1.1H99v-3.1zm1.1 1.7a.8.8 0 0 0 .9-.7c0-.4-.3-.7-.9-.7h-.8v1.4zm1.8.3a1.1 1.1 0 0 1 1.1-1.2 1.2 1.2 0 0 1 1.1 1.3h-1.9a.8.8 0 0 0 .8.8.8.8 0 0 0 .7-.3l.2.2a1.1 1.1 0 0 1-1 .4 1.3 1.3 0 0 1-1-1.2zm1.9-.1a.8.8 0 0 0-.7-.8c-.4 0-.7.3-.8.8zm1.1-1.1h.4v.4a.8.8 0 0 1 .8-.5c.6 0 .9.4.9 1v1.5h-.3v-1.4a.6.6 0 0 0-.7-.7.7.7 0 0 0-.7.7v1.3h-.4zm2.9-1h.4v1.4a.8.8 0 0 1 .8-.5c.6 0 .9.4.9 1v1.5h-.4v-1.4c0-.4-.2-.7-.6-.7a.7.7 0 0 0-.7.7v1.3h-.4zm2.8 2.7c0-.5.4-.8 1-.8h.7c0-.4-.3-.6-.7-.6l-.7.2v-.3l.9-.2a1.1 1.1 0 0 1 .8.3 1.4 1.4 0 0 1 .2.7v1.4h-.3V73a1.1 1.1 0 0 1-.9.4c-.6-.1-1-.3-1-.8zm1.7-.2v-.2h-.7c-.4 0-.7.2-.7.5a.6.6 0 0 0 .6.5c.5-.2.8-.4.8-.8zm1.2-2.5h.4v3.3h-.4zm1.3.5h.4V70h-.4zm.1 2.9h.3V71h-.3zm1.2.4v-.3l.9.3a.8.8 0 0 0 .9-.8v-.3a1.1 1.1 0 0 1-2-.6 1.1 1.1 0 0 1 1.1-1.1 1.1 1.1 0 0 1 .9.5V71h.4v1.9a1 1 0 0 1-.3.8 1.2 1.2 0 0 1-.9.3 2 2 0 0 1-1-.3zm1.9-1.7a.8.8 0 0 0-.9-.8.8.8 0 0 0-.8.8.8.8 0 0 0 .8.8.9.9 0 0 0 .9-.8zm1.1.1a1.2 1.2 0 0 1 1.2-1.2 1.2 1.2 0 0 1 1.2 1.2 1.2 1.2 0 0 1-1.2 1.2 1.2 1.2 0 0 1-1.2-1.2zm2.1 0a.9.9 0 1 0-1.8 0 .9.9 0 1 0 1.8 0zm1.2-1.2h.3v.4a.9.9 0 0 1 .8-.5c.6 0 .9.4.9 1v1.5h-.3v-1.4a.6.6 0 0 0-.7-.7.7.7 0 0 0-.7.7v1.3h-.3zm2.7 0c.2-.1.3-.2.3-.4h-.2v-.4h.4v.4c0 .4-.2.6-.5.6zm1.1 2.1l.2-.2a1.3 1.3 0 0 0 .8.3c.3 0 .5-.1.5-.4 0-.2-.3-.3-.6-.4s-.8-.2-.8-.7a.7.7 0 0 1 .8-.7 1.1 1.1 0 0 1 .8.3v.3l-.7-.2c-.3 0-.5.1-.5.3s.3.3.6.4.8.3.8.7a.8.8 0 0 1-.8.7zm4.1-2.9h.4v2.8h1.8v.4h-2.2v-3.2zm2.9.3h.4V70h-.4zm0 2.9h.4V71h-.4zm1.3-2.4h.4v.4a.9.9 0 0 1 1.6.1.9.9 0 0 1 .8-.5.9.9 0 0 1 .9 1v1.5h-.4V72c0-.4-.2-.7-.6-.7s-.6.3-.6.7v1.3h-.3v-1.4c0-.4-.2-.7-.6-.7a.7.7 0 0 0-.7.7v1.3h-.4v-2.3zm4.5-.5h.4V70h-.4zm0 2.9h.3V71h-.3zm1.4-.7v-1.4h-.3v-.3h.3v-.7h.3v.7h.7v.3h-.7v1.4a.4.4 0 0 0 .4.4h.3v.3h-.4c-.3 0-.6-.2-.6-.7zm1.7-.5a1.1 1.1 0 0 1 1.1-1.2 1.2 1.2 0 0 1 1.1 1.3h-1.9a.8.8 0 0 0 .8.8.8.8 0 0 0 .7-.3l.2.2a1.1 1.1 0 0 1-1 .4 1.3 1.3 0 0 1-1-1.2zm1.8-.1a.8.8 0 0 0-.8-.8c-.4 0-.7.3-.8.8zm1 .1a1.1 1.1 0 0 1 1.1-1.2 1.1 1.1 0 0 1 .9.5V70h.4v3.3h-.4v-.5a1.1 1.1 0 0 1-.9.5 1.1 1.1 0 0 1-1.1-1.2zm2 0a.8.8 0 0 0-.9-.9.8.8 0 0 0-.8.9.8.8 0 0 0 .8.9.9.9 0 0 0 .9-.9zm2.8-2h.4v2.8h1.8v.4h-2.2v-3.2zm2.7 2a1.2 1.2 0 0 1 1.2-1.2 1.2 1.2 0 0 1 1.2 1.2 1.2 1.2 0 0 1-2.4 0zm2.1 0a.9.9 0 1 0-1.8 0 .9.9 0 0 0 .9.9.8.8 0 0 0 .9-.9zm1.1-1.2h.4v.4a.8.8 0 0 1 .8-.5c.6 0 .9.4.9 1v1.5h-.3v-1.4a.6.6 0 0 0-.7-.7.7.7 0 0 0-.7.7v1.3h-.4zm2.8 1.2a1.1 1.1 0 0 1 1.1-1.2 1.1 1.1 0 0 1 .9.5V70h.3v3.3h-.3v-.5a1.1 1.1 0 0 1-.9.5 1.1 1.1 0 0 1-1.1-1.2zm2.1 0a.8.8 0 0 0-.9-.9c-.5 0-.8.3-.8.9a.8.8 0 0 0 .8.9.9.9 0 0 0 .9-.9zm1.1 0a1.2 1.2 0 0 1 1.2-1.2 1.2 1.2 0 0 1 1.2 1.2 1.2 1.2 0 1 1-2.4 0zm2.1 0a.9.9 0 1 0-1.8 0 .9.9 0 0 0 1.8 0zm1.1-1.2h.3v.4a.9.9 0 0 1 .8-.5c.6 0 .9.4.9 1v1.5h-.4v-1.4a.6.6 0 0 0-.7-.7.7.7 0 0 0-.7.7v1.3h-.3v-2.3zm77.7-18h1.4c.4 0 .7.1.8.3l.2.5a.8.8 0 0 1-.5.7.8.8 0 0 1 .7.8c0 .6-.5.9-1.2.9h-1.4zm2 .9c0-.3-.2-.5-.7-.5h-1v1.1h.9c.5-.1.8-.3.8-.6zm-.6.9h-1v1.1h1.1c.5 0 .8-.2.8-.6-.1-.3-.4-.5-.9-.5zm3.7-.9h.4l-1 2.4c-.2.5-.4.7-.8.7h-.5v-.3h.4c.2 0 .3-.1.5-.4l-1.1-2.3h.4l.9 2zm2.4 1.6c0-.5.4-.8 1-.8h.7c0-.4-.3-.6-.7-.6l-.7.2v-.3l.9-.2a1.1 1.1 0 0 1 .8.3 1.4 1.4 0 0 1 .2.7v1.5h-.3v-.4a1.1 1.1 0 0 1-.9.4.8.8 0 0 1-1-.8zm1.7-.1v-.2h-.7c-.4 0-.7.2-.7.5a.6.6 0 0 0 .6.5c.4-.2.8-.5.8-.8zm1.2-1.5h.3v.5a1.1 1.1 0 0 1 .9-.5 1.1 1.1 0 0 1 1.1 1.2 1.1 1.1 0 0 1-1.1 1.2 1.1 1.1 0 0 1-.9-.5v1.2h-.3zm2 1.1a.8.8 0 0 0-.8-.9 1 1 0 0 0-.9.9.8.8 0 0 0 .9.9c.4.1.8-.3.8-.9zm1.1-1.1h.4v.5a1.1 1.1 0 0 1 .9-.5 1.1 1.1 0 0 1 1.1 1.2 1.1 1.1 0 0 1-1.1 1.2 1.1 1.1 0 0 1-.9-.5v1.2h-.4zm2.1 1.1a.8.8 0 0 0-.8-.9 1 1 0 0 0-.9.9.8.8 0 0 0 .9.9c.4.1.8-.3.8-.9zm.9.1a1.2 1.2 0 0 1 1.2-1.3 1.2 1.2 0 0 1 1.2 1.2 1.2 1.2 0 0 1-1.2 1.2 1.1 1.1 0 0 1-1.2-1.1zm2.1 0a.9.9 0 1 0-1.8 0 .9.9 0 0 0 .9.9.8.8 0 0 0 .9-.9zm1.2-1.8h.4v-.4h-.4zm0 2.9h.3v-2.4h-.3zm1.3-2.3h.3v.4a.8.8 0 0 1 .8-.5c.6 0 .9.4.9 1v1.5h-.4v-1.4c0-.4-.2-.7-.6-.7a.7.7 0 0 0-.7.7v1.4h-.3v-2.4zm3 1.7v-1.4h-.3v-.3h.3v-.7h.3v.7h.7v.3h-.7v1.4a.4.4 0 0 0 .4.4h.3v.3h-.4c-.3 0-.6-.2-.6-.7zm1.9-1.7h.3v.4a2.1 2.1 0 0 0 2.4-.4.9.9 0 0 1 .9 1v1.5h-.3v-1.4c0-.4-.2-.7-.6-.7a.7.7 0 0 0-.7.7v1.4h-.3v-1.4c0-.4-.2-.7-.6-.7a.7.7 0 0 0-.7.7v1.3h-.3v-2.4zm4.3 1.1a1.1 1.1 0 0 1 1.1-1.2 1.2 1.2 0 0 1 1.1 1.3h-1.9a.8.8 0 0 0 .8.8.9.9 0 0 0 .7-.3l.2.2a1.1 1.1 0 0 1-1 .4c-.5.1-1-.4-1-1.2zm1.9-.1a.8.8 0 0 0-.8-.8c-.4 0-.7.3-.8.8zm1-1h.4v.4a.8.8 0 0 1 .8-.5c.6 0 .9.4.9 1v1.5h-.4v-1.4a.6.6 0 0 0-.7-.7.7.7 0 0 0-.7.7v1.4h-.4v-2.4zm3.1 1.7v-1.4h-.3v-.3h.3v-.7h.3v.7h.7v.3h-.7v1.4a.4.4 0 0 0 .4.4h.3v.3h-.4c-.3 0-.6-.2-.6-.7zm3.5 0v-1.4h-.4v-.3h.3v-.7h.3v.7h.7v.3h-.7v1.4a.4.4 0 0 0 .4.4h.3v.3h-.4c-.3 0-.5-.2-.5-.7zm1.6-.5a1.2 1.2 0 0 1 1.2-1.3 1.2 1.2 0 0 1 1.2 1.2 1.2 1.2 0 0 1-1.2 1.2A1.1 1.1 0 0 1 284 55zm2.1 0a.9.9 0 1 0-1.8 0 .9.9 0 0 0 1.8 0zm-50.7 3.6h.3v1.5h1.9v-1.5h.3v3.2h-.3v-1.4h-1.9v1.4h-.3v-3.2zm3.5 0h1.4a1.2 1.2 0 0 1 .9.3.9.9 0 0 1 .3.6c0 .5-.4.8-.9.9l1 1.3h-.4l-.9-1.3h-.9v1.3h-.4v-3.1zm1.4 1.7a.7.7 0 0 0 .8-.7c0-.4-.3-.6-.8-.6h-1v1.3zm2.1-1.7h.3v1.5h1.9v-1.5h.3v3.2h-.3v-1.4h-1.9v1.4h-.3v-3.2zm5.9.4h-1.1v-.4h2.5v.4h-1.1v2.8h-.3V59zm2.1-.5h.4v1.4a.8.8 0 0 1 .8-.5c.6 0 .9.4.9 1v1.5h-.3v-1.4a.6.6 0 0 0-.7-.7.7.7 0 0 0-.7.7v1.4h-.4v-3.4zm2.8 2.2a1.1 1.1 0 0 1 1.1-1.2 1.2 1.2 0 0 1 1.1 1.3h-1.9a.8.8 0 0 0 .8.8.8.8 0 0 0 .7-.3l.2.2a1.1 1.1 0 0 1-1 .4 1.3 1.3 0 0 1-1-1.2zm1.8-.2a.8.8 0 0 0-.8-.8c-.4 0-.7.3-.8.8zm2.7-1.9h1.2c.7 0 1.2.4 1.2 1s-.6 1-1.3 1h-.8v1.1h-.4v-3.1zm1.1 1.8a.8.8 0 0 0 .9-.7c0-.4-.3-.7-.9-.7h-.8v1.4zm2-.9h.3v.6a1.1 1.1 0 0 1 1-.7v.4c-.5 0-.9.4-.9 1.1v.9h-.3v-2.3zm2-.5h.4v-.4h-.4zm0 2.8h.4v-2.4h-.4zm1.3-2.3h.4v.4a.8.8 0 0 1 .8-.5c.6 0 .9.4.9 1v1.5h-.4v-1.4c0-.4-.2-.7-.6-.7a.7.7 0 0 0-.7.7v1.4h-.4v-2.4zm2.8 1.2a1.2 1.2 0 0 1 1.2-1.3 1.3 1.3 0 0 1 .9.4l-.2.2a1 1 0 0 0-.7-.4.9.9 0 0 0-.9.9.9.9 0 0 0 .9.9.9.9 0 0 0 .7-.3l.2.2a1.2 1.2 0 0 1-1 .4c-.6.2-1.1-.4-1.1-1zm2.6 0a1.1 1.1 0 0 1 1.1-1.2 1.2 1.2 0 0 1 1.1 1.3h-1.9c.1.5.4.8.8.8a.8.8 0 0 0 .7-.3l.2.2a1.1 1.1 0 0 1-1 .4 1.3 1.3 0 0 1-1-1.2zm1.9-.2a.8.8 0 0 0-.7-.8c-.4 0-.7.3-.8.8zm2.4.2a1.2 1.2 0 0 1 1.2-1.3 1.2 1.2 0 0 1 1.2 1.2 1.2 1.2 0 0 1-1.2 1.2 1.1 1.1 0 0 1-1.2-1.1zm2.1 0a.9.9 0 0 0-1.8 0 .9.9 0 0 0 .9.9.8.8 0 0 0 .9-.9zm1.3-.9h-.3v-.3h.3v-.2a.8.8 0 0 1 .2-.6l.5-.2h.4v.3h-.3c-.3 0-.4.2-.4.5v.2h.7v.3h-.7v2h-.4v-2zm2.9-1.2h.4l.9 2.7.9-2.7h.3l.9 2.7.9-2.7h.4l-1.2 3.3h-.3l-.9-2.6-.8 2.6h-.3l-1.2-3.3zm4.9 2.6c0-.5.4-.8 1-.8h.7c0-.4-.3-.6-.7-.6l-.7.2v-.3l.9-.2a1.1 1.1 0 0 1 .8.3 1.4 1.4 0 0 1 .2.7V62h-.3v-.4a1.1 1.1 0 0 1-.9.4c-.6-.1-1-.4-1-.8zm1.7-.2v-.2h-.7c-.4 0-.7.2-.7.5a.6.6 0 0 0 .6.5c.5-.2.8-.5.8-.8zm1.3-2.5h.3v3.3h-.3zm1.1 2.2a1.1 1.1 0 0 1 1.1-1.2 1.2 1.2 0 0 1 1.1 1.3h-1.9a.8.8 0 0 0 .8.8.8.8 0 0 0 .7-.3l.2.2a1.1 1.1 0 0 1-1 .4 1.3 1.3 0 0 1-1-1.2zm1.9-.2a.8.8 0 0 0-.7-.8c-.4 0-.7.3-.8.8zm.9 1l.2-.2a1.3 1.3 0 0 0 .8.3c.3 0 .5-.1.5-.4 0-.2-.3-.3-.6-.4s-.8-.2-.8-.7a.7.7 0 0 1 .8-.7 1.6 1.6 0 0 1 .9.3l-.2.3-.7-.2c-.3 0-.5.1-.5.3s.3.3.6.4.7.3.7.7a.8.8 0 0 1-.8.7 1.5 1.5 0 0 1-.9-.4zm-67.2 2.9h.3l1.2 1.7 1.2-1.7h.3v3.2h-.3V65l-1.2 1.7L225 65v2.6h-.3v-3.2zm3.8 2.5c0-.5.4-.8 1-.8h.7c0-.4-.3-.6-.7-.6l-.7.2v-.3l.9-.2a1.1 1.1 0 0 1 .8.3.8.8 0 0 1 .2.7v1.5h-.3v-.4a1.1 1.1 0 0 1-.9.4c-.5-.1-1-.4-1-.8zm1.7-.2v-.2h-.7c-.4 0-.7.2-.7.5a.6.6 0 0 0 .6.5c.5-.2.8-.4.8-.8zm1.2-1.5h.4v.4a.8.8 0 0 1 .8-.5c.6 0 .9.4.9 1v1.5h-.3v-1.4a.6.6 0 0 0-.7-.7.7.7 0 0 0-.7.7v1.4h-.4v-2.4zm2.9 1.5v-1.5h.3v1.4a.6.6 0 0 0 .7.7.7.7 0 0 0 .7-.7v-1.3h.3v2.4h-.3v-.6a.8.8 0 0 1-.8.5.9.9 0 0 1-.9-.9zm3.1-1.2h-.3v-.3h.3V65a.8.8 0 0 1 .2-.6l.5-.2h.4v.3h-.3c-.3 0-.4.2-.4.5v.2h.7v.3h-.7v2h-.3v-2zm1.4 1.4c0-.5.4-.8 1-.8h.7c0-.4-.3-.6-.7-.6l-.7.2v-.3l.9-.2a1.1 1.1 0 0 1 .8.3 1.4 1.4 0 0 1 .2.7v1.5h-.3v-.4a1 1 0 0 1-.9.4c-.5-.1-1-.4-1-.8zm1.8-.2v-.2h-.7c-.4 0-.7.2-.7.5a.6.6 0 0 0 .6.5c.4-.2.8-.4.8-.8zm1-.3a1.2 1.2 0 0 1 1.2-1.3 1.3 1.3 0 0 1 .9.4l-.2.2a1 1 0 0 0-.7-.4.9.9 0 0 0-.9.9.9.9 0 0 0 .9.9.9.9 0 0 0 .7-.3l.2.2a1.1 1.1 0 0 1-1 .4c-.5.2-1.1-.4-1.1-1zm3 .5v-1.4h-.3v-.3h.3v-.7h.4v.7h.7v.3h-.7v1.4c0 .3.1.4.4.4h.3v.3h-.4a.6.6 0 0 1-.7-.7zm1.8-.2v-1.5h.3v1.4a.6.6 0 0 0 .7.7.7.7 0 0 0 .7-.7v-1.3h.3v2.4h-.3v-.6a.9.9 0 0 1-1.7-.4zm3-1.5h.3v.6a1.1 1.1 0 0 1 1-.7v.4c-.5 0-.9.4-.9 1.1v.9h-.3v-2.3zm1.7 1.2a1.1 1.1 0 0 1 1.1-1.2 1.2 1.2 0 0 1 1.1 1.3h-1.9a.8.8 0 0 0 .8.8.8.8 0 0 0 .7-.3l.2.2a1.1 1.1 0 0 1-1 .4 1.4 1.4 0 0 1-1-1.2zm1.9-.2a.8.8 0 0 0-.7-.8c-.4 0-.7.3-.8.8zm1.1-1h.4v.6a1.1 1.1 0 0 1 1-.7v.4c-.5 0-.9.4-.9 1.1v.9h-.4v-2.3zm1.8 2l.2-.2a1.3 1.3 0 0 0 .8.3c.3 0 .5-.1.5-.4 0-.2-.3-.3-.6-.4s-.8-.2-.8-.7a.7.7 0 0 1 .8-.7 1.6 1.6 0 0 1 .9.3l-.2.3-.7-.2c-.3 0-.4.1-.4.3s.3.3.6.4.8.3.8.7a.8.8 0 0 1-.8.7 1.2 1.2 0 0 1-1.1-.4zm3.9-.8a1.2 1.2 0 0 1 1.2-1.3 1.2 1.2 0 0 1 1.2 1.2 1.2 1.2 0 0 1-1.2 1.2 1.1 1.1 0 0 1-1.2-1.1zm2.1 0a.9.9 0 0 0-1.8 0 .9.9 0 0 0 1.8 0zm1.2-.9h-.3v-.3h.3V65a.8.8 0 0 1 .2-.6l.5-.2h.4v.3h-.3c-.3 0-.4.2-.4.5v.2h.7v.3h-.7v2h-.4v-2zm4.1-.8h-1.1v-.3h2.5v.3h-1v2.9h-.4v-2.9zm1.4 1.7a1.2 1.2 0 0 1 1.2-1.3 1.2 1.2 0 0 1 1.2 1.2 1.2 1.2 0 0 1-1.2 1.2 1.1 1.1 0 0 1-1.2-1.1zm2.1 0a.9.9 0 0 0-1.8 0 .9.9 0 0 0 .9.9.8.8 0 0 0 .9-.9zm1.2-1.7h.4v-.4h-.4zm0 2.9h.3v-2.4h-.3zm1.3-3.4h.3v3.3h-.3zm1.1 2.2a1.1 1.1 0 0 1 1.1-1.2 1.2 1.2 0 0 1 1.1 1.3h-1.9a.8.8 0 0 0 .8.8.8.8 0 0 0 .7-.3l.2.2a1.1 1.1 0 0 1-1 .4 1.4 1.4 0 0 1-1-1.2zm1.9-.2a.8.8 0 0 0-.7-.8c-.4 0-.7.3-.8.8zm1.2.7v-1.4h-.3v-.3h.3v-.7h.4v.7h.7v.3h-.7v1.4a.4.4 0 0 0 .4.4h.3v.3h-.4a.6.6 0 0 1-.7-.7zm3.4-2.5h1.4a1.2 1.2 0 0 1 .9.3.9.9 0 0 1 .3.6c0 .5-.4.8-.9.9l1 1.3h-.5l-.9-1.3h-.9v1.3h-.4v-3.1zm1.3 1.6a.7.7 0 0 0 .8-.7c0-.4-.3-.6-.8-.6h-1V66zm1.9.4a1.1 1.1 0 0 1 1.1-1.2 1.2 1.2 0 0 1 1.1 1.3h-1.9a.8.8 0 0 0 .8.8.8.8 0 0 0 .7-.3l.2.2a1.1 1.1 0 0 1-1 .4 1.3 1.3 0 0 1-1-1.2zm1.9-.2a.8.8 0 0 0-.8-.8c-.4 0-.7.3-.8.8zm2.9.9a1.1 1.1 0 0 1-.9.5 1.1 1.1 0 0 1-1.1-1.2 1.1 1.1 0 0 1 1.1-1.2 1.1 1.1 0 0 1 .9.5v-.4h.4v3.1h-.4zm0-.7a.8.8 0 0 0-.9-.9.8.8 0 0 0-.8.9.8.8 0 0 0 .8.9 1 1 0 0 0 .9-.9zm1.2.3v-1.5h.4v1.4a.6.6 0 0 0 .7.7.7.7 0 0 0 .7-.7v-1.3h.3v2.4h-.3v-.6a.9.9 0 0 1-.8.5.9.9 0 0 1-1-.9zm3-2h.4v-.4h-.4zm.1 2.9h.4v-2.4h-.4zm1-.4l.2-.2a1.3 1.3 0 0 0 .8.3c.3 0 .5-.1.5-.4 0-.2-.3-.3-.6-.4s-.8-.2-.8-.7a.7.7 0 0 1 .8-.7 1.6 1.6 0 0 1 .9.3l-.2.3-.7-.2c-.3 0-.5.1-.5.3s.3.3.6.4.7.3.7.7a.8.8 0 0 1-.8.7 1.4 1.4 0 0 1-.9-.4zm2.6-2.5h.4v-.4h-.4zm.1 2.9h.3v-2.4h-.3zm1.4-.7v-1.4h-.3v-.3h.3v-.7h.3v.7h.8v.3h-.8v1.4a.4.4 0 0 0 .4.4h.3v.3h-.4c-.3 0-.6-.2-.6-.7zm1.6-.5a1.1 1.1 0 0 1 1.1-1.2 1.2 1.2 0 0 1 1.1 1.3h-1.9c.1.5.4.8.8.8a.8.8 0 0 0 .7-.3l.2.2a1.1 1.1 0 0 1-1 .4 1.3 1.3 0 0 1-1-1.2zm1.9-.2a.8.8 0 0 0-.8-.8c-.4 0-.7.3-.8.8zm.9 1l.2-.2.8.3c.3 0 .5-.1.5-.4 0-.2-.3-.3-.6-.4s-.8-.2-.8-.7a.7.7 0 0 1 .8-.7 1.6 1.6 0 0 1 .9.3l-.2.3-.7-.2c-.3 0-.5.1-.5.3s.3.3.6.4.8.3.8.7a.8.8 0 0 1-.8.7 1.2 1.2 0 0 1-1-.4zm-71.3 2.9h1.2c.7 0 1.2.4 1.2 1s-.6 1-1.3 1h-.8v1.1h-.4v-3.1zm1.1 1.7a.8.8 0 0 0 .9-.7c0-.4-.3-.7-.9-.7h-.8v1.4zm1.8.3a1.1 1.1 0 0 1 1.1-1.2 1.2 1.2 0 0 1 1.1 1.3h-1.9c.1.5.4.8.8.8a.8.8 0 0 0 .7-.3l.2.2a1.1 1.1 0 0 1-1 .4 1.3 1.3 0 0 1-1-1.2zm1.9-.1a.8.8 0 0 0-.7-.8c-.4 0-.7.3-.8.8zm1.1-1.1h.3v.4a.9.9 0 0 1 .8-.5c.6 0 .9.4.9 1v1.5h-.3v-1.4a.6.6 0 0 0-.7-.7.7.7 0 0 0-.7.7v1.3h-.3v-2.3zm2.9-1h.4v1.4a.8.8 0 0 1 .8-.5c.6 0 .9.4.9 1v1.5h-.4v-1.4c0-.4-.2-.7-.6-.7a.7.7 0 0 0-.7.7v1.3h-.4v-3.3zm2.8 2.7c0-.5.4-.8 1-.8h.7c0-.4-.3-.6-.7-.6l-.7.2v-.3l.9-.2a1.1 1.1 0 0 1 .8.3.9.9 0 0 1 .3.7v1.4h-.3V73a1.1 1.1 0 0 1-.9.4c-.7-.1-1.1-.3-1.1-.8zm1.7-.2v-.2h-.7c-.4 0-.7.2-.7.5a.6.6 0 0 0 .6.5c.5-.2.8-.4.8-.8zm1.2-2.5h.3v3.3h-.3zm1.3.5h.4V70h-.4zm.1 2.9h.3V71h-.3zm1.2.4v-.3a1.6 1.6 0 0 0 .9.3.8.8 0 0 0 .9-.8v-.3a1.1 1.1 0 0 1-2-.6 1.1 1.1 0 0 1 1.1-1.1 1.1 1.1 0 0 1 .9.5V71h.4v1.9a1 1 0 0 1-.3.8 1.2 1.2 0 0 1-.9.3 2 2 0 0 1-1-.3zm1.9-1.7a.8.8 0 0 0-.9-.8.7.7 0 0 0-.8.8.8.8 0 0 0 .8.8.9.9 0 0 0 .9-.8zm1.1.1a1.2 1.2 0 0 1 1.2-1.2 1.2 1.2 0 0 1 1.2 1.2 1.2 1.2 0 0 1-1.2 1.2 1.2 1.2 0 0 1-1.2-1.2zm2.2 0a.9.9 0 0 0-1.8 0 .9.9 0 1 0 1.8 0zm1.1-1.2h.4v.4a.8.8 0 0 1 .8-.5c.6 0 .9.4.9 1v1.5h-.3v-1.4a.7.7 0 1 0-1.4 0v1.3h-.4v-2.3zm2.7 0c.2-.1.3-.2.3-.4h-.2v-.4h.4v.4c0 .4-.2.6-.5.6zm1.1 2.1l.2-.2a1.3 1.3 0 0 0 .8.3c.3 0 .5-.1.5-.4 0-.2-.3-.3-.6-.4s-.8-.2-.8-.7a.7.7 0 0 1 .8-.7 1.6 1.6 0 0 1 .9.3l-.2.3-.7-.2c-.3 0-.4.1-.4.3s.3.3.6.4.8.3.8.7a.8.8 0 0 1-.8.7zm4.1-2.9h.4v2.8h1.8v.4h-2.2v-3.2zm2.9.3h.4V70h-.4zm.1 2.9h.3V71h-.3zm1.2-2.4h.4v.4a2.1 2.1 0 0 0 2.4-.4c.6 0 .9.4.9 1v1.5h-.4V72c0-.4-.2-.7-.6-.7a.7.7 0 0 0-.6.7v1.3h-.4v-1.4c0-.4-.2-.7-.6-.7a.7.7 0 0 0-.7.7v1.3h-.4v-2.3zm4.5-.5h.4V70h-.4zm0 2.9h.3V71h-.3zm1.4-.7v-1.4h-.3v-.3h.3v-.7h.3v.7h.7v.3h-.7v1.4a.4.4 0 0 0 .4.4h.3v.3h-.4c-.3 0-.6-.2-.6-.7zm1.7-.5a1.1 1.1 0 0 1 1.1-1.2 1.2 1.2 0 0 1 1.1 1.3h-1.9c.1.5.4.8.8.8a.8.8 0 0 0 .7-.3l.2.2a1.1 1.1 0 0 1-1 .4 1.3 1.3 0 0 1-1-1.2zm1.8-.1a.8.8 0 0 0-.8-.8c-.4 0-.7.3-.8.8zm1 .1a1.1 1.1 0 0 1 1.1-1.2 1.1 1.1 0 0 1 .9.5V70h.4v3.3h-.4v-.5a1.1 1.1 0 0 1-.9.5 1.1 1.1 0 0 1-1.1-1.2zm2 0a.8.8 0 0 0-.9-.9.8.8 0 0 0-.8.9.8.8 0 0 0 .8.9.9.9 0 0 0 .9-.9zm2.8-2h.4v2.8h1.8v.4H282v-3.2zm2.7 2a1.2 1.2 0 0 1 1.2-1.2 1.2 1.2 0 0 1 1.2 1.2 1.2 1.2 0 0 1-2.4 0zm2.1 0a.9.9 0 1 0-1.8 0 .9.9 0 0 0 .9.9.8.8 0 0 0 .9-.9zm1.1-1.2h.4v.4a.8.8 0 0 1 .8-.5c.6 0 .9.4.9 1v1.5h-.3v-1.4a.6.6 0 0 0-.7-.7.7.7 0 0 0-.7.7v1.3h-.4v-2.3zm2.8 1.2a1.1 1.1 0 0 1 1.1-1.2 1.1 1.1 0 0 1 .9.5V70h.3v3.3h-.3v-.5a1.1 1.1 0 0 1-.9.5 1.1 1.1 0 0 1-1.1-1.2zm2.1 0a.8.8 0 0 0-.9-.9c-.5 0-.8.3-.8.9a.8.8 0 0 0 .8.9.9.9 0 0 0 .9-.9zm1.1 0a1.2 1.2 0 0 1 1.2-1.2 1.2 1.2 0 0 1 1.2 1.2 1.2 1.2 0 0 1-2.4 0zm2.1 0a.9.9 0 1 0-1.8 0 .9.9 0 0 0 1.8 0zm1.1-1.2h.3v.4a.8.8 0 0 1 .8-.5c.6 0 .9.4.9 1v1.5h-.3v-1.4c0-.4-.2-.7-.6-.7a.7.7 0 0 0-.7.7v1.3h-.3v-2.3zM124.6 26c.2-.1.5-.3.4-.6s-.5 0-.7-.1l-.3.4c.1.2.3.5.6.3zm12.1 14.7l-.4.3c.2.4.4-.2.6-.2s.2.1 0 .4-.3.2 0 .2.4-.2.5.1-.2.3-.3.6a1.1 1.1 0 0 0 .9-.6c-.5-.2-.6-1.4-1.3-.8zm4.5-6.1c.1.3.1.7.4.9h.6c.2-.2.1-.6.1-1s-.9-.1-1.4-.2v.4zm.5 0l.3.3-.2.3-.3-.3zm-1.5 2.2c.2-.1.3-.4.4-.6s0 .4.1.7.4-.3.6-.4v.6c.4 0 .3-.4.4-.5v-.4c-.6.1-1-.6-1.5 0s-.2.4 0 .6zm0 2.5c.1-.3-.3-.3-.4-.4s.7-.4 1-.5l.2-.3c-.4-.1-.7-.5-1.2-.6s.3.4.5.6-.7.3-1 .5v.3c.4-.1.4.7.9.4zm-1.2 1.1c-.1.2-.4.2-.4.5h.4a.6.6 0 0 0 .4-.6l-.2-.4c-.4-.1-.8.3-1 0s.3-.4.5-.5l-.2-.2c-.2.3-.9.3-.6.9s.8.1 1.1.3zm10.8-20.3c0-.4-.4-.3-.6-.5l.3.5zm-4.4.5c-.2.2-.4.1-.8.1l-.4-.4-.2.2v.6h1.2c.4.1 0 .4 0 .7s.7.5 1.1.7l.2-.3c-.3-.2-.9-.1-.9-.6s.7 0 1 0 .1-.8.4-1.1-.7.1-1.1 0-.6-.4-.4-.7.2-.4.1-.6.9-.3 1.3-.4 0 .3 0 .5a1.2 1.2 0 0 0 1 .1h.3l-.8-.6v-.4c-.3-.2-.6.1-.8.3s-1.1-.1-1.1.5.2.6-.1.9zm-10.6-2.7h.4l.3-.2c.1-.2.3-.4.5-.3s-.5-.5-.6-.8v.6c0 .5-.6.3-.6.7zm4.6-3.7c.3 0 .5.4.7.6a1.9 1.9 0 0 1-.1.8 2.1 2.1 0 0 1-1.2.7 3.3 3.3 0 0 1-1.4-.4c-1.1-.5-1.1-1.7-1.8-2.6l-.3-.2a6.7 6.7 0 0 1 .7 2.4c.2.5.6.9.7 1.3a2.1 2.1 0 0 0 .3 1.6c.6.3.7-.7 1.2-.4a1.8 1.8 0 0 0 .8 1.4c.6.2.5-.6.9-.8l.5.7c.3.1.6.4 1.1.3s.2-.5.3-.8-.4-.5-.2-.8.4.3.7.4a1.5 1.5 0 0 0 1.6-.3c0-.4-.3-.6-.5-.8v-.2c.6 0 1.1-.5 1.6-.9s-.5-.3-.8-.4h-.9v-.3c.6-.4.7-1.2 1-1.9s-1.1.4-1.6.7 0-.4-.1-.6-.1-1.1-.4-1.6-.4.4-.8.5-.2-.3-.4-.5l-.7-.7c-.3 0-.3.3-.4.5s.1.6 0 1h-.8a1.1 1.1 0 0 0-.8.7c-.2.3-.1.5 0 .8zm1-.6l.7.3a1.6 1.6 0 0 1 .4 1.9c-.1.4-.4.5-.5.8a2.6 2.6 0 0 1-2.7.3c0-.5.6 0 .9-.1s1-.2 1.4-.7.5-.6.4-1.1a1.9 1.9 0 0 0-1.3-1.3c0-.2.5-.1.7-.1zM121 19.7c.8 0 1.2-.8 1.5-1.3s.3-.1.3.1a.8.8 0 0 0 .3 1c.2-.4.6-.3.7-.7s.3-1 .7-1.2.1.7.5.9h.5c0-.4.3-.7.4-1.1a1.7 1.7 0 0 1 0-1c.3-.4.4-.9.7-1.3a11.8 11.8 0 0 1 .4-2 2.2 2.2 0 0 0-.6.7 3.6 3.6 0 0 1-1.2 1.8l-.4.3a2.2 2.2 0 0 1-2.2-.3c-.2-.3-.5-.6-.4-1s.4-.6.6-.8a1.1 1.1 0 0 1 1.2.3c.3-.1.3-.4.3-.7a1.1 1.1 0 0 0-.6-.9 1.5 1.5 0 0 0-1.3.1c-.3-.4.2-.7.1-1.2l-.4-.4c-.1.4-.6.6-.8 1.1s-.8-.4-1.3-.4a2.9 2.9 0 0 1-.3 1c-.1.3.1.8-.2 1s-.8-.6-1.4-.3.1.7.2 1 .5.5.7.8a2 2 0 0 0-1.5.5c-.2.3.3.4.5.7s.9.1 1.2.5-.9.5-.8 1.1.6.4 1 .4.9-.7 1.6-.4-.6 1-.3 1.5zm.3-3.3a1.6 1.6 0 0 1-.4-1.3 2.3 2.3 0 0 1 1.6-1.8 1.1 1.1 0 0 1 .8.2 3.5 3.5 0 0 0-1.3.8 1.7 1.7 0 0 0-.3 1.4 2 2 0 0 0 1.8 1.1c.5.1.8-.2 1.2-.2s-.5.4-.9.6a2.5 2.5 0 0 1-2.5-.8zm6 1.5h.4c-.5-.3-.5-.7-.4-1.2s-.2.4-.4.6.4.1.4.6zm-4.1 21.3c-.3 0-.4-.4-.6-.6s.2-.4.4-.6l-.2-.2-1 .7c-.1 0-.1.2.2.2s.5.4.8.5-.3.4-.1.7.6-.3.9-.5.5-.2.3-.5-.4.4-.7.3z" class="cls-1"/><path d="M147.7 18.2a6.1 6.1 0 0 1 1.8.9c.4.3 1 .6 1.1 1.2s-.4.9-.9 1.1-.3.5-.5.7.3.4.2.8-.3.2-.4.3.3.9.5 1.3.8-.4 1.2 0-.6-.5-.9-.9v-.4a2 2 0 0 1 1.3-.2v-.4c.1-.4-.4-.2-.4-.6l.5-.3c.3-.4-.1-.9-.2-1.2a3.2 3.2 0 0 1 2.3-.8c0-.3-.3-.4-.6-.4s-.7-.3-1-.3-.1.4 0 .6h-.4c-.3-.1-.3-.5-.5-.7l-.5-.2v-.3h.4l.5-.2c0-.3-.1-.5-.1-.8v-.7a7.6 7.6 0 0 0-1.6.3v.5c.1.2.4.2.4.4l-.3.2c-.3 0-.4-.3-.6-.5s-.5.2-.7 0v-.3a1.3 1.3 0 0 0 .7-.6c-.3-.4-1-.2-1-.8s-.6-.1-.6.1.3 1.5.3 2.2zm3.2 3l-.2.4-.3-.3.3-.3zm-2.4.9l-.2.4c0 .2-.1.6 0 .7s.3-.7.2-1.1zm-4.5.1a13.3 13.3 0 0 1-.5 1.9 1.1 1.1 0 0 0 .8.3 10.6 10.6 0 0 1 3.9 2.3 7.7 7.7 0 0 0 1.5-1.6c-.2-.5-.5 0-.8-.1a2.7 2.7 0 0 1 0-.9c-.4 0-1-.3-1 .3s-.4.4-.8.1.3-.8.5-1.2-.4-.2-.6-.3-.4.7-.8 1.1.3-1.2-.1-1.6h-.8a2.6 2.6 0 0 0-.5.9h-.4a4.5 4.5 0 0 0 .3-1.1.6.6 0 0 0-.7-.1zm4.4 3.2l.2.2h-.3zm-1-3.3c.3 0 .2.3.6.4s-.3-1 0-1.5l-.3-.6c.1.3-.1.7-.1 1.1s-.2.3-.2.6z" class="cls-1"/><path d="M149.3 20.5c.1-.2-.1-.4-.4-.4s.1.5.4.4zm-28.2 8.9c.4-.1.4-.6.8-.5s-.4.6-.1.8.4-.4.5-.6-.1-.4-.3-.6-.7.5-1.2.4.2-.4.2-.6h-.1c-.3 0-.3.4-.5.6s.4.6.7.5zm9.6 16.6c0 .2-.1.6.2.7a.7.7 0 0 0 .8-.2v-.6c-.2-.4-.8-.3-1 .1zm-10-14c.3-.2.5.2.7-.2h-1.2l-.2.3zm.8 2.5a1.1 1.1 0 0 1-.8 0c0-.5.4-.9.6-1.4h-.6c-.3.2-.6-.1-.5.3h.5c0 .4-.5.7-.6 1.1v.6a1.7 1.7 0 0 1 1.2-.3zm.7 2.7a.7.7 0 0 0 0-.9.8.8 0 0 0-1.3-.3 1 1 0 0 0-.2 1c.2.2.3.5.6.6a.9.9 0 0 0 .9-.4zm-.4 0c-.3 0-.6.1-.8-.1s-.2-.6 0-.9.8-.3.9.1.2.8-.1.9zm11.7 6.9c-.1-.4-.4-.3-.7-.3l-.4.6.3.4c.3.1.5-.1.7-.2zm-.5.1h.1c-.3.1-.2 0-.1 0zm-3.8-1.4a.6.6 0 0 0 0 .8.8.8 0 0 0 .9-.2v-.6c-.3-.3-.7-.1-.9 0zm-3.6 4.1l.3-.2-.2-1.2c-.1.4 0 1-.1 1.4zm1.6-1.3c.2-.2.4.1.4-.1s-.6 0-.7.2.4.5.6.8-.5.1-.6.4h.6c.2-.1.4-.4.3-.6s-.8-.2-.6-.7zm9.1-.1c.2.4.7.8.7 1.2s.5-.7.6-1.2-.5.4-.8.3-.1-.5-.5-.3zm-1.1.5c-.4.1-.6-.5-1-.4v1.2c.4.3 0-.4.4-.5s.6.4.7-.1.3.4.6.5a4.8 4.8 0 0 0 0-1.2c-.4.1-.5.4-.7.5zm-14.4-.5a.8.8 0 0 0-.4.6c-.1.4.2.6.4.8a1.1 1.1 0 0 0 .8-.1 1.1 1.1 0 0 0 .3-.7.8.8 0 0 0-1.1-.6zm.6 1.1l-.6-.2v-.6c.2-.4.7 0 .7.3zm1.3-1v.7c.1.3-.3.5 0 .7h.8a1 1 0 0 0 .5-.8c-.1-.8-.9-.6-1.3-.6zm.6 1.1c-.4.1-.4-.2-.4-.5l.2-.5c.2.1.6.1.6.4a.7.7 0 0 1-.4.6zm-9.1-20.1l-.5.4c.3-.2.9-.1 1.2-.1s-.4-.4-.7-.3zm5.1 19.8c0 .3-.2.2-.4.2s-.6-.2-.4-.5.8-.1 1-.4h-.6a1.2 1.2 0 0 0-.7.5c-.2.4.1.7.3.9s.8.1 1-.2.2-.6-.2-.5zM113.1 24l.3.4h.3c.4-.1.2.4.4.5v-.3c0-.2.3-.4.6-.3l.2-.5.2-.4v-.2c-.7-.6-.4.6-1.1.6l-.4-.4c-.2-.1-.5-.3-.7 0s0 .5.2.6z" class="cls-1"/><path d="M132.8 49.2h6.3l4.3-.5a13.6 13.6 0 0 0 2.9-.6 9.4 9.4 0 0 0 2.3-1c.2-.1.4-.5.7-.5s.7-.7.5-1.4-.7-.4-.4-.9.3-.7.4-1 .4-1.1.4-1.7.3-.2.4-.3-.6-.9-.4-1.6a.8.8 0 0 0-.4-.8 2.1 2.1 0 0 1-1-1.9v-.4c0-.2 0-.5.3-.6a2.3 2.3 0 0 1 .7.9c.4.3.7.9 1.3.9a3.1 3.1 0 0 0 2.7-1.1 5.3 5.3 0 0 0 .6-1.9c.1-.2.4-.4.5-.7a2.1 2.1 0 0 0-.9-2c-.1-.5-.5-.8-.7-1.2l-.3.2a2.6 2.6 0 0 1-.5-.9c0-.2-.2-.6.1-.7a4.3 4.3 0 0 0 1.8.6l1.2-.2 1.3-.9c.4-.4.2-1.1.6-1.5s0-.7-.1-1.1-.4.5-.8.3-.7.4-.9.7-1 .8-1.2 1.3-1.3-.1-1.9-.4.3-.5.5-.7a2.2 2.2 0 0 0 1.5-1.5 1.3 1.3 0 0 0 .4-1.5c-.1-.3.3-.8-.1-.9s-.1-.3-.2-.4-.9.7-1.1 1.2-.3.4-.5.6a5.5 5.5 0 0 1-1.2 1.9l-.4.9h-.4a2.2 2.2 0 0 0-1.8 1.3c.1.7-.3 1.5.2 2a5.6 5.6 0 0 0 .7 1.3c.4.4.5.9 1 1.3s1.3 1 1.1 1.9-.3.2-.5.3-1.2-.8-1.5-1.3a13 13 0 0 1-.8-1.7c-.3-.6-.9-1.1-1.2-1.8a9.9 9.9 0 0 1-.3-2.4l.4-.2c.2.1.5.2.6.5a.7.7 0 0 0 .4-1 .5.5 0 0 0-.4-.6l-1-.7-1.1-.5c-.2.1.1.4-.1.5s-.7-.9-1.1-1.3.2.6-.2.7l-.8-.6c-.2 0-.1-.2-.3-.3s-.8.7-1.3.9h-.4c-.1-.5.3-.9.5-1.3s.4-.3.3-.6-.4.3-.7.4a1.9 1.9 0 0 1-1.2-.4 10.8 10.8 0 0 0-1.8-1.1 8.8 8.8 0 0 1-1.7-.2 3.4 3.4 0 0 1 .5-1.4 1.9 1.9 0 0 1 .5-1c0-.2.2-.5 0-.7s-.5-.4-.8-.5-.6.3-.9.3-1.1-.5-1.7-.7-1.4.4-2.2.6l.9-.9v-2a1.8 1.8 0 0 0 .4-1 4.1 4.1 0 0 0 .5-.9 1.7 1.7 0 0 0-.5-2c0-.4.4-.8.2-1.3a3.6 3.6 0 0 1 1-1.8h.5c.1-.2.3-.4.2-.7s-.8-.2-1.1-.5-.5.6-1 .4l-.2-.4a7.7 7.7 0 0 1 1.5-1.6c.1-.3.1-.6.3-.8s.1.5.2.8.8.4 1.2.7l.7-.3.2-.4c0-.2.1-.6-.1-.8s-.3.1-.4 0-.5-.9-1-.9-.6 0-.9.1-.6.5-1 .7a13.4 13.4 0 0 0-1.1 1.4c0 .3-.3.6-.5.5a12.2 12.2 0 0 1 .7-1.7 4.1 4.1 0 0 1 1.2-1.7h.5c.3.2.7 0 1-.1a3.1 3.1 0 0 0 .5-1 1 1 0 0 0-.4-.8c-.5.1-.7-.2-.9-.5s-.9-.5-1.4-.1-1.5 2.2-1.9 3.5-.1.9-.4 1.3a10.5 10.5 0 0 1 .1-2.5c0-.4.3-1 0-1.3l-.9-.5c0-.4.5-.3.7-.5s.3-.6.5-.5v.3l-.3.3v.3c.2.2.5 0 .8 0a1.1 1.1 0 0 0 .5-.9c0-.3-.2-.5-.4-.8h-.4c-.4-.1-.6-.7-1.2-.6a2.1 2.1 0 0 0-1.1 1.3 7.1 7.1 0 0 0 .1 1.5l.4 3.2a4.8 4.8 0 0 1 0 1.2l-.2-.4c-.3-.6-.3-1.5-.6-2.1a3.6 3.6 0 0 0-.8-2l-1.1-.8c-.6 0-1.3-.1-1.6.5s-.6.3-.9.5v.9c.3 1 1.6.4 2.3.9a6.4 6.4 0 0 0 .8 1.4c.1.2.1.5.3.7a7.5 7.5 0 0 0-1.5-1.6 1.8 1.8 0 0 0-1.6 0c-.4.2-.6.7-1.1.7a1.2 1.2 0 0 0-.2 1 1 1 0 0 0 .4.5 1.7 1.7 0 0 0 1-.1c.4-.1.6-.5 1-.7l1.4 1.3c.1.2.5.4.2.7s-.3-.4-.7-.3-.6-.2-1-.1a.7.7 0 0 0-.4.7l.2.3c.7 0 .8.8 1.2 1.2s.3.8.2 1.3-.5 1.1-.6 1.7.4 1.6.8 2.3.3.8.3 1.2v1c.3.3.8.6.9 1.2s-.8-.8-1.3-1-1.3.5-1.8.9h-1c-.1-.3-.2-.5-.6-.4s-.9.5-1.1 1 .2.7.4 1.1.3.5.1.7a3.5 3.5 0 0 0-1.1 1 18.7 18.7 0 0 0-2.5 1.2l-.3-.3c-.1-.4-.6-.7-1-.9a3.1 3.1 0 0 0-1.7-2l-1.4-.5-.2-.3c.4-.3.1-.8.1-1.1a2.1 2.1 0 0 0 .4-1.4c-.2-.2-.1-.5-.2-.7s-.4-.6-.8-.7h-.9c-.2.3-.6.1-.8.1l-1.5.9-.7.4a1.4 1.4 0 0 0 .2.6 7.1 7.1 0 0 1 .3 2.1c-.3.8-1.2.9-1.9 1.2s-.8.7-1.1 1.1-.3.7-.1 1.1l-.3.8c-.3.9-.1 2-.6 2.8a14.2 14.2 0 0 0-.4 2h-.3c-.3-.3-.2-1.1-.8-1s.4 1 .3 1.5a2 2 0 0 1 .4 1.5c-.6.9.1 1.7.4 2.5s.7.2.8.6.3 1 .4 1.6 0 1 .4 1.4.7 1.9.6 3 .3.4.2.7.2.6.3.8.4 1 .8 1.4.9.9.5 1.5-.2 1-.1 1.4.1.5.4.4a4.7 4.7 0 0 0 1.2.9c.2.2.5.1.7.3a13.8 13.8 0 0 0 4 1c1.1-.1 2 .3 3.1.3s3.1.3 4.8.3a4 4 0 0 0 1.1 0h1.9c.5.5.9 1.3 1.8 1.3s1.6-.5 1.8-1.1zm-1.9.8a1.7 1.7 0 0 1-1-1.5c0-.2-.1-.7.3-.6s.5 1.2 1.3.9.5-1 1.1-.8a1.4 1.4 0 0 1-.4 1.5c-.4.3-.7.7-1.3.5zm2.1-2.5c-.6-.3-.3-1-.3-1.5s.8-.2.9-.6a2.2 2.2 0 0 1 1.8-.4c2.5.1 4.8 0 7.3 0a13.3 13.3 0 0 0 2 0c.5 0 .2-.8.7-.5v.5a15.5 15.5 0 0 0-.7 2.3c-1.5.5-3.3.1-4.9.2s-4.5 0-6.8 0zm-2 1l-.9-1v-2.3a1.2 1.2 0 0 1 1.3.1l.6.2c.5.6.2 1.6.2 2.2s-.6.4-.8.8zm-8.3-1.1a38.9 38.9 0 0 1-4.8-.1c-.3 0-.5-.3-.8-.5a6.6 6.6 0 0 0-.3-1.5 1.1 1.1 0 0 1-.2-.8c.3-.1.2.4.5.3h.5c.2.2.4-.3.6 0s.8-.1 1.2 0a8.6 8.6 0 0 0 1.6 0h7.6c.3-.1 1-.2 1.2.1a6.7 6.7 0 0 1 0 2c-.1.3-.3.3-.6.3zm25.1-2.5v-.3l.2.3c-.1.3-.2.1-.2 0zm-35.2.8c.2-.4-.2-.7.1-.9a1 1 0 0 1 .7-.5 2.3 2.3 0 0 0 .8-1.6c0-1.2-.6-2.3-.6-3.5l.2-.3a8.2 8.2 0 0 0-1.1-2.3c0-.5-.6-1-.3-1.5s.5-.4.6-.6-.5-.8-.1-1.2l.7-.5c.4 0 .6.3.9.5s0 2 .2 3.1-.1 1.2.1 1.7a1.8 1.8 0 0 1 .6 1c.3.8-.2 1.5-.1 2.2s.1 1 0 1.5.4.8.1 1.2l-.9.5-.7.7c-.4.2-.8 1-1.2.5zm5.2-1.1c0-.2.3-.4.1-.5s-.4.2-.7.4l-.3-.3c.2-.6 1-.2 1.4-.3l.2.3a.9.9 0 0 1-.3.5zm28.5-.4a.2.2 0 0 1 .4.1l-.3.3zm-5.9.6a2 2 0 0 1-.6-1.3 2.2 2.2 0 0 1 .8 0c.4.3 1.1.1 1.6.2s2-.2 2.5.7-.2.3-.4.3zm0-1.5l-.3-.4c.2-.4.9-.3 1.2-.1v.6zm5.4-.3c.2-.2.7-.1.5.2h-.5zm-1.7-.4a39.3 39.3 0 0 0-4.8-.6l-.3-.2c.2-.5.7-.7 1.2-1s0 .4.1.5a10.5 10.5 0 0 1 1.7-.4v.4c.6.1 1.1-.8 1.6-.1a2.1 2.1 0 0 0 1.4-1.5 1.2 1.2 0 0 0 .6-.8 3.8 3.8 0 0 1 0-1.5 3 3 0 0 0 1 1.7c.4.9 1.5 1.5 1.2 2.5s0 .5-.2.6-.6.1-.8-.1l-1 .4c-.5.8-1.1 0-1.7.1zm-18.6-.1v-.4c.3 0 .5.3.7.4l-.5.3zm1.4-.4v.3h-.5c0-.1.3-.2.5-.3zm-2.5 0a8.5 8.5 0 0 1-3.1-3.4c-.4-.3-.5-.9-.7-1.3a7.4 7.4 0 0 1-.7-2.1 5.2 5.2 0 0 1-.3-1.8 12.9 12.9 0 0 1 .1-2.8 15.1 15.1 0 0 1 1-3 4.9 4.9 0 0 1 1-1.5c0-.2.4-.4.4-.6l1.1-.9c-.1.2-.7.5-.2.7s.5.4.4.7-.5-.2-.8-.1h-.6a1.6 1.6 0 0 0-.5 1.1c.2.3.3.5.6.6s.6-.1.9-.1-.5 1.2-.6 1.9a2.1 2.1 0 0 0-.4 1.1 9.7 9.7 0 0 0-.2 2.4v1.5a8.1 8.1 0 0 0 1.5 3.1c0 .3.3.4.5.7a8.1 8.1 0 0 0 1.6 1.6l.3.2c-.1.2-.4.3-.7.4h-.4c-.1.3.2.4.3.6s.1.7-.2.9zm5.2 2.3a1.7 1.7 0 0 0-1-.3l-1.3-.5-.8-.4c.3-.4.9-.3 1-.7s-.2-.9.1-1.2 1 .6 1.6.6 4 1.2 5.9 1.9l.6.2-1 .7-1.6.8zm3.3-1.7c-.2-.3 0-.6.2-.9s1.1-.9 1.7-.6 2-.8 2.6-1.8a7.8 7.8 0 0 0 2.6-3.6c.1-.8.6-1.6.5-2.4s-.4 0-.4-.3.5.1.7 0v-.4c.3-.4.6.1 1-.1s-.3-.6-.1-.9-.3-.6 0-1 .4.1.7.2.2.6.3.9a5.4 5.4 0 0 1 0 1.8 11 11 0 0 1-.2 1.8c-.4.7-.4 1.5-.8 2.1s-.5.7-.6 1.1-.5 1-1 1.3a10.3 10.3 0 0 1-2.3 2l-2.1 1.3c-1 .3-1.8-.2-2.8-.5zm-7-1.5c0-.3.4-.2.7-.4l.3.2v.3zm14.9-1.3c.3-.4.3-1 .9-1.2s1.5-.1 1.9-.8-.1-.6 0-.8a5.8 5.8 0 0 1 .4-3.2.9.9 0 0 1 .3-.6.8.8 0 0 1 .9.3 1.1 1.1 0 0 1 .3.8c-.7.7.1 1.5 0 2.2a2.6 2.6 0 0 0-.2 2.4c-.1.3-.5.3-.7.7s-.5 0-.5.3-.2-.4-.5-.2-.6.3-.9.5l-.3-.2c-.3.1-.4.6-.8.4s-.3.1-.5.1-.2-.5-.3-.7zm-13.9.3c-.3 0-.6.2-.8 0a1.6 1.6 0 0 0-.7-.7 8.3 8.3 0 0 1-1.9-2.3 7.1 7.1 0 0 1-.8-1.8 17 17 0 0 1-.4-2.2 10.9 10.9 0 0 1 .1-1.8 6.5 6.5 0 0 1 .4-1.3l.5-.8v2.8a11.7 11.7 0 0 0 .9 5 9 9 0 0 0 1.7 2.6c.1.1.3.4.5.3v-3.6c0-1.1 0-2.4.1-3.4h1.3l.2.6a56.1 56.1 0 0 0 0 5.8c.1.4-.2.6-.1 1s.1.6-.3.7-.1-1.1-.7-.9zm-14.4-1.6c-.4-.2-.4-.6-.5-1a19.9 19.9 0 0 1-1.2-1.9c.1-.6-.7-.9-.7-1.6a1.2 1.2 0 0 1-.1-1.3 2.9 2.9 0 0 0-.2-1.6 2.5 2.5 0 0 1 .5-1.9c0 .4.3.8 0 1.2s.1.7 0 1l.4.3c.1.2.2.5.5.5v.6a2.5 2.5 0 0 0-.1 1.5 4.2 4.2 0 0 1 .8 1.8c.1.6.7 1 .7 1.7a2.1 2.1 0 0 1 .3 1.9c-.3-.3-.2-.8-.4-1.2zm17.7 3.4l-.6-.3a25.7 25.7 0 0 1-.1-3.9c-.2-.3.2-.6 0-.9V33l.4-.3c.4.1 1-.2 1.2.3-.1 3 0 6-.1 8.9-.1.3-.5.2-.8.1zm4-4.4l.2-.4.3.3v.6c-.5.1-.4-.3-.5-.5zm-18.6 5.1a10.5 10.5 0 0 1 .3-3.1 3.5 3.5 0 0 0-.6-1.7V37a8.6 8.6 0 0 1 0-1.6 4.1 4.1 0 0 1 1 2.1l.4.9a5.1 5.1 0 0 0 .9 2.7 2.9 2.9 0 0 1 .5 1.4 5.6 5.6 0 0 1-2.1.6zm26.3-4.5c.1-.8.6-1.3.8-2.1s.2-.5.4-.7v2.5l-.7.4c-.1 0-.5.2-.5-.1zm-30.1-3.7c-.4.2-.3 0-.4-.1s.3-1.3.2-2a.6.6 0 0 1 .9.2c.3.6-.4 1.2 0 1.7s0 .4-.2.4-.2-.2-.5-.2zm35.8 9.5c-.2.1-.2.5-.6.5s-.2-.5-.5-.6a.4.4 0 0 1 .3-.6l-.3-.3.3-.4c.4.1.9.3 1.2-.1a1.2 1.2 0 0 0 .3-1.2c0-1.3-1.4-1.8-1.8-2.9a7.5 7.5 0 0 1-.5-1.6 3.2 3.2 0 0 1-.4-2.1c.3-.4.8-.7.7-1.3s-.4.2-.6-.1a2.9 2.9 0 0 0-.2-.9c-.3-.2-.3-.6-.7-.7s-.9-.9-.6-1.7a3.7 3.7 0 0 0 .7-1.4l.6-.5a4.8 4.8 0 0 0 0-1.2l.2-.3a1.1 1.1 0 0 1 .6 1 1.3 1.3 0 0 0 .2 1.2h.7l.2.4c.3 1 .1 2.3.8 3.2s1.5 2.7 2.6 3.9a1.8 1.8 0 0 0 1 .4 1 1 0 0 0 .7-.7c.1-1.2-1-1.8-1.6-2.7s-1.5-1.7-1.5-2.8.1-.6.1-.9l.2-.4.6-.6c.2 0 .6-.3.8.1l-.2.3c-.3 0-.5.3-.7.5s-.2 1.4 0 2.1 1.5 1.5 1.9 2.5l.9 1.2c-.1.3.2.3.2.5.4-1.8-.5-3-1.2-4.2l-.4-1.2v-2a4.4 4.4 0 0 1 1-1.6c.6-.1.8-.8 1.3-1l-.3.4a1.1 1.1 0 0 1-.3.8c.1.8-1 1-1.2 1.7v1.8c.5.8.4 1.9 1.3 2.3s.4.6.3 1 .1.5.4.6a1.7 1.7 0 0 1-.1.7v1a3.4 3.4 0 0 1-.9 1.2 1.8 1.8 0 0 1-2.1.3c-.9-.4-1.2-1.4-1.8-2.2s-.4-.9-.6-1.4.2.4 0 .7a14.7 14.7 0 0 1 0 2.1c.1.9 0 2 .9 2.5s.6.3.5.6-.1.7 0 .9l-.4.2c-.3.4.7.7.1 1s.1.5-.2.6.3.8-.3.9.2 1.5-.6 1.6-1.2-.3-1-1.1zm-16.2-6v-5.1h7.1a9.6 9.6 0 0 1 0 1.7 4.7 4.7 0 0 1-.4 1.6 4.8 4.8 0 0 1-.8 1.6l-.4-.3v-2c0-.4.3-.7.1-1.1s0-.9-.4-1.3a2.8 2.8 0 0 0-1.2.4c.3.1.6 0 .9.2s-.1.6-.3.8.3 1.2-.1 1.5-.5.2-.6 0-.1-.6-.1-.9v-.5l-.4-.6c0-.2.1-.6 0-.8a1.5 1.5 0 0 0-1.2.5c.3.1.9-.2.9.3s-.3.6-.4.8a2.5 2.5 0 0 1 .2 1.2c-.1.3-.5.2-.8.2a1 1 0 0 1-.2-.7c.1-.3.4-.7.1-.9s-.2-.9-.3-1.3a1.9 1.9 0 0 0-1 .3c0 .4.6-.1.7.4s-.7.9-.2 1.4v2.4c0 .3-.4.4-.6.6zm11.7-7.1v-.5c.3 0 .4.4.6.7s1.4 1.1 1.4 2-1.2-.3-1.6.3a2.3 2.3 0 0 1-.4 1c0-1.1.2-2.4 0-3.5zm9.3 2.3c.3-.2.5.4.6.6v.5a2.4 2.4 0 0 1-.6-1.1zm-27.8 4a7.2 7.2 0 0 1-.7-2.5 3.6 3.6 0 0 1-.1-1.8 1.7 1.7 0 0 1 1-.1l.2.2a32.3 32.3 0 0 1-.1 4.4zm9.6-5a22.6 22.6 0 0 0-.1-2.6.6.6 0 0 0-.6-.3c-.7-.1-1.5.1-2.1-.2a4.8 4.8 0 0 1 0-1.2l.6-.2h2l.2-2.9c.4-.4.9-.1 1.3-.2l.2.2c.1.9 0 1.9.1 2.8l1.5.2c.4.1 1-.2 1.2.3a3.1 3.1 0 0 1 .1 1c-.2.3-.6.3-1 .3h-1.7a9.3 9.3 0 0 0-.2 2.3c-.1.3 0 .8-.4.8s-1 .3-1.1-.3zm3.5 5.5a8.1 8.1 0 0 0 1.1-3.2l.3-2c.1-.2.3 0 .3.2s.4.8.9.8v.4a13.5 13.5 0 0 1-2 4.4 7.4 7.4 0 0 1-1.3 1.2c-.3.4-.7.4-1 .8a15.3 15.3 0 0 1 1.7-2.6zM114 32.4c-.1-.3.3-.5.4-.8s.3-.5.2-.7-.5.3-.6-.1-.6-1.2-1-1.7l.2-.3c-.4.2-.2.5-.1.8s-.1 1.2.7 1.2.2.5.5.4a.7.7 0 0 1-.3.6c-.7-.1-1.5.5-2 0s-.1 0-.2.1h-.5c-.1-.3.3-.6-.1-.8l-.3-.3.3-.5-.3-.4.2-.3c.5.2.1-.5.5-.6v-.4h-.4c-.2-.4.3-.6.3-.9s.7-.1.9.2 0 .6.1.8.3-.8.7-.6a1.6 1.6 0 0 1 .7.9l.4.3c0-.4-.2-.4-.3-.6s.7-.3 1-.5a3.1 3.1 0 0 1 1.3-.6l.4-.2c.2-.1.3-.6.5-.4a1.8 1.8 0 0 1 .2 1c-.1.4.1 1-.2 1.3s-.3.4-.4.6a1 1 0 0 1-.8.3h-.6c-.3-.2 0-.4 0-.6s.9-.3 1.1-.7-.6.3-.9.3h-.6v.4c-.3 0-.3.3-.3.6s0 .6.5.7l.3-.4.4.2c-.1.4-.1.9-.6 1.1s-.5.1-.7 0-.4.8-.6.6zm5 11.3c-.3-.1-.6-.2-.7-.4a1.9 1.9 0 0 1 .2-.7 12.3 12.3 0 0 0-1.3-2.9 8.8 8.8 0 0 1-.2-1.6 3.7 3.7 0 0 1-.4-1.5 4.1 4.1 0 0 1-.5-.9 9.1 9.1 0 0 1-1.1-2.2 1 1 0 0 1 .3-.8c.3-.1.6-.6.9-.2s.8-.5 1.2-.1a1.7 1.7 0 0 1 .3 1 37 37 0 0 1 .6 4.8c-.1.4.4.3.5.7s.1 1.8.4 2.6.3 1 .8 1.3l.3.3c.3.5 1 .4 1 1l-.3.7c-.9.1-1.3-.9-2-1.1zm10.9-11.2a2.2 2.2 0 0 1 .1-.8c.2-.1.5.2.7-.1s.1-.5-.1-.6-.6-.1-.7.3-.6-.1-.8-.1.7-.6.4-1.1h-.6c-.2.1-.4.1-.5.4l-.3.5c0-.4.1-.7.1-1.1l.6-.3c.4 0 .9-.1 1.1.3s0 .5.3.5l.3-.2c.1-.3-.1-.5-.1-.7s.6-.5.5-.9-.5-.1-.7-.1.3.8-.2 1-.9.1-1-.4.8-.5.7-1.1v-.3c-.4-.1-.8-.3-1 .1l-.3.5h.3c.2-.1.2-.5.5-.6s.4.1.4.3-.6.5-.9.7l-1.2.2a.5.5 0 0 1-.5-.3 3.2 3.2 0 0 0-.3-.9l-.4-.3a1.4 1.4 0 0 1 1.4-.3v.4c-.2.4-.7-.1-.7.4s.4.6.7.4a1 1 0 0 0 .4-.7c.4-.1.9.1 1.1-.4s.6-.3.9-.1.1.4.4.5.3-.2.3-.4-.3-.5-.6-.6-.7.3-.8 0 .3-.6.3-.9-.3-.5 0-.8 1.3-.2 1.5.4v.3c-.3-.2-.6 0-.9-.1v.6h.5l.4-.3a12.1 12.1 0 0 1 .1 1.9c0 1.6-.1 3.3 0 4.8l-.4.4c-.5-.4-.8-.3-1-.4zm-6.3-.5v-6.8c0-.2 0-.6.3-.6h3c.2.2-.1.6.1.9l.4.4h-.4c-.3-.4-.2-1.3-.9-1.2a1 1 0 0 0-.5.6.8.8 0 0 1 .1.7c-.3.1-.3-.5-.7-.3s.5.8 0 1-.3-.3-.6-.1v.3l.9.2c.2.2.1.4.1.6v.7c-.4-.5-.9-.4-.9-.9h-.8v.6c.3.3.4-.2.7 0s.5.5.4.8-.6-.1-.8.1 1-.1 1.2.6.5.9-.1 1.2-.6-.2-.7-.5.2-.4 0-.6h-.7c0 .3-.2.8.2.9s.7.4.8.7-.6 0-.6.4l.2.3a13.9 13.9 0 0 1 1.9-.6l.4.5c.5-.1 1.2.1 1.4-.5a1.7 1.7 0 0 1 1 .1c0 .3.3.6 0 .8h-5.5zm27.7-1c-.1-.5-.6-.6-.7-1a.7.7 0 0 1 .5-.8h.2c0 .4.2.9.2 1.3l.3 1c-.4.1-.4-.2-.5-.5zm-11.5-.9c.5-.6 1.2-1 1.7-1.6s1.1-1.1 1.6-1.8.3-1 .9-.8.7.9.3 1.4 1.1-.1 1 .5l-.3.3c-.6.1-.1.8-.5 1.1a1.1 1.1 0 0 1-.8.1l-.3-.5c-.2.2 0 .8-.3 1s-.3.3-.3.5h-.4v-.4l-.7.7c-.2.5.3.9 0 1.4h-.4c-.2-.2-.2-.5-.3-.8s-.1.9-.5 1.1 0-.7-.2-1.1a2.4 2.4 0 0 0-.5 1.2c-.7-.7.2-1.4 0-2.3zm-20.1 11.8a3.7 3.7 0 0 1-.4-1.5 5.7 5.7 0 0 0-.8-2.5 7.8 7.8 0 0 0-.2-2.2 21.3 21.3 0 0 0-.3-2.5c-.1-.8-.4-1.5-.5-2.2l.2-.3c.7.1.1-.5.3-.9v-1.2a1.8 1.8 0 0 1-.4-.9 3.4 3.4 0 0 0-.9-1.5 11.5 11.5 0 0 1 .6-1.7c.8-.3 1.1.7 1.6.9l.3.2a2.4 2.4 0 0 0 1.2.7c.2 0 .5-.1.6.2s-.9 1.9-1.3 2.8a17.1 17.1 0 0 0-.4 4.5c.1.4.1.9.2 1.3a12.6 12.6 0 0 0 1.3 3.4l.2.4a18.4 18.4 0 0 0 1.7 2.2l.4.5c-.3.4-1 .2-1.4.4a4 4 0 0 0-1.5.3c-.2 0-.4-.3-.5-.4zm-3.1-11.3h.4c-.3.3-.5.1-.4 0zm12 .1c0-.2.3-.5.4-.7l.4.2c0 .3-.2.4-.4.5zm26-.9a6.6 6.6 0 0 1-2-.6v-.3c.6 0 1.1.9 1.8.4l.7-.2c.1-.2.2-.5.5-.6v.2a1.8 1.8 0 0 1-.5.7l.2.4c-.1 0-.4.2-.7 0zm-28.4-.1c.3-.4.9-.7 1.2-.1s-.4.4-.2.7.5.3.4.6h-.5c-.6-.3-.2-1.1-.9-1.2zM139 29h.3c.1.2.3.4.2.6s0 1.4-.6 1.9a22.6 22.6 0 0 1 .1-2.5zm2-.7c-.2.2 0 .6-.4.6s.2-.5.4-.6zm-18.9-.7l-.2-.4c0-.2.2-.4.3-.6s.8-.1.8.3.1.5-.1.6a1.1 1.1 0 0 1-.8.1zm25.6.1v-.4a.6.6 0 0 1 .1.7zm-7.8-1h.3c-.2.2-.4.1-.3 0zm-29.2.8c0-.6.4-1 .4-1.5l.2-.4a2.9 2.9 0 0 1 .5 1.3l-.4.3c-.2.2-.1.5-.4.6s-.3-.2-.3-.3zm18.1-1.9l.2-.4.4.2c.1.3-.2.4-.4.5zm10.3 2.5a4.1 4.1 0 0 1-.1-1.1h.6c.1.1.3.4.1.6v.4c.4-.5.9-.9 1-1.5a3.1 3.1 0 0 0-1.4.1 1 1 0 0 1 0-.9c.1-.1.4-.1.4-.3s-.7-.3-.3-.6l.6.4c.1.2.3.2.5.4s1.1 1.2 1.2 2h-.3l-1.2.7c-.1.2.3.5.1.6s-.7-.7-1.2-.8zm-11-3.1l-.3-.2a.9.9 0 0 1 1 0c-.4.5-.5 1-.9 1.2s.3-.6.2-1zm.4-.8c1.5-.7 3.4-.3 5-.3l.4.2a24.4 24.4 0 0 1-5.4.1zm9 .2l-.3-.3a1.3 1.3 0 0 1 .3-.8c.2.1.5 0 .6.3s.7.3.6.7h-.4c-.1-.2-.1-.5-.4-.5s-.1.6-.4.6zm3.4 1.4a10.7 10.7 0 0 0-1.8-1.9l-.2-.4c.4-.3.8 0 1.1.3s1.4.8 2 1.4-.8 1.1.2 1.4.1.5-.1.6-.8-1-1.2-1.4zm-5-3.8c0-.6.6-.2.8-.5l.4.2a1.3 1.3 0 0 1-1.2.3zm-10 0l-.4-.2h.6c.2 0 .5 0 .6.2s-.5 0-.8 0zM108 31.5c-.1-.4.3-.4.3-.7s.3-2.4.6-3.5l.5-1a6.8 6.8 0 0 1 .5-2.9v-.6c0-.5.4-.8.7-1.2s.9-.5 1.4-.6.6-.5 1-.3.3 1 .9 1 .6.6.9.3a.4.4 0 0 1 .4-.5c.1-.3.3-.8.8-.7s2.3.4 2.8 1.5a1.2 1.2 0 0 0 .9 1.1 4.4 4.4 0 0 1 .8 1.1 7.5 7.5 0 0 0 1.2-.7 11.5 11.5 0 0 0 1.7-.6c.5-.3.7-1.1 1.4-.9s-.3.6-.5.9-.9.9-1.4 1.4-1.4 1.6-2.5 1.5a13.1 13.1 0 0 1-2.5-2.2 4.5 4.5 0 0 1-.3-1.1c-.2.5-.5 1.2-1.2 1.2h-.4c.3.5 1.2-.7 1.1.3l-.6 2c0 .3.5.5.1.8s-.7-.1-.6.4l-.2.3c-.4-.2-.7.1-1 .3h-1.2a1.5 1.5 0 0 0-1.2-.7c-.3-.3 0-.8-.2-1a5.5 5.5 0 0 1-.6-1.8c.1-.3.5-.2.7-.4s-.9-.5-1-1h-.3l.2.4c-.1.3.2.5.2.8a7.8 7.8 0 0 0-.5 1.4l-.4 1.2a5.9 5.9 0 0 1-.5 2.3c-.1.8-.7 1.6-.3 2.4s.2.7.1 1l-.5-.2-.5.4c-.7-.3-.6-.9-.8-1.4zm17.7-7.4c-.2-.3.2-.6.3-.9s-.7-.1-.8-.5-.7-1.9-1.2-2.8.5-.6.9-.6-.3.7-.1 1 .3-.7.8-.6a3.7 3.7 0 0 1 .4 1.4c-.3.3-1-.3-.9.3s.8 1.1 1.5.9.5-.1.7-.4.3-.6 0-.8-.4.2-.8.1a.6.6 0 0 1-.2-.7c.1-.3.4-.3.7-.4h.3c0-.4-.2-.9 0-1.2h.5c.1.3.4.6.3 1a1.4 1.4 0 0 1 1.1-.1c.2.2.2.5.3.8l-.2.3c-.3 0-.6-.4-.8 0a.5.5 0 0 0 .3.6 2 2 0 0 0 1.8-.3c0-.3.6-.6.3-.9s-.5.3-.6.5-.2-1-.3-1.5.5.3.9.1-.7-1 .1-1.2 1-.1 1.2.2-.5.7-.2 1 .7-.7.9-.1a3.3 3.3 0 0 1-.1 1.4c-.3.1-.6-.5-.8-.1s.2.5.3.8a1.6 1.6 0 0 0 1.6.3c.2-.1.4-.2.4-.5s-.6.1-.8-.2v-.8a.5.5 0 0 1 .5-.3h.6c.3-.1 0-.4.2-.6l.5-.5.4.3a3.4 3.4 0 0 1-.1 1 1 1 0 0 1 .9.5 1 1 0 0 1-.2.7c-.3.2-.5-.3-.8-.1v.6a1.3 1.3 0 0 0 1.1.5 1.8 1.8 0 0 0 .9-.4c0-.2.4-.4.2-.7s-.8.3-1-.3a1.7 1.7 0 0 1 .6-1.1c.5 0 .4.8.9.6s-.2-1 .3-.8.3.4.2.7a.7.7 0 0 0-.3.6c-.3.6-.5 1.3-.8 1.9l-.8.4c.1.2.3.4.3.6s-.4.3-.6.2a14.2 14.2 0 0 0-2.2-.5l-2.1-.2h-2c-.4-.1-.6.1-.9.1l-2.8.7c-.4.1-.6.3-.8 0zm.6-4.3l.2.2-.3.3c-.2-.3-.1-.4.1-.5zm-12.5.9c-.7.2-.4-.6-.8-.7s.1-.9-.1-1.3.2-.9-.3-1 0-.4-.1-.6.6.1.7.3-.4.7.1.8h.4c0-.2-.4-.2-.3-.4a2.2 2.2 0 0 1 1.6-.1c.1.4-.5.3-.5.6s.8-.1 1 .1a.7.7 0 0 0 .2.6l-.2.9a1.7 1.7 0 0 0-1.1 1.2h-.3zm1-3.5v-.3c.2 0 0-.3.2-.4s.8.3.8.7l-.2.3c-.3 0-.5-.2-.8-.3zm-1.4-.1c.2-.2-.1-.8.4-.7l.4.4c0 .4-.4.3-.6.4zm15.2-2.1a1.8 1.8 0 0 1 .1-1.6c.1-.4 0-1 .6-1s.4.4.4.6a2.9 2.9 0 0 0-.5 1.3 4.3 4.3 0 0 0 .5 1.2c0 .3 0 .5-.3.6s-.6-.7-.8-1.1zm-.3.9a3.8 3.8 0 0 1-.8-1.7 3.2 3.2 0 0 1 .8-1.4v.4a2.3 2.3 0 0 0-.2 2.1c.2.2.5.4.4.7zm5.9-.7c.2-.6.4-1.2.1-1.6a.8.8 0 0 1-.2-.8c.4-.2.2.5.5.7l.4.8a2.8 2.8 0 0 1-.9 1.7c-.3-.2.1-.6.1-.8zm-.6-.9c.2-.7-1-1.3-.2-1.8s.3.2.4.4.3.7.4 1-.5 1.4-.6 2.2h-.4c-.6-.5.4-1.1.4-1.8zm-1.3-.1a2.9 2.9 0 0 0-.3-1 1.4 1.4 0 0 1 .2-.7c.4-.1.6.3.7.5s.5 1 .2 1.6a8.8 8.8 0 0 0-.5 1.5h-.4c-.4-.5.1-1.2.1-1.9zm-2.5.8c-.2-.6.1-1.2 0-1.8a.9.9 0 0 1 .5-.9c.2 0 .4.3.5.4s-.6 1.3-.3 2.1.5.8.2 1.2h-.4c-.5 0-.6-.5-.5-1zm1.1.7v-2.3a1.7 1.7 0 0 1-.1-.7c.2-.2.5-.5.7-.1v3c0 .3.1.6-.3.8s-.2-.5-.3-.7zm-2.4-3.7l-.3-.3.3-.5a1.1 1.1 0 0 1-.7-.9c-.3-.3-.4-1.1-1-1V9h.4c.2.3.4-.4.6 0s.5.3.8.4.6.4.3.8-.2.5-.5.5 1-.2.9.5.4.1.5.1l.3-.3c-.1-.4-1 .1-.7-.4h.4c.3.2.6.1.9.1l.3-.3c-.2-.1-.6-.1-.7-.4l-.2-.5c.2-.2.3-.6.7-.5v-.6c.2-.1.3-.6.7-.4l.4.5v.3l.4.2c0 .3.6.4.4.8s-.5.6-.9.4l.3.4c.4.4.9-.4 1.2.1s-.7.1-.5.6h.6c.3-.1.1-.4.4-.5h.4a1.6 1.6 0 0 1-.5-1c.3-.2.7-.6 1-.3a1 1 0 0 1 .4-.5c.3.3 1.1-.2 1 .5s-.5 0-.7.1-.2.6-.4.8-.3.9-.8.9.7.7 0 1a9.6 9.6 0 0 0-5.7-.3zm-.6-4.9c-.1-.3-.5-.3-.6-.7s.7.4.9.7zm6.4.4c.2-.4.5-1 1-1.1v.2c-.1.3-.5.6-.7.9s-.2.3-.3 0zm-4.5.4c-.3-.8-.7-1.5-1-2.3a1.6 1.6 0 0 1-.5-1 4.3 4.3 0 0 1 1.5 2.1c.2-.5-.4-.9-.4-1.4l-.7-1.4v-.3l.6.2c.7 1.2.7 2.6 1.1 3.9v.5h-.4c-.2.1-.1-.1-.2-.3zm2.8-1.6c.3-.9.3-2 .9-2.7s.8-.2.6.2a27.2 27.2 0 0 0-1.1 2.5 16.2 16.2 0 0 0 1-1.8h.4a2.9 2.9 0 0 1-.2.9 18.3 18.3 0 0 0-1.4 3.2h-.4c-.3-.7.1-1.5.2-2.3zm3.4-2h-1.1l-.6-.6c-.1-.5.2-.8.4-1.2s-.6.2-.9.3.6-.6 1-.8.7.3.8.5l.2.4c.2 0 .4-.2.6 0s.2.7.1 1-.2.7-.5.4zm-4.8.1c0-.4-.2-1 .2-1.4l.3.2a4.2 4.2 0 0 1-.3 1.9c-.2-.1-.1-.4-.2-.7zm-5.3-.7c.1-.3 0-.8.5-.9s.4-.4.6-.6a1.1 1.1 0 0 1 1.4.1v.5c.1.3.2.8 0 1s-.4.3-.6.4-1.6.4-1.9-.5z" class="cls-1"/><path d="M142.1 45.6v1.1c0 .4.6.1.7.1s-.4-1-.7-1.2zm-.6 0c-.1-.3-.5-.2-.8-.2s-.1 1-.1 1.4.4.1.8-.1h-.4v-.4h.3c.3-.3-.3-.2-.3-.5s.4-.1.5-.2zm2 1.2v-.4c.2-.2.8-.3.6-.8s-.6-.1-.9-.3zm.2-1.2l.3.2-.2.3c-.3-.4-.2-.5-.1-.5zm-4.5.4s-.2 0-.4-.4l.2 1.1c-.1-.4.3-.5.7-.4s.2.4.5.5l-.2-1.2a.6.6 0 0 1-.8.4zm-7.4-35.3c-.1-.4-.6-.1-.7.2h.5zM128.3 23c.3 0 .3-.3.3-.6s-.8 0-.9.4.3.3.6.2zm5.9 0c.2 0 .6-.1.5-.3s-.7-.4-.9-.1.2.4.4.4zm-2.2-.5a.6.6 0 0 0-.7-.3l-.5.3.4.3c.3.1.5-.2.8-.3zm-17.2-3.2h-1l.2.3c.4.3.5-.3.8-.3zm145.6 20.1c.1.6.7.7 1 1.2s.6.7.4 1.2a.5.5 0 0 1-.6.3 9.5 9.5 0 0 1-3-1.9c-.4-.1-.7-.5-1.2-.7s-1.5-.8-2.2-1.3a5.7 5.7 0 0 0-1.8-.3 1 1 0 0 0-.9.4 11.4 11.4 0 0 1-.9 2.6c-.3.6-.7 1.3-.2 1.9a1.9 1.9 0 0 0 1.4.7c-.2-.1-.5-.1-.6-.3a1.6 1.6 0 0 1-.7-1.6 1.6 1.6 0 0 1 1.5-.3c1.6 0 2.5 1.5 3.8 2.1a6.7 6.7 0 0 0 3.2 1.7c.6-.5.8-1.2 1.3-1.8s.8-1 1.2-1.5-.9-1.8-1.5-2.5zm-7.1 1.3c-.2.3-.5.1-.8.1s.2-.6.3-1a4.1 4.1 0 0 0 .2-1.5c.3-.2.6 0 .9.1l.2.2a9 9 0 0 0-.8 2.1zm3.2-.7c-.2-.2-.6-.1-.8-.1a1.1 1.1 0 0 0-.6 1 .7.7 0 0 0 .4.7c.3.4 1 .1 1.1.5a1.9 1.9 0 0 1-2.1-.7 1.8 1.8 0 0 1-.1-1.6 1.7 1.7 0 0 1 1.4-.7 3.1 3.1 0 0 1 2 1.3l-.3.5c-.6-.2-.4-.8-1-.9zm3.1 4.5h-.6c-.8-.5.8-1.2-.2-1.6h-.7c-.2.3-.2.7-.6.8s-.5-.4-.7-.6a8.7 8.7 0 0 0 1.6-2.3c.2 0 .4.2.6.4v.2c-.2.3-.5.4-.4.8a.8.8 0 0 0 .8.3c.2-.3.1-.7.5-.8s.8.3.6.8a11.3 11.3 0 0 0-.9 2z" class="cls-1"/><path d="M261.2 40.8l-.7-.7h-.4a1.4 1.4 0 0 0-.2.6 1.7 1.7 0 0 0 1 .6c.2-.1.3-.2.3-.5zm2.9 1c.3-.1.1-.5.1-.7s-.9-.5-1.4-1a24.3 24.3 0 0 0 0 2.7c.3.6.6 1.3 1.3 1.5s-.1-.8-.1-1.2.2-.9.1-1.3zm.6.1v1c.2.5-.2.9 0 1.3v3.4a5 5 0 0 0 .1 2.1 11.5 11.5 0 0 0 .1-1.9v-12l-.2-1.7c-.2.1 0 .5-.1.7a17.6 17.6 0 0 1 0 2.3c.1.4-.2.8 0 1.2s.1.6 0 1a11.3 11.3 0 0 0 .1 2.6zm-1.9-6.2v.6c.1.9 0 1.9.2 3.1s1 .5 1.2 1 0-.6.1-.8-.3-.4-.3-.7h.3a1.3 1.3 0 0 0-.2-1.2c.5-.4.2-1.1.3-1.7l-.3-.8c.2 0 .4-.2.3-.4s-.7-.9-1.3-.8-.2.5-.2.8.4.6.7.9.7.6.5.9a3.2 3.2 0 0 1-1.3-.9zm-7 9.2a2.7 2.7 0 0 1-.7 1.3c0 .3-.4.5-.3.8a8.6 8.6 0 0 0 1.3-2.3c.2-.4-.2 0-.3.2zm-3.2-3.1l-.4.3v.7c.2.1.5.4.8.3a.9.9 0 0 0 .4-.7c0-.5-.5-.5-.8-.6zm7.9-5.5c-.7-.4.4-.6.3-1.2l-.2-.5.2-.4h-.1a1.7 1.7 0 0 0-1.2.4c0 1.1-.4 2-.4 3s1.3-.6 1.4-1.3zm11.7-11.9c.3-.1.2-.4.4-.6a7.2 7.2 0 0 1 1.5-2.7v-.6l-.5.4A15.4 15.4 0 0 0 272 24zM254.8 33h-.4c-.3.1-.2.5-.2.6zm.6-16.4c-.3.6 0 1.3-.1 2s.2.9.3 1.3.8 1.2 1.1 1.7.9 1.8 1.3 2.8a2.8 2.8 0 0 1 .9 1.8l.6-.2c.4-.3 1.1-.1 1.2-.7s0-.6-.3-.6l-.2-.3a1.3 1.3 0 0 0-.2-1.2c-.4.6-.4 1.5-1 2s0-1.3 0-1.9.9-1.3.3-2-.1-1-.6-1.4-.3.4-.5.1a4.3 4.3 0 0 0-.1-1.6h-.4c-.4-.3.1-1.1-.4-1.4l-.2 1.8c-.1.5-.1 1-.4 1.3s-.3-1.2-.4-1.9.1-1.5.2-2.2.2-.7 0-1.1-.2.6-.5.6-.2-1.4-.7-1.9v.5a4.2 4.2 0 0 1 .1 2.5zm15.8 11.6c.2-.9 1.1-1.4 1-2.5s-.1-.7-.5-.6a1.7 1.7 0 0 0-.8 1.2 13.3 13.3 0 0 0 0 2zm-9.6 10.5l-.3.3c.1.1.2.1.6-.1zm-4-.4a1.5 1.5 0 0 0 0-1.6l.3-.2c.2-.2 0-.6 0-.9s.4-.2.3-.5-.6-.2-.8-.1a.9.9 0 0 0-.6.7c0 .7.7 1.2.8 1.8s-.6-.3-.8-.4a1.6 1.6 0 0 0-.1 1.5c.4.3.5-.3.9-.3zm3.2.3a1.1 1.1 0 0 0 .8 0c.1-.1.4-.1.4-.4v-1.9c-.1-.3-.6-.2-.7.1l-.5 1.4a1.1 1.1 0 0 0 0 .8zm4.8 3.4a13.3 13.3 0 0 0 0 2c.4-.4.9-.7.9-1.3s.1-.8.1-1.3.2-.8.1-1.3-.5.3-.7.4-.1-.3-.1-.5.9-.6.9-1.1l-.2-.3c-.3-.2.1-.5.1-.8s.2-.6-.2-.6.4-.7.3-1.2-.6.5-1 .4 1.4-.8 1.1-1.8h-.3c-.1-.2.2-.3.2-.5l-.2-.3a1.1 1.1 0 0 1-.8-.1v.3a73.6 73.6 0 0 0-.2 8zm-6.9-2.2l.6.2c-.2-.6.6-.7.6-1.2s.3-.6.3-.9v-.3a1.7 1.7 0 0 1-1 .3c-.4.1-.3.6-.4.8s-.3.8-.1 1.1zm-.1-3.1c0-.6.2-1.1 0-1.4 0 1.3-.4 2.5-.4 3.5a15.5 15.5 0 0 0 .4-2.1zm9.7 1.9l.3-.2a8.5 8.5 0 0 0-.4-1.7c-.1-.2-.2-.6-.5-.5l-.2.3a12 12 0 0 0 0 1.9 1.1 1.1 0 0 0 .8.2zm3 .6a4.3 4.3 0 0 0-.2-1.1c-.1-.9-.3-1.8-.5-2.8s0-.4-.2-.3a22.5 22.5 0 0 0 .6 3.6c.1.2.1.6.3.6zm3.8-6.2h-.8c-.1.1-.4.1-.4.3l.3.5a1.5 1.5 0 0 1 .9-.8zM273 44.6a14.1 14.1 0 0 0 1.3 2.4c0-.5-.4-.8-.4-1.2s-.4-1.1-.9-1.2zm-1.2-5.9c.3.3.6-.1.8-.2s-.2-.3-.3-.5.2-.5 0-.7l-.3.2h-.4c-.2-.6.6-.9.6-1.5s-.4-.5-.2-.8-.3-.2-.5-.2-.4-.3-.4 0 .2 1.3.2 1.9a8.4 8.4 0 0 0 .5 1.8zm5.3 3.4a.8.8 0 0 0-.8-.3c-.2.1-.6.1-.6.4l.3.6a1.4 1.4 0 0 0 1.1-.1c0-.2.1-.3 0-.6zm-.3-11.7l.2-.5h-.6a3.9 3.9 0 0 1-.8-1.4 16.2 16.2 0 0 1-1 1.8 3.7 3.7 0 0 1 1.5-.1c.2.1.4.3.7.2zm1-1.7a.9.9 0 0 0-.8-.6v1.3c.4.1.5-.4.8-.7zm-25.6-.5c-.3.1-.7.2-.6.6s.3.5.6.6-.1-.8 0-1.2z" class="cls-1"/><path d="M268.5 43.5c.1.5.6.8.7 1.3s.3.4.6.3a17.2 17.2 0 0 0 3.7-2.2c1.2-.8 2.3-1.7 3.8-1.6s.5.2.6.5.1.9-.3 1.2-.7.2-.7.7l.9-.4a1.3 1.3 0 0 0 .4-1.4 7.7 7.7 0 0 1-1-2.5c-.1-.4 0-.9-.3-1.2h-.3a5.8 5.8 0 0 0-3.8 1.1c-.9.7-2 1.3-2.8 2a10.6 10.6 0 0 1-2.1 1.1c-.3-.1-.3-.5-.2-.7s1-1.2 1.3-1.9l-.9.7c-.3.6-1 1.2-.7 2.1a2.5 2.5 0 0 1 1.1.9zm5.8-4.9c.7-.2 1.2.4 1.8.7s0-.6-.2-.8l.2-.3.6.2a3.4 3.4 0 0 0 .5 1.7c0 .2.1.5-.2.5s-1.1-.6-1.6-.8.9.9.2 1.3h-.5c-.2-.3-.1-.7-.3-1a8.6 8.6 0 0 0-.7-1zm-2.1 1.3l1.3-.8.2.2c0 .3-.4.2-.6.4v.4c.1.2.3.2.5.1s.2-.3.5-.2v.4l-.5.3c-.1.3.1.4.3.5s.7-1 1-.2v.3l-1.3.8c-.4 0-.3-.4-.5-.6a6.4 6.4 0 0 0-1-1.3zm-1.4.9c.3-.1.5-.5.8-.3s.2.6.5.9l.8 1c0 .3-.4.3-.6.6a7.9 7.9 0 0 0-1.4-1.8zm-2.4 1.6c.7-.3 1.4-1 2.3-.7l.6.4a1.7 1.7 0 0 1 0 1.7 2.1 2.1 0 0 1-1 .6c-.2.2-.5.4-.7.2s-.5-1.4-1.2-1.8z" class="cls-1"/><path d="M270.8 43.4a1.2 1.2 0 0 0-.2-1 .7.7 0 0 0-1.2-.1c-.1.5.5.9.9 1.5s.5-.1.5-.4zm-13.7-19.8a15.5 15.5 0 0 0-1.2-2.2c-.3-.3-.4-.9-.8-.7l2.1 3.5zM268.2 41l.3.3c.4-.3.9-.3.9-.9l-.3-.4c-.5.1-.7.6-.9 1zm.5-4.7c.3.5 1.2.5 1.5 1s-.6-.8-.2-1.2a.6.6 0 0 0-.2-.7c-.5-.4.4-.5.1-.9l-.3-.2c-.3-.1-.8-.3-1.1-.1s0 .5 0 .7a6.8 6.8 0 0 0 .2 1.4zm-1.2 2.7c.2.1.4.3.6.1s-.2-.3-.6-.1zm2.6 1c.3 0 .4-.3.7-.4s-.6-.6-.2-1.1-1-.9-1.5-1.3a8.5 8.5 0 0 0 1 2.8zm-2.6-8zm1.8-.8v.3c.3-.1.5.2.7.2a.4.4 0 0 0 .4-.4 1.1 1.1 0 0 0-1.1-.1zm3.4-4.4h1c.2-.2.5-.4.5-.7h-.2a1.8 1.8 0 0 0-1.3.7zm-7.1 4.1a1.7 1.7 0 0 0-1.2-.6 1.4 1.4 0 0 0-.7.8c.1.3.5.4.8.4v-.6c.3-.3.8 0 1.1 0z" class="cls-1"/><path d="M265.8 50c.4-1.4 0-3 .1-4.5s.8-1.1 1.5-1.6.9 1.5 1.5 2 1.4-.2 2-.3.8-.7 1.3-.4 1 2.4 2.2 3.1a.8.8 0 0 0 .8-.1 3 3 0 0 0 .2-1A30.9 30.9 0 0 1 274 44a.9.9 0 0 1 .6-.7c.7-.3.7.7 1.2 1.1a1.2 1.2 0 0 0 1 .1 3.9 3.9 0 0 0 1.6-.7 2.4 2.4 0 0 0 .7-2.3 7.4 7.4 0 0 1-1-2.6 2 2 0 0 0-.4-1.5 5.5 5.5 0 0 0-3.1-.1c-.4 0-.7.2-1 0s.9-.8 1.3-1.4l.3-.9c.4-.4 1.1-.4 1-1.1a3.5 3.5 0 0 1 .7-2.1c.2-.4.7-.4.9-.8s.3-1.1.7-1.6.4-.5.3-.9-1.1-1-1.8-1.3a3.2 3.2 0 0 0-.9.3c-.4 0-.8.2-1.1-.1s.3-.7.5-1.1.7-1.6 1.7-1.9a10.2 10.2 0 0 0 2.5.6c.4-.2.4-.6.6-.9s2.4-.9 3.2-2l1.1-.5a3.3 3.3 0 0 0 1.8-2.6c-.2-1.3.4-2.7-.5-3.8a3.8 3.8 0 0 0-3.7-1.7c-.5-.3-.7-.8-1.1-1.2a6.1 6.1 0 0 0-3.2-1.3c-2-.4-3.6.7-4.8 2s-1.9 2.5-2.8 3.8c-.2-.4 0-.8.1-1.2a12.4 12.4 0 0 1 .9-3.9l.9-1a4.8 4.8 0 0 0 .5-3.7 3.8 3.8 0 0 0-1.4-3.7 4 4 0 0 0-3-.9 4.2 4.2 0 0 0-2.2.8c-.4.4-1.1.1-1.6.1h-.6l-1.3-.7-1.4-.4a4 4 0 0 0-1.9.2 4.1 4.1 0 0 0-2.8 2.9c-.2.7.1 1.4-.1 2.1a5 5 0 0 0 1.7 4.5c.5 1.4.4 2.9.9 4.2s.3.8-.3.8-1.2-2.6-2.4-3.7a5.6 5.6 0 0 0-4.9-2.2 7.1 7.1 0 0 0-2 .4c-.6.2-.8.6-1.3.9s-1.3.9-2 1.2a3.9 3.9 0 0 0-3.1 2c-.1.8-.5 1.5-.2 2.4l.6 2.3a4 4 0 0 0 2.7 2.2 4.7 4.7 0 0 0 2.5 1.1c.5.2.6.8.8 1.2a2.2 2.2 0 0 0 1.4 0c.6 0 1.4-.7 1.9 0a20.7 20.7 0 0 1 1.5 2.5v.4c-.4.2-.6 0-1.1 0a.9.9 0 0 0-1-.2c-.6.4-1.5.6-1.8 1.4s1 1.4 1.2 2.2 1.1 1.4 1.5 2.1v1.3c.1.4.4.5.7.6s.4.9.7 1.3 1 .3 1.1.9-.7.2-1 .1h-1.3c-.6.1-1.3.1-1.7.6a10.2 10.2 0 0 1-.6 2.5c-.2.6-.6 1-.8 1.6a2.7 2.7 0 0 0 1.2 2.5 4.9 4.9 0 0 0 2.1.4c.7-.1.4-1.2 1.2-1a1.2 1.2 0 0 1 .6.6c-.1.9-.8 1.6-1.1 2.4a3.7 3.7 0 0 0-.1 1.8c.1.3.5.2.7.2s1.5-1.9 2.3-2.9h.3l1.9.7a1.6 1.6 0 0 0 1 .1c1.3-.1 1-1.7 1.9-2.3s.4.1.6.3.9.8 1.1 1.4V50a2 2 0 0 0 .6 1.5h.6a3.7 3.7 0 0 0 .8-1.5zm-1.1.7c-.7-.8-.3-2.2-.4-3.2v-2.2A4.9 4.9 0 0 0 263 44a3.9 3.9 0 0 0-.6-1.1 2.4 2.4 0 0 0-.9 1.1l-.4.8a1.7 1.7 0 0 1-.6 1.1 3.4 3.4 0 0 1-2-.3l-1.3-.8c-1 1.2-1.3 2.6-2.6 3.4l-.2-.4c0-1.6 1.4-2.5 1.5-4.1s-.7-.6-1.1-.9-.4-.2-.6 0-.2 1.1-.8 1.3a3.1 3.1 0 0 1-2.7-1.5c-.4-.9.2-1.6.5-2.4a7.9 7.9 0 0 0 .5-2.2.7.7 0 0 1 .4-.7h2.1l1.5.4c.3.1.3-.3.4-.5s.1-.9-.2-1.2a2 2 0 0 1-1.3-.6c-.2-.3.2-1-.4-1.1s-.7 0-.8-.4.2-1.3-.4-1.7-1-1.3-1.4-2a9.1 9.1 0 0 0-.9-1.7v-.3l1.6-1a.7.7 0 0 1 .5.4c.1.4-.3.9.1 1.1l.4-.2a1.1 1.1 0 0 1-.4 1 .7.7 0 0 0-.6.2c-.1.2.2.4.3.4l.5-.3 1.5.3c.3-.2-.3-.4-.4-.7s-.6-1.1-.5-1.8h.4c.2.2.1.6.3.8s1.2 1.2.6 1.9-.7-.3-.9.1.8.4 1.2.5a.7.7 0 0 0 .7-.4 3.8 3.8 0 0 0-1.1-2.5 2.4 2.4 0 0 1-.3-1.5 9.1 9.1 0 0 1-.9-1.7 19.2 19.2 0 0 0-1.3-1.7c-.5-.6-.9.2-1.4.2s-.9.4-1.4.2-.3-1-.8-1.1a4.8 4.8 0 0 1-1.9-.9 2.2 2.2 0 0 1-1.2-1.6 1.6 1.6 0 0 1 .4-1.2l.2.2a2 2 0 0 0 .1 1.3 4 4 0 0 0 1.9 1.1c.7.3 1.5.7 1.7 1.5s.5-.1.7-.2.3-.9.8-.7l.3-.2a4.1 4.1 0 0 0 0-1.1c.3-.2.9.9.8 0a5 5 0 0 0-.3-1.3c.2-.1.7.6.6-.1a2.2 2.2 0 0 0-1.3-1.8c.9-.4 1.5.5 2 1.2l.2.4c.5-.5 0-1.1-.2-1.6l-.3-.5c.4-.1.6.3.9.4s-.8-1.3-1.3-1.8.4 0 .7-.1a3.3 3.3 0 0 0-2.6-1.3c.2-.3.7-.1.9-.2a4.2 4.2 0 0 1 1.6.4l.4.2c-.5-.5-.9-.6-1.2-.9s.7.1 1.2 0-.2-.4-.3-.5a6 6 0 0 0-1.9-.6c.1-.2.2-.3.2-.4a2.4 2.4 0 0 0-1.2-.3l.2-.4c-1.3-.2-2.3.9-3 1.9a4.4 4.4 0 0 0-.1 3.2c.1.5.6.9.6 1.5a3.9 3.9 0 0 1-1.5-3.9 4.1 4.1 0 0 1 2.3-3 5.3 5.3 0 0 1 3.9-.2 4.5 4.5 0 0 1 2.3 1.4c.3.6 1 .9 1 1.6l.3.2h.3a65.8 65.8 0 0 1 2.9 6.6c.3.7.4 1.5.8 2.3.2-1.2-.4-2.3-.6-3.5a27.3 27.3 0 0 1-1-4.1c-.1-.7-.5-1.2-.6-1.9s-.3-1.1-.2-1.7a2.7 2.7 0 0 0-.5-1.5 3.2 3.2 0 0 1-1.4-2.8v-.2a5.9 5.9 0 0 1 .2-1.3c-.5-.4-.1-.9-.1-1.4a3.3 3.3 0 0 1 1.2-1.7 4 4 0 0 1 3.5-1 3.5 3.5 0 0 1 1.4.6c.4.2.8.8 1.4.6s.9.1 1.4.2 1.1-.7 1.7-.9a4.1 4.1 0 0 1 4 .7 4 4 0 0 1 1 2.9c0 .8.5 1.5.2 2.4a4.5 4.5 0 0 1-1.6 2.8 14.1 14.1 0 0 0-.8 3.1c-.4.4.1.7-.1 1.1a16.6 16.6 0 0 1-.6 2.1 45.4 45.4 0 0 0-.9 5.1c.4-.5.2-1.3.8-1.8s.5-1.6.7-2.4a23.1 23.1 0 0 1 1.8-3.5c.2-.1.3-.5.6-.3s.4-1 .8-1.5a5.5 5.5 0 0 1 3.9-2.3 7.5 7.5 0 0 1 3.4.9c.2.4.7.5.9.9s.3.4.4.5a4.3 4.3 0 0 1-.4 3.5h-.3V16l.3-.3c-.1-.3-.4-.5-.4-.9s.4-.3.2-.5l-.2-.5a.4.4 0 0 0 .3-.5 3.4 3.4 0 0 0-3.2-1.9 4.4 4.4 0 0 1 1.7.8 5.9 5.9 0 0 0-2.3 0l-.7.2a3.8 3.8 0 0 0-1.5 1.3 6 6 0 0 0-.6 1.1c-.2.1-.2.4-.5.6s0-.8 0-1.1.5-1 .1-1.3-.9.9-1.2 1.3a16.7 16.7 0 0 0 .2 3.9 3.3 3.3 0 0 1-.2 1.7l-.2-.4a11.4 11.4 0 0 1-.3-3.7 15.5 15.5 0 0 0-2.3 4.2 5.1 5.1 0 0 0 .4 3 3.2 3.2 0 0 1 .1 1.4l-.3-.2a18.7 18.7 0 0 1-.7-2.2 6.7 6.7 0 0 0-.9 2.6c0 .2 0 .6.3.6s1 .5 1.5.1.7-.9.8-1.4h.4c.4-.4.1-1 .3-1.5h.4v-1.2c.3-.2.2.3.6.3a4.4 4.4 0 0 0 .8-1.7c.2-.1.5-.2.5-.5a4.2 4.2 0 0 1-.3-2 5.6 5.6 0 0 1 .7-1.8c.7-.6 1.6-1.5 2.7-1.1l-1.1.5a3.3 3.3 0 0 0-1.6 2.5 6.5 6.5 0 0 0 .6 2.4v.9a10.7 10.7 0 0 0-2.3 4l.2.6c.9-.1 1.7-.2 2.1-1s.7-.4.7-.9-.5-.1-.4-.4.7-.2 1-.5-.6 0-.7-.4v-.5l-.6-.3.3-.4a4 4 0 0 1 .4-2.2 1.8 1.8 0 0 1 .8-.7 3.3 3.3 0 0 0-.5 2.7 4.1 4.1 0 0 0 1.9 2c.4.3.8.7 1.3.7s.3-.8.7-1.2a.7.7 0 0 1 .4-.7.5.5 0 0 0 .7-.3 1.1 1.1 0 0 0 .3-.8c.3.1.2.6.4.7s.4-.8.5-1.2l.3.2v.3c.6-.6 0-1.4 0-2a1 1 0 0 1 .7.4c.2.3.1.7.5 1s.2-.6.3-1v-.4c.4-.1.4.9.8.4s-.2-1.1-.4-1.6.3 0 .4.1-.7-1-1.1-1.6a2.4 2.4 0 0 1 1.2 0c.1-.4-1-.8-.3-1.2a1.6 1.6 0 0 0-1.6-.6c-.3 0-.1.4-.2.5a6.1 6.1 0 0 1-3 4.3v-.3a13.6 13.6 0 0 0 2.1-3.2 3.4 3.4 0 0 0 .1-2 1 1 0 0 1 .5-.4 2.8 2.8 0 0 1 1.8.6c.3.4.8.5 1.1 1a3.8 3.8 0 0 1 .3 2.6 3 3 0 0 1-.8 3c-.7.6-1.9.6-2.4 1.5s-1.7.7-2.5 1.2-.2.9-.7.9a10.5 10.5 0 0 1-2.3-.8c-.4.1-.6.6-.9 1s-.6.3-.6.6v.5a3.5 3.5 0 0 0-1.2 1.5c-.1.3.2.5 0 .8s-.1.8-.5.9a7.9 7.9 0 0 0-.6 2.2c0 .3.7.4.3.6a2.5 2.5 0 0 1-2.2-.7c-.1-.3-.4-.5-.4-.9s0-.8-.5-.7-1.2.5-1.7-.1v.4c.2.3.7.2 1 .1s-1.5.5-2.2.7-.2.3-.2.5h.4l-.2.4a.8.8 0 0 1-.4-.6l.3-.4c-.5-.3-1.2-.3-1.6-.7a9.4 9.4 0 0 1-.9-1.2c-.8-.4-.7.7-1.2 1s-.9.8-1.6.7a3.3 3.3 0 0 1-2.4-.1c-.1-.1-.3-.2-.3-.4s.5.2.8 0l.3-.2c-.3 0-.8.1-1-.1s-.5-.1-.7-.1a.7.7 0 0 1-.6.4c-.2.3-.4.6-.8.6s.8-.2 1 .1a3.5 3.5 0 0 1-1.4 1.3 6.1 6.1 0 0 1-3-.1c-.3-.1-.5-.5-.8-.4s.6 1.6 1.6 1.5.9-.1 1 .3-.2 1-.2 1.4v.4c0 .3-.7.6-.2.8s1.8-.9 2.7-1.3a20.2 20.2 0 0 1 4.4-.9 11.1 11.1 0 0 1 2.6-.1A23.3 23.3 0 0 1 273 34c.3.2.9.3 1 .7l.4-.2c-.1-.3-.4-.4-.4-.7s.3-.3.3-.6l-.3-1c.2-.4.7-.4 1.1-.5h.4a4.2 4.2 0 0 0 .9-1.4c-.2 0-.4.3-.7.4h-.4c-.1-.2.6-.6 0-.7s-.6.4-.9.1.2-.5.3-.8.6-1.4 1-2 .5.1.7.3 0 .6.4.7-.3-1.3.5-1.4.5.3.8.4.7.3.7.7-.7 1-1 1.6-.6.7-.8 1a7.8 7.8 0 0 0-1 1.5c-.1.5.3 1.3-.3 1.5s-.7 0-.9.5.1.9-.3 1l-1.1.3c-.4.1-.1.5-.1.8s0 1.1.6 1.1a6.7 6.7 0 0 1 3.5-.6c.7.2.4 1.1.6 1.6l.3 1.1c.3.7 1 1.4.8 2.2s-1.3 1.5-2.1 1.8-.5-1.4-1.4-1.8a5.7 5.7 0 0 0-1.6 1.1c-.4.7.4 1.2.5 1.8s1.1 1.6.9 2.6h-.4c-1-.7-1.2-1.7-1.8-2.7s-.1-.7-.5-.9-.9.5-1.4.8-1.1.7-1.9.5-.4-1-.7-1.4-.5-1-1-1.3a6.6 6.6 0 0 1-1.5 1.9l-.2.6v3a3.3 3.3 0 0 1-.4 2.2c-.5.9-.7 1-.9.9zm-7.5-16.8l.3-.2h.4l-.3.2zm14.5 0a.7.7 0 0 1 .9.1.8.8 0 0 1-.9-.1zm-12.9-.5l.3-.4h.6c-.2.3-.5.6-.9.4zm13.1-.1h.8c0 .3-.3.3-.5.4zm-9.8-.5c.1-.2.4-.2.6-.1a.7.7 0 0 1-.6.1zm1.2-.3h.7c0 .2-.3.1-.4.2s-.5.2-.3-.2zm9-.1c.1-.4.4.1.6-.1l-.3.3zm-10.6-.6l.3-.2v.5l.3-.2v.3h-.6zm-4.9 1.4c.3-.6-.9-.8-.2-1.2l.2.2c.2 0 .4-.2.4 0v.5c.2.1.4.2.4.5s-.2.4-.4.4-.3-.3-.4-.4zm10.3-1c0-.2 0-.5.3-.6a.7.7 0 0 1 .5.4.4.4 0 0 1-.4.4c-.3.1-.4-.1-.4-.2zm-3.6-.7l-.3-.4c.1-.5.7-.7 1.1-.9s.9.1 1.3.2.4.3.5.6a1.8 1.8 0 0 1-1.4 1c-.5.1-.8-.4-1.2-.5zm-1.2-.5v.3h-.4zm-4.2 1.4a.8.8 0 0 1-.1-.8 1.9 1.9 0 0 1 1.5-.9c.4 0 .9 0 1.1.4v.7a1.6 1.6 0 0 1-1.2.9 1.2 1.2 0 0 1-1.3-.3zm11.1.1a1.1 1.1 0 0 1-.5-.9.9.9 0 0 1 .6-.7 1.5 1.5 0 0 1 2.1.8.9.9 0 0 1-.5.9 2 2 0 0 1-1.7-.1zm-24.4-11.1a3.7 3.7 0 0 1-1.3-1.7 2.9 2.9 0 0 1 .4-2.4c.1 0 .3-.2.3 0a2.9 2.9 0 0 0 .3 2.7c.2.4.7.5.9.8a3.1 3.1 0 0 1 .2.8 1.1 1.1 0 0 1-.8-.2zm-2-4.1a6.6 6.6 0 0 1 .6-2c.5-.4.8-1 1.4-1.2a1.8 1.8 0 0 1 2-.4 5.4 5.4 0 0 1 0 1.8 5.3 5.3 0 0 0 .1 1.3l-.6-.2-.4-.2c.1-.2.2-.4 0-.5l-.6-.3.4-.4c0-.3-.8-.1-.4-.5l.2-.3a6.7 6.7 0 0 0-1.2.6 3.9 3.9 0 0 0-.8 2.1 1 1 0 0 1-.4.7c-.2 0-.2-.3-.3-.5z" class="cls-1"/><path d="M258.4 31.6v.6l.2-.4a1.2 1.2 0 0 0 1.1-.4h.6v-.2c-.7 0-1.5-.2-1.9.4zm8.3-2.3c-.4-.1-.5-.6-.9-.4a1.7 1.7 0 0 0 1.3.9v-.5zm-2.1-14.7c-.1 3.3 0 6.6.2 10.1l.2-.3v-9.7c.1-.2-.3-.2-.4-.1z" class="cls-1"/><path d="M263.5 26.3c0-.3-.4-.5-.5-.7s-.1-.6.2-.7h.7c.5-.1.2-.6.3-1s-.4-1-.3-1.5l.3-.2c.1-.5-.4-.8-.4-1.3s.3-.3.3-.5-.5-.6-.2-1 .2-.8.3-1.2-.6-1.3-.9-1.9.5.3.8.2v-.4l-1.1-1.4c.4-.1.7.3 1.1.1a2.6 2.6 0 0 0-1.2-1.1 5.2 5.2 0 0 1-3-2.4c0-.8-.2-1.7.5-2.2h.3a5.3 5.3 0 0 0-.1 1.3c.1 1.9 2.1 1.9 3.3 2.5s.9 1.2 1.3.4.5-.5.7-.7.4.1.7 0 .4-.8.7-1.1.2.5.4.6l.5-.5c.2-.3 0-.8.3-1.1s.2.3.5.6a1.9 1.9 0 0 0-.6-2.2c-.2-.4-.8-.4-.8-.8a2.6 2.6 0 0 1 1.9 1.2 2.8 2.8 0 0 1 .4 1.3c.2.1.2-.2.4-.3s-.1-1.1-.1-1.6l.5.3c.3.2.2.6.5.6s0-.7.1-1.1l-.6-.9v-.2c.4.1.4.8 1 .6a1.7 1.7 0 0 0-.5-1.3c-.2-.2-.6-.4-.6-.6h.5a3.1 3.1 0 0 0-2.5-1.3v-.4h1.4a4.5 4.5 0 0 0 1.1.3c0-.3-.3-.5-.5-.7s-1-.2-1.1-.7a3.4 3.4 0 0 0-3.1.3c-.9.7-1.1 1.7-1.7 2.5s.1-1.3.1-1.9-.2-.4-.5-.4a.5.5 0 0 0-.3.5 16.7 16.7 0 0 1 0 5l-.4-.4v-.6c-.1-.3-.5-.3-.6-.6l.3-.3c.2-.4-.4-.6-.6-.9l.4-.4c-.2-.4-.7-.5-.9-.9s.4-.1.7-.1-.7-.7-.8-1.3h.5l-.2-.4a5.1 5.1 0 0 0-2.8-.7 3.2 3.2 0 0 0-2.5 2 2.3 2.3 0 0 1 2-.4l-1 .6a5.2 5.2 0 0 0-1.2 1.8c0 .3-.2.6-.1.9a3.4 3.4 0 0 0 1.2 2.6l.8.5.2 1.1a7.4 7.4 0 0 0 .3 2.6c.8 1.3 2.5 1.5 3.4 2.9v.4l-.4-.2a5.6 5.6 0 0 1-2-1.4h-.3a7.1 7.1 0 0 0 .4 2c.3 1.1.2 2.6 1.4 3.2a3.9 3.9 0 0 1 1.5 1.6c0 .2.4.5 0 .6s-1.2-1.2-2.1-1.8a14.1 14.1 0 0 0 .1 2 9.1 9.1 0 0 0 .1 1.7c0 .4.5.1.7.2s1 .9 1.4.7zm-.6.4c-.2-.2-.3-.5-.5-.4v.7c.1.5-.1 1 .1 1.4a4.8 4.8 0 0 1 1.1-.9c.3-.4-.5-.4-.7-.8zm9.4.9c-.3.2-.9.5-.8.9s.7-.5 1.1-.4.4.5.6.7.6-.2.7-.5.1-.6-.1-.7a1.2 1.2 0 0 0-1.5 0z" class="cls-1"/><path d="M264.7 26.8c.3 0 .3-.3.4-.5s.6-.5.5-.9a6.7 6.7 0 0 1-2 0l.6.7c.2.2 0 .7.5.7zm-4.2 1.7c-.5 0-.2-.7-.7-.6s.2.6.2 1h.7a2.8 2.8 0 0 1 .6.8v-1.4c-.3-.2-.4.1-.8.2zm-3.7.1v.5c0 .4-.6.2-.4.6h.7v-.8c.2-.4-.2-.4-.3-.3zm-.9-1.2c-.2 0-.4.2-.6.4s-.1.7.2.9.3-.4.6-.6 1.1 0 1.5.1l-.4-.4a1.8 1.8 0 0 0-1.3-.4zm5 .2a1.2 1.2 0 0 0-.1-1c-.2-.4-.7-.3-1-.2a1.5 1.5 0 0 0-.9 1.6c.3 0 .2-.4.5-.6s.4-.3.7-.2.5.4.8.4z" class="cls-1"/><path d="M258.5 28.5c-.1-1 .1-2.1-.5-2.9s-.5-.8-.8-.5a4.1 4.1 0 0 0 .1 1.9c.5.4.7 1 1.2 1.5s-.4.3-.4.5l1.1-.3c-.2-.2-.6 0-.7-.2zm3.7.7v.4a1.7 1.7 0 0 0 1.3-1h-.2c-.4.1-.5.7-1.1.6zm8.2-1a2.1 2.1 0 0 0-.5-1.3.9.9 0 0 0-1.7.2c.1.2.1.6.3.7s.7-.5 1.1-.5.4.6.8.9zm-.3.5a5 5 0 0 0 1.3.3 1.8 1.8 0 0 0-1.3-.3zm-5.5-1.5l-.4.4c0 .3.4.5.7.4l.3-.4c-.2-.2-.4-.5-.6-.4zm8.3 2.1c-.6 0 0-.7-.6-.8l-.4.3c0 .3-.1.6 0 .8h.4c.3-.2.5.3.6.4s.3-.5 0-.7zm-1.6.6l.4.6c.2 0 .6 0 .6-.3s-.8 0-1-.3zm-4.6-1.3c.1-.5-.2-.8-.1-1.3v-.6c0-.5-.4.1-.6.2s-.8.3-.6.8l.3.4c.5.1.7.4 1 .5z" class="cls-1"/><path d="M269.4 27.7c-.4 0-.3.4-.4.6s-.6-.3-.9-.2a2.6 2.6 0 0 0 0 1.5 1.8 1.8 0 0 1 .5-.8c.3-.2.5 0 .7.2a1.8 1.8 0 0 0 .5-.8zM256.3 26c.2-.3-.1-.6-.3-.7s.3-.2.5-.3-.5-.5-.8-.7.4-.1.5-.3-.6-.6-.8-1 .4-.2.3-.5l-1-1.5c-.3-.1-.4.2-.6.4s.5.4.7.7-.8.1-1.1.4a1.3 1.3 0 0 0-.6.9l1.2 1.5.9 1.1c.3 0 .8.2 1.1 0zm9.8-2.7h-.4c.1-1.3 1.6-1.9 2.3-2.7s.1-.3-.1-.3h-.3c.2-.4.7-.6.6-1.1s-.5.2-.6 0l.8-.8c.5-.9-.6 0-.8-.4s1.1-.9 1.2-1.6l-1.9 1.3-.8.5v-.4c.7-1.3 2.1-1.4 3-2.4v-.5l-1 .3c.1-.4.5-.3.7-.6s.8-.5.8-1l-1 .3h-.6l.5-.3c.5-.3 1.1-.6 1.1-1.3s-.6.4-1 .7-2.2.7-2.8 1.7 0 4.1-.1 6.3-.1 2.4-.1 3.7.5.1.7.4-.5.9-.3 1.5.6-.4.9-.6h.7v-.6c-.8-.3.2-.9.1-1.3s-.5 0-.6-.2a6.1 6.1 0 0 0 .9-1.8c-.8 0-1.2.9-1.9 1.2z" class="cls-1"/><path d="M21 105.8c-3.4 1.2-8.1 1.1-11.1 1.1v7.2c0 2 0 3.3.6 4.2s1.9 1.8 4.3 1.9v.5H.3v-.5c1.5-.2 3.1-.7 3.8-1.6s.7-3.1.7-5 .1-6.1.1-9.5v-8.9c0-2.2 0-4.8-.8-5.5S1.7 88.5 0 88.3v-.5h13c4 0 7 .2 9.7 1.7a9 9 0 0 1 4.7 7.9c.1 4.4-3.1 7.2-6.4 8.4zm-3.3-16.5a11.3 11.3 0 0 0-4.9-.9 9.2 9.2 0 0 0-2.3.2 10.5 10.5 0 0 0-.4 3.5c-.1 4.3-.1 13.3-.1 14.2a22.3 22.3 0 0 0 6.6-.7 8.9 8.9 0 0 0 1.1-16.3zm43.8 31.4h-28v-.5a6.1 6.1 0 0 0 3.7-1.7c.6-.7.8-3 .8-4.9s.1-6.1.1-9.5v-8.9c0-2.2 0-4.8-.8-5.6s-1.8-1.1-3.5-1.3v-.5H59l3.1 7.5-.4.2c-2.5-3.1-4.8-5.2-6.9-6.2s-4-.9-8-.9l-3.5.2c-.1 1-.2 4.3-.2 8.3v6.5a33.6 33.6 0 0 0 5.8-.4c3.7-.9 4.6-2.9 5.3-6.3h.5v14.4h-.5c-.5-1.9-1.6-4.4-2.7-5.4a6.5 6.5 0 0 0-4.2-1.6h-4.2c-.1.8-.1 2.6-.1 4.4v5.4c0 2 .1 3.9.7 4.7s2.9 1.2 5.4 1.2a26.5 26.5 0 0 0 4.5-.3c3.8-.5 6.5-2.7 9.5-7.9h.5zm40.2-29.6c-.4.9-.5 3.7-.6 6.5s-.2 6.3-.2 10.4v12.5c0 .2-.1.5-.4.5a1.2 1.2 0 0 1-.8-.5C89.3 108.6 83.2 101 74.9 91.7V111c0 3.1.1 5.8.7 7s2 2 4.5 2.3v.5H68.9v-.5a5.2 5.2 0 0 0 3.9-2c.8-1.3 1-3.8 1.1-7.3s.2-6.3.2-10.4v-7.8c-.4-3.6-2.9-4.2-4.8-4.5v-.5h9.3l21.7 25.3V97.6a26.1 26.1 0 0 0-.4-6.1c-.6-1.7-2.1-2.8-5-3.2v-.5H106v.5c-2.3.3-3.6 1.1-4.3 2.8zm32.5 29.6v-.5c2.2-.2 3.8-.9 4.3-1.7s.3-2.3.4-3.8c.1-4 0-9.1 0-10.3h-18.1v9.8c0 1.7 0 3.7.4 4.3a4.9 4.9 0 0 0 3.5 1.7v.5h-13.5v-.5a6.1 6.1 0 0 0 3.8-1.7c.5-.6.6-3 .6-5s.1-6.1.1-9.5v-8.9c0-2.2 0-4.5-.7-5.3a5.5 5.5 0 0 0-3.7-1.6v-.5h13.6v.5c-1.7.2-4.1.8-4.2 3.7s-.1 10.4-.1 11.6h18.1V93.4c0-1.1 0-2.6-.6-3.3a4.7 4.7 0 0 0-4-1.9v-.5h13.8v.5c-1.5.2-3.1.8-3.7 2s-.4 3.2-.4 5v19.2c0 1.7 0 3.4.4 4s2.2 1.6 3.8 1.8v.5zm38.9 0v-.5c.4 0 3.2-.4 3.2-2.1s-1.5-5.3-3.3-10.1h-12.1c-.9 2.3-1.8 4.3-2.6 6.5a13.9 13.9 0 0 0-1 3.5c0 1.6 2.2 2 3.8 2.2v.5h-9.8v-.5a6.5 6.5 0 0 0 3.1-1.3 21.2 21.2 0 0 0 2.8-5c2.6-5.8 6.5-15.1 9.4-21.9l-.5-1a9.2 9.2 0 0 0 4-3.8h.4l9.6 25.7c.7 1.9 1.2 2.9 1.9 4.5a5.4 5.4 0 0 0 4.4 2.8v.6h-13.3zm-6-27.7c-.7 1.6-3 7-5.9 14.1h11.4c-2-5.4-4.4-11.3-5.5-14.1zm52 27.7h-29.3v-.5a7 7 0 0 0 4-1.7c.6-.7.8-3 .9-4.9s.1-6.1.1-9.5v-8.9c0-2.1 0-4.4-.7-5.3a5.9 5.9 0 0 0-4-1.7v-.5h14.6v.5c-1.6.2-4.7.7-4.8 4s-.1 6.7-.1 11.2v10.5c0 2 0 3.9.6 4.8s3.2 1.2 5.6 1.2a30.9 30.9 0 0 0 6.7-.7c4.8-1.3 6.2-4.5 7.7-8.2h.4zm3.5 0v-.5a5.7 5.7 0 0 0 3.8-1.8c.6-.7.6-2.9.6-4.9s.1-6.1.1-9.5v-8.9c0-2.2 0-4.5-.7-5.3a5.5 5.5 0 0 0-3.7-1.6v-.5h13.7v.5c-1.3.2-3 .5-3.7 2s-.5 2.8-.5 4.2v19.8c0 1.7 0 3.7.5 4.3s2.6 1.6 3.9 1.7v.5zm51.2-13.9c-.4.6-.4 2.3-.4 3.7v6.7a28.2 28.2 0 0 1-13 3.9c-11.6 0-18.4-6.4-18.4-16.8a17.4 17.4 0 0 1 5.2-12.3c2.9-2.8 7.1-4.8 13.2-4.8a21.7 21.7 0 0 1 11.5 3.1 12.4 12.4 0 0 0 1.5-1.9h.4v10h-.6a15.8 15.8 0 0 0-3.7-6.9 12.1 12.1 0 0 0-8.9-3.5c-8.1 0-13.1 7.7-13.1 16.4s4.7 16 12.9 16c2.9 0 5.6-1 7.1-3.2s.7-3.1.7-5.2-.1-3.9-1.1-5a5.3 5.3 0 0 0-3.7-1.4v-.5h13.4v.5a3.8 3.8 0 0 0-3 1.2zm26.1 14.2c-9.3 0-17.1-7-17.1-16.8s8.1-16.9 17.6-16.9S317 95.2 317 104s-7.7 17-17.1 17zm.1-32.9c-8 0-11.4 8.4-11.4 16.2s3.8 15.9 11.6 15.9 11.4-8.5 11.4-16.2-3.8-15.9-11.6-15.9zm53.3 3c-.4.9-.5 3.7-.6 6.5s-.2 6.3-.2 10.4v12.5a.5.5 0 0 1-.5.5 1.2 1.2 0 0 1-.8-.5c-10.4-11.9-16.5-19.5-24.8-28.8V111c0 3.1.1 5.8.7 7s2.1 2 4.5 2.3v.5h-11.2v-.5a5.2 5.2 0 0 0 3.9-2c.8-1.3 1-3.8 1.1-7.3s.2-6.3.2-10.4v-7.8c-.4-3.6-2.9-4.2-4.8-4.5v-.5h9.3l21.7 25.3V97.6c0-2.4 0-4.8-.5-6.1s-2-2.8-5-3.2v-.5h11.3v.5c-2.2.3-3.5 1.1-4.3 2.8zm9.8 5.3v-.5c2.1-.4 3.4-1.3 3.4-3.2a2.3 2.3 0 0 0-.3-1.3 3.3 3.3 0 0 1-1.8.5 1.9 1.9 0 0 1-1.9-1.9c0-1.5 1.4-2.3 2.8-2.3a3.6 3.6 0 0 1 3.5 3.7c.1 3-2.7 5-5.7 5zm21.7 24.7a16.5 16.5 0 0 1-8.7-2.1c-.2 0-.9.9-1.4 1.6h-.4v-9.1h.5c1.1 3.2 3.6 6.5 5.7 7.6a9.9 9.9 0 0 0 4.5 1.2c4.5 0 7.6-2.7 7.6-6.9s-2.3-4.9-5.3-6-4-1.3-6.7-2.4a9 9 0 0 1-6-8.3c0-6.5 5.2-9.5 11-9.5s7.7 2.2 7.9 2.2.9-.9 1.4-1.6h.5v8.5h-.5c-1.5-4.1-4.5-8.3-9.3-8.3s-6.9 2.3-6.9 6.4 2.2 5.1 5.3 6.2 4.2 1.4 6.5 2.3c4.1 1.5 6.5 4.4 6.5 8.7-.3 6-5.2 9.5-12.2 9.5z"/></g></g></svg>