<svg id="Capa_1" data-name="Capa 1" xmlns="http://www.w3.org/2000/svg" viewBox="0 0 57 57">
  <title>click</title>
  <g fill="#b68722">
    <g>
      <path d="M.2,51.3a1.8,1.8,0,0,1,.7-1.2L13.4,37.6l.3-.3-1-.9-2.6-2.4-.9-.8L7.4,31.6a1.8,1.8,0,0,1-.7-1.3c0-.6.4-1,1.1-1.3l15.4-6.6L40,15.3a1.5,1.5,0,0,1,1.8.2,1.3,1.3,0,0,1,.4.9,2.1,2.1,0,0,1-.2.8L32.7,38.8,28.2,49.3c-.4.8-.8,1.1-1.2,1.1a1.6,1.6,0,0,1-1.5-.7L22,45.6l-1.6-1.8-.5-.5v-.2l-.3.4L8.1,54.9,7.1,56l-.4.4a1.4,1.4,0,0,1-2.1-.1L.9,52.5A1.8,1.8,0,0,1,.2,51.3ZM17.1,37.2a2,2,0,0,1-.8,1.3l-1.1,1.1L3.9,51l-.3.2,2.2,2.2.7-.7,1.9-1.9L17,42.1l1.7-1.7a1.6,1.6,0,0,1,1.2-.6,1.6,1.6,0,0,1,1.1.6l1.5,1.7.8.9,3.1,3.5L38.1,19.2,10.7,30.9h.1l3,2.6,2.5,2.3C16.8,36.4,17.1,36.8,17.1,37.2Z"/>
      <path d="M41.9,16.5a1.9,1.9,0,0,1-.2.7L28,49.2c-.5,1.2-1.4,1.3-2.3.4l-5.2-5.9-.8-.9-.4.6L7,55.7l-.4.4a1.2,1.2,0,0,1-1.8-.1L1,52.4a1.6,1.6,0,0,1-.6-1.1A1.6,1.6,0,0,1,1,50.2L13.5,37.8l.5-.4-3.8-3.4L7.5,31.5a1.6,1.6,0,0,1-.6-1.1c0-.5.3-.9,1-1.1L40,15.5a1.3,1.3,0,0,1,1.5.2,1.1,1.1,0,0,1,.3.8M10.1,30.8l.5.3L16.1,36c.5.5.8.8.8,1.2a1.8,1.8,0,0,1-.7,1.2L3.8,50.8l-.6.3,2.6,2.6,2.7-2.8L18.9,40.5a1.2,1.2,0,0,1,2,.1l2.3,2.6,3.3,3.7,12-28.1L10.1,30.8M42.4,16.5a1.5,1.5,0,0,0-.5-1.1,1.7,1.7,0,0,0-2-.3L23.2,22.3,7.7,28.8c-1.1.5-1.3,1.2-1.3,1.5a2,2,0,0,0,.8,1.4L9,33.4l.9.8,2.6,2.4.8.7h-.2L.7,49.9A2,2,0,0,0,0,51.3a2,2,0,0,0,.7,1.4l3.8,3.7a1.6,1.6,0,0,0,2.4.1l.4-.4h.1l1.1-1.1L19.7,43.7v-.2l.4.5,1.6,1.8,3.6,4.1a1.7,1.7,0,0,0,3-.5L33,38.8l9.2-21.5a2.3,2.3,0,0,0,.2-.9ZM11.1,30.9l12.9-5.5,13.8-5.9L30.5,36.4l-4.1,9.6-.6-.6-2.3-2.6-.8-.9-1.5-1.7a1.9,1.9,0,0,0-1.3-.7,1.9,1.9,0,0,0-1.4.6l-1.7,1.7L8.2,50.6,6.3,52.5l-.5.6L4.6,51.9l-.7-.7h.1L15.4,39.8l1.1-1.1a2.3,2.3,0,0,0,.8-1.5,2.2,2.2,0,0,0-.9-1.5l-2.5-2.3-2.8-2.5Z"/>
    </g>
    <g>
      <path d="M16.8,20.1A19.8,19.8,0,0,1,22.3,6.5,19.6,19.6,0,0,1,33.8.5l2-.2h.6A20.2,20.2,0,0,1,56.5,17.3a19.5,19.5,0,0,1,.2,2.8A20,20,0,0,1,40.1,39.8l-3.1.3a1.6,1.6,0,0,1-1.2-.4,1.3,1.3,0,0,1-.4-1h0a1.4,1.4,0,0,1,1.5-1.4,17.2,17.2,0,0,0,17-17.1,17.1,17.1,0,0,0-34-3.2,18.8,18.8,0,0,0-.2,2.4v.5c-.1.9-.5,1.5-1.2,1.6a1.4,1.4,0,0,1-1.1-.3,1.5,1.5,0,0,1-.5-1.1Z"/>
      <path d="M56.5,20.2A19.8,19.8,0,0,1,40,39.6l-3.1.3a1.1,1.1,0,0,1-1.3-1.1h0a1.2,1.2,0,0,1,1.3-1.2,17.1,17.1,0,0,0,11.3-4.3A17.4,17.4,0,0,0,44.8,4.8,17.4,17.4,0,0,0,19.7,17a24.5,24.5,0,0,0-.3,3c-.1.8-.4,1.3-1,1.4a1.2,1.2,0,0,1-1.3-1.2h0A19.5,19.5,0,0,1,22.4,6.7,19.4,19.4,0,0,1,33.8.7L36.4.4A19.9,19.9,0,0,1,56.3,17.4a19.2,19.2,0,0,1,.2,2.8m.4,0h0a19.7,19.7,0,0,0-.2-2.9,20.2,20.2,0,0,0-13-16A21.3,21.3,0,0,0,36.4,0h-.6L33.7.2A19.8,19.8,0,0,0,22.1,6.4a20,20,0,0,0-5.5,13.7h0a1.7,1.7,0,0,0,.6,1.3,1.6,1.6,0,0,0,1.3.4A1.7,1.7,0,0,0,19.9,20v-.5a18.7,18.7,0,0,1,.2-2.3,16.9,16.9,0,0,1,33.6,3.1A16.9,16.9,0,0,1,36.9,37.1a1.6,1.6,0,0,0-1.8,1.6h0a1.5,1.5,0,0,0,.5,1.1,1.8,1.8,0,0,0,1.3.4l3.1-.3a19.9,19.9,0,0,0,12.1-6.9,20.2,20.2,0,0,0,4.8-13Z"/>
    </g>
    <g>
      <path d="M24.9,17.7a1.7,1.7,0,0,1,.1-.5,12,12,0,0,1,9.3-9L36,8h.8a12.3,12.3,0,0,1,8,3.1,12.1,12.1,0,0,1,4,7.6,12.7,12.7,0,0,1,.1,1.5A12.2,12.2,0,0,1,39.5,32a1.4,1.4,0,0,1-1.9-1,1.4,1.4,0,0,1,0-.4,1.5,1.5,0,0,1,1.2-1.4A9.3,9.3,0,0,0,46,21.8a8.7,8.7,0,0,0,.2-1.8,9.4,9.4,0,0,0-18.5-2.3c-.3,1-.9,1.5-1.7,1.3A1.3,1.3,0,0,1,24.9,17.7Z"/>
      <path d="M48.7,20.1a12,12,0,0,1-9.3,11.7,1.2,1.2,0,0,1-1.6-.8v-.3a1.2,1.2,0,0,1,1-1.1,9.5,9.5,0,0,0,7.3-7.7,8.9,8.9,0,0,0,.2-1.8,9.6,9.6,0,0,0-18.9-2.4c-.2.9-.8,1.3-1.4,1.1a1.1,1.1,0,0,1-1-1.1,1.5,1.5,0,0,1,.1-.4,11.7,11.7,0,0,1,9.1-8.8l2.6-.3A12.1,12.1,0,0,1,48.7,18.7a12.5,12.5,0,0,1,.1,1.5m.4,0h0a13,13,0,0,0-.1-1.5A12.3,12.3,0,0,0,45,10.9a12.5,12.5,0,0,0-8.2-3.2H36L34.2,8a12.2,12.2,0,0,0-9.4,9.2,2,2,0,0,0-.1.5A1.6,1.6,0,0,0,26,19.3c.9.2,1.6-.4,1.9-1.5A9.2,9.2,0,0,1,46,20.1a8.5,8.5,0,0,1-.2,1.7,9.1,9.1,0,0,1-7,7.4,1.7,1.7,0,0,0-1.4,1.6,1.6,1.6,0,0,0,.1.4,1.6,1.6,0,0,0,2.1,1.1,12.4,12.4,0,0,0,9.6-12.1Z"/>
    </g>
  </g>
</svg>
