<svg id="Capa_1" data-name="Capa 1" xmlns="http://www.w3.org/2000/svg" viewBox="0 0 476.7 476.7">
  <defs>
    <style>
      .cls-1 {
        fill: #b68722;
      }
    </style>
  </defs>
  <title>move</title>
  <path class="cls-1" d="M475.5,232.3l-3.4-5.1-63.6-63.6a15.9,15.9,0,0,0-22.5,22.5l36.4,36.4H254.3V54.3l36.4,36.4a15.9,15.9,0,1,0,22.5-22.5L249.6,4.6h-.2l-5-3.3L238.4,0h-.1l-6,1.2-5,3.3h-.2L163.6,68.2A15.9,15.9,0,0,0,186,90.7l36.5-36.4V222.5H54.3l36.4-36.4a15.9,15.9,0,1,0-22.5-22.5L4.6,227.1v.2l-3.3,5L0,238.4H0l1.2,6,3.3,5v.2l63.6,63.6a15.9,15.9,0,0,0,22.5-22.5L54.3,254.3H222.5V422.5l-36.4-36.4a15.9,15.9,0,0,0-22.5,22.5l63.6,63.6,5.1,3.4,6,1.2h.1l6.1-1.2,5.1-3.4,63.6-63.6a15.9,15.9,0,0,0-22.5-22.5l-36.4,36.4V254.3H422.5l-36.4,36.4a15.9,15.9,0,1,0,22.5,22.5l63.6-63.6,3.4-5.1,1.2-6h0Z"/>
</svg>
