<svg id="next" class="navButton" xmlns="http://www.w3.org/2000/svg" xmlns:xlink="http://www.w3.org/1999/xlink" viewBox="0 0 306 324" >
  <defs>
    <style>
      .navButton .cls-1 {
        fill: url(#radial-gradient);
      }

      .navButton .cls-2 {
        stroke: #231f20;
        stroke-linecap: round;
        stroke-linejoin: round;
        stroke-width: 6px;
        fill: url(#linear-gradient);
      }
    </style>
    <radialGradient id="radial-gradient" cx="157.5" cy="161" r="144.55" gradientUnits="userSpaceOnUse">
      <stop offset="0" stop-opacity="0.5"/>
      <stop offset="1" stop-opacity="0"/>
    </radialGradient>
    <linearGradient id="linear-gradient" x1="321.84" y1="205.41" x2="72.88" y2="49.84" gradientUnits="userSpaceOnUse">
      <stop offset="0" stop-color="#caa840"/>
      <stop offset="0.6" stop-color="#f2d784"/>
      <stop offset="1" stop-color="#caa840"/>
    </linearGradient>
  </defs>
  <title>navigation button</title>
  <g transform="scale(-1 1) translate(-306)">
    <circle id="shadow" class="cls-1" cx="157.5" cy="161" r="144.6"/>
    <path id="arrow" class="cls-2"  d="M250.9,319l-2.4-1.4L6.5,164.8c-3.3-2.1-3.3-5.4.1-7.5L248.1,4.7,250.8,3c.1,1,.1,1.7.1,2.4q0,47.5,0,94.9a3.3,3.3,0,0,1-1.9,3.3l-94.4,55.9-2.4,1.5,2.5,1.6,94.2,55.8c1.2.7,2.1,1.2,2.1,2.9q-.1,48.2-.1,96.3C250.9,318,250.9,318.3,250.9,319Z"/>
  </g>
</svg>
