<svg id="decorator" xmlns="http://www.w3.org/2000/svg" viewBox="0 0 800 210">
  <defs>
    <style>
      .cls-1 {
        fill: #92af9b;
      }
    </style>
  </defs>
  <title>top</title>
  <g id="stalk">
    <path id="stalk-2" class="cls-1" d="M400.3,63.5c.4,0,23,15,24.4,35.7s-18.9,74.6-24.4,84.5c-5.4-9.9-25.7-63.8-24.4-84.5S399.9,63.5,400.3,63.5Z"/>
  </g>
  <g id="flourish">
    <path id="leaf" class="cls-1" d="M425.7,229.7a99.4,99.4,0,0,0,33.8,3.4c34.7-2.3,106.8-32.9,153.7-17.7,12,3.9,33.9,26.7,17.8,38.7,10.7-8.1,23.5-15.7,17.3-32.6s-33.6-12.4-33.6-12.4c2.6-1.1,11.1-7.1,9.1-14.4,3.6-6.7,4.5-13.4-.7-18.2.7.6-.7,16.1-43.9,18,2.3-.8,51.8-43.2,88.9-38.7,13.7,1.7,14.5,15.4,4.8,20.7-41.7,23-12.3,42.5-5.5,40.3-3.2,8.7,13.9,20.3,24.9,15.9,21-8.5-4.4-37.5,6.1-43.2,5.8-3.2,10.1,11.7,7.2,17.3-14.7,28.3,21.7,34.7,23.1,16.2-1.4,18.5,25.7,18.8,20.9-.4,4.7,11.8,6.5,59.3,41.3,48.2,14.3-4.6,2.7-25.9-7-12.7,7.9-9.5,16.3,5.5,6.6,8.6-40,12.9-27.7-61.7-51.2-85.3C680,122.1,638.8,143,596.5,169.2c3.2-2.5,4.4-11.5,7.6-13-12.2,6.4-13.7-3-24.6,14.8,9.5-36.3-12.5-62.5-31.9-55.9S527,148,536.5,155c3.5,2.6,9.1,3,11.6-1.6s-1.7-10.6-.7-6.7c1.8,7.1-14.2,8.6-8.4-5.1,6.5-15.2,14.8,8.8,28-.9,15.9,10.1,6.4,29-4.3,38.4-27,23.7-77.4,34.3-80.7,35.1,9.2-2.3,26.5-19.3,34.9-32.1,9.8-14.6,14.6-36.6,6.7-53.3-5.9-12.6-17.7-19.1-32-22.1-34.6-7.2-60.5,23.5-32.3,56.5.6.5-2.2-9.2,1.9-14.2s13.1-.2,23.8.4c10.7-3.4,3.6-41.8,23.5-21.6,5.5,5.4,7.1,11.9,7.4,19.3,1.7,45.1-59.7,79.6-88.6,79.3Z"/>
  </g>
  <g id="core">
    <circle id="core-2" class="cls-1" cx="399.9" cy="217.1" r="28.8"/>
  </g>
  <g id="flourish-2">
    <path id="leaf-2" class="cls-1" d="M374.3,229.7a99.4,99.4,0,0,1-33.8,3.4c-34.7-2.3-106.8-32.9-153.7-17.7-12,3.9-33.9,26.7-17.8,38.7-10.7-8.1-23.5-15.7-17.3-32.6s33.6-12.4,33.6-12.4c-2.6-1.1-11.1-7.1-9.1-14.4-3.6-6.7-4.5-13.4.7-18.2-.7.6.7,16.1,43.9,18-2.3-.8-51.8-43.2-88.9-38.7-13.7,1.7-14.5,15.4-4.8,20.7,41.7,23,12.3,42.5,5.5,40.3,3.2,8.7-13.9,20.3-24.9,15.9-21-8.5,4.4-37.5-6.1-43.2-5.8-3.2-10.1,11.7-7.2,17.3,14.7,28.3-21.7,34.7-23.1,16.2,1.4,18.5-25.7,18.8-20.9-.4-4.7,11.8-6.5,59.3-41.3,48.2-14.3-4.6-2.7-25.9,7-12.7-7.9-9.5-16.3,5.5-6.6,8.6,40,12.9,27.7-61.7,51.3-85.3,59.3-59.3,100.5-38.4,142.8-12.2-3.2-2.5-4.4-11.5-7.6-13,12.2,6.4,13.7-3,24.6,14.8-9.5-36.3,12.5-62.5,31.9-55.9S273.1,148,263.6,155c-3.5,2.6-9.1,3-11.6-1.6s1.7-10.6.8-6.7c-1.8,7.1,14.2,8.6,8.4-5.1-6.5-15.2-14.8,8.8-28-.9-15.9,10.1-6.4,29,4.3,38.4,27,23.7,77.4,34.3,80.7,35.1-9.2-2.3-26.5-19.3-34.9-32.1-9.8-14.6-14.6-36.6-6.7-53.3,5.9-12.6,17.7-19.1,32-22.1,34.6-7.2,60.5,23.5,32.3,56.5-.6.5,2.2-9.2-1.9-14.2s-13.1-.2-23.8.4c-10.7-3.4-3.6-41.8-23.5-21.6-5.5,5.4-7.1,11.9-7.4,19.3-1.7,45.1,59.7,79.6,88.6,79.3Z"/>
  </g>
</svg>
