<svg id="layer1" xmlns="http://www.w3.org/2000/svg" viewBox="0 0 930 100">
  <defs>
    <style>
      .cls-1 {
        fill: #d39f53;
      }
    </style>
  </defs>
  <title>separator</title>
  <path class="cls-1" d="M618.4,34.7C589,24,557.8,18.4,528.2,26.9,518.9,20,502.6,1.8,501.7.6s-23.4,14-31.1,19.4a46.7,46.7,0,0,1-3-9c.3-2.6.5-5,.8-7.6s-3-3.2-3-3.4l-3.9,3.2a67.1,67.1,0,0,0,1,8,59.1,59.1,0,0,1-3.1,9.2c-7.7-5.4-28.6-18-31.2-19.2-.8,1.2-17.4,19.4-26.2,26.3-29.6-8.4-61.3-2.8-90.4,7.6-15.7,0-80.1,14.2-83.2,15.2,3.1,1.2,67.5,15.2,83.2,15,29.1,10.6,60.8,16.2,90.4,7.8,9,6.8,25.4,25.1,26.2,26.3,2.6-1.2,23.5-14,31.2-19.2a59.6,59.6,0,0,1,3.1,9,62.9,62.9,0,0,0-1,7.6L465,100a30,30,0,0,0,3.4-3c-.3-2.6-.5-5.4-.8-8a49,49,0,0,1,3-9.2c7.7,5.4,28.6,18,31.1,19.2s17.2-19.6,26.4-26.3c29.6,8.4,60.9,2.8,90.2-7.8,15.9,0,80.3-14,83.3-15C698.7,48.7,634.2,34.5,618.4,34.7Zm37.3,10.2-6.1,3-11.1-5.2c5.7.6,11.6,1.2,17.2,2.2Zm-47.9-9.8a158.5,158.5,0,0,0-47,10.2,147.1,147.1,0,0,1-26.9-14.4c23.7-5.6,49.9-2.8,73.9,4.2ZM497.3,8.2a112.1,112.1,0,0,0,21.8,21.4c-5.1,1.8-24.6,13.2-28.8,16.4a80.3,80.3,0,0,1-17.7-22.2A274.4,274.4,0,0,1,497.3,8.2ZM466.2,76.4c-.5,1.4-.8,3-1.3,4.4a21.2,21.2,0,0,0-1.6-4.2l1.6-1.2Zm20.2-26.7c-4.3,3.8-18,17.6-21.4,20.2-3.5-3-17.2-16.4-21.4-20,4.3-4,17.8-17.6,21.1-20.2C468.5,32.5,482.2,46.3,486.4,49.7ZM463.4,23a24,24,0,0,0,1.6-4.2c.5,1.4.8,2.8,1.3,4.2l-1.6,1.2ZM432.7,8.4A224.7,224.7,0,0,1,457.3,24c-4.3,8-18,22.2-18,22.2-4.2-3.2-23.4-14.4-28.5-16.2A118.9,118.9,0,0,0,432.7,8.4ZM396,31.1a153,153,0,0,1-27.2,14.4,154.8,154.8,0,0,0-46.6-10.2C346.3,28.3,372.2,25.5,396,31.1Zm-104.6,12-11.1,5.2L274,45.1C279.9,44.1,285.8,43.5,291.5,43.1Zm-42.8,7c6.6-1.6,13.3-3,19.9-4.2l8.3,4.2-8.3,4.2c-6.6-1.4-13.3-2.8-19.9-4.4Zm25.3,5,6.4-3.4,11.1,5.2ZM301,57.5c-5.9-2.4-11.9-4.8-17-7.4,5.1-2.6,11.1-5,17-7.4,17.5-.4,54.7,6.8,56,7.4-1.4.4-38.6,7.8-56.1,7.2Zm21.4,7.2a150.5,150.5,0,0,0,46.6-10.2,157.1,157.1,0,0,1,27.2,14.2c-23.9,5.8-49.9,2.8-73.9-4.2Zm56.9-14.6c4.2-1.8,22.2-12.4,26.6-16a95.8,95.8,0,0,1,29.3,16,94.5,94.5,0,0,1-29.3,16c-4.6-3.6-22.6-14.2-26.7-16.2Zm53.5,41.5a124.4,124.4,0,0,0-21.9-21.8c5.1-1.8,24.3-13,28.5-16.2,6.6,5.2,12.7,12.7,18,22.2a224.7,224.7,0,0,1-24.6,15.6Zm64.8-.2a224.7,224.7,0,0,1-24.6-15.6,77.5,77.5,0,0,1,17.7-22.2h0c4.2,3,23.7,14.4,28.8,16.2a112.5,112.5,0,0,0-22,21.4Zm26.9-25.5a99.6,99.6,0,0,1-29.5-16,96.8,96.8,0,0,1,29.5-16c4.5,3.4,22.5,14.2,26.2,16-3.9,1.6-21.9,12.2-26.3,15.8Zm9.6,2.8a155.3,155.3,0,0,1,26.9-14.4,156.5,156.5,0,0,0,47,10.2c-24.4,6.8-50.3,9.8-73.9,4Zm39.1-19c1.4-.6,38.6-7.8,56.1-7.4,6,2.4,11.6,4.8,17,7.4-5.5,2.4-11.1,5-17,7.4C611.7,57.5,574.5,50.3,573.1,49.7Zm65.6,6.8,11-5,6.1,3.2a163.3,163.3,0,0,1-17.2,1.8Zm23-2.8-8.5-4,8.5-4.2,19.8,4.2c-6.6,1.6-13.3,3-19.9,4.2Z"/>
  <path class="cls-1" d="M205.9,39.9C210.7,39.9,0,49.7,0,49.7s194,9.6,205.9,9.8c6.9,0,21.2,1.6,21.2-10S200.9,39.9,205.9,39.9Z"/>
  <path class="cls-1" d="M721.2,39.9c-4.5-.2-18.2-.6-18.2,9.4s16.5,10.2,23.5,10c11.9-.2,203.4-9.6,203.4-9.6Z"/>
</svg>
