<svg xmlns="http://www.w3.org/2000/svg" viewBox="0 0 165.8 165.8">
  <defs>
    <style>
      .cls-1 {
        fill: #f17691;
      }
    </style>
  </defs>
  <title>facebook</title>
  <g id="Layer_2" data-name="Layer 2">
    <g id="Layer_1-2" data-name="Layer 1">
      <path class="cls-1" d="M153.8,0H12A12,12,0,0,0,0,12V153.8a12,12,0,0,0,12,12H153.8a12,12,0,0,0,12-12V12A12,12,0,0,0,153.8,0ZM102.7,69.5l-1,12.7H88.6v44.4H72.1V82.2H63.3V69.5h8.8V60.9c0-3.8.1-9.6,2.8-13.3s6.9-6.4,13.7-6.4c11.2,0,15.9,1.6,15.9,1.6l-2.2,13.1a29.3,29.3,0,0,0-7.2-1.1c-3.4,0-6.5,1.2-6.5,4.7v10Z"/>
    </g>
  </g>
</svg>
