<svg xmlns="http://www.w3.org/2000/svg" viewBox="0 0 165.8 165.8">
  <defs>
    <style>
      .cls-1 {
        fill: #f17691;
      }
    </style>
  </defs>
  <title>twitter</title>
  <g id="Layer_2" data-name="Layer 2">
    <g id="Layer_1-2" data-name="Layer 1">
      <path class="cls-1" d="M153.8,0H12A12,12,0,0,0,0,12V153.8a12,12,0,0,0,12,12H153.8a12,12,0,0,0,12-12V12A12,12,0,0,0,153.8,0ZM119.1,65.9v2.2c0,22.6-17.2,48.7-48.7,48.7a48.2,48.2,0,0,1-26.2-7.7,27.3,27.3,0,0,0,4.1.3A34.1,34.1,0,0,0,69.5,102a17,17,0,0,1-16-11.8,18.4,18.4,0,0,0,3.3.3,17.4,17.4,0,0,0,4.5-.6A17.2,17.2,0,0,1,47.5,73.1v-.2A18.5,18.5,0,0,0,55.3,75,17.2,17.2,0,0,1,50,52.1,48.4,48.4,0,0,0,85.3,70a16,16,0,0,1-.5-3.9A17.2,17.2,0,0,1,102,49a17.4,17.4,0,0,1,12.5,5.4,36.1,36.1,0,0,0,10.8-4.1,16.7,16.7,0,0,1-7.5,9.4,31.6,31.6,0,0,0,9.8-2.7A32.8,32.8,0,0,1,119.1,65.9Z"/>
    </g>
  </g>
</svg>
