<?xml version="1.0" standalone="no"?>
<!DOCTYPE svg PUBLIC "-//W3C//DTD SVG 20010904//EN"
 "http://www.w3.org/TR/2001/REC-SVG-20010904/DTD/svg10.dtd">
<svg version="1.0" xmlns="http://www.w3.org/2000/svg"
 width="260.000000pt" height="260.000000pt" viewBox="0 0 260.000000 260.000000"
 preserveAspectRatio="xMidYMid meet">
<metadata>
Created by potrace 1.11, written by Peter Selinger 2001-2013
</metadata>
<g transform="translate(0.000000,260.000000) scale(0.100000,-0.100000)"
fill="#000000" stroke="none">
<path d="M1325 2044 c-40 -21 -64 -43 -81 -76 -23 -45 -15 -46 12 0 39 65 112
93 149 56 31 -32 -8 -109 -69 -138 -20 -9 -72 -24 -117 -33 l-82 -16 -19 26
c-24 33 -38 34 -38 4 0 -21 -7 -25 -67 -36 -119 -22 -193 -78 -193 -146 0 -32
16 -65 32 -65 6 0 4 8 -5 18 -33 36 -17 91 33 117 36 19 102 41 158 53 51 12
50 18 22 -153 -20 -120 -25 -229 -14 -259 7 -18 59 -22 70 -5 4 8 0 9 -15 4
-23 -7 -24 -3 -21 70 2 50 48 336 55 343 12 13 11 -10 -6 -123 -10 -66 -18
-132 -19 -147 0 -48 25 -32 40 25 16 65 49 142 56 134 3 -3 1 -30 -6 -61 -6
-31 -9 -65 -5 -76 7 -22 44 -27 62 -9 6 6 30 12 54 13 35 2 48 9 71 37 27 32
73 137 65 146 -3 2 -14 -22 -26 -54 -25 -66 -48 -98 -78 -107 -29 -9 -46 16
-38 56 15 66 63 139 73 110 2 -7 8 -12 13 -12 4 0 6 7 3 15 -11 26 -50 17 -83
-20 -29 -34 -54 -98 -50 -133 3 -32 -1 -42 -17 -42 -13 0 -15 6 -10 33 4 17
10 56 13 85 7 65 -10 70 -58 15 -17 -21 -29 -33 -26 -28 2 6 10 42 17 82 l12
71 71 18 c62 14 79 24 120 64 41 41 47 53 47 88 0 31 -5 45 -22 56 -28 20 -45
20 -83 0z"/>
<path d="M1349 1663 l-24 -28 28 24 c25 23 32 31 24 31 -2 0 -14 -12 -28 -27z"/>
<path d="M2446 1614 c-23 -79 -76 -194 -99 -213 -22 -17 -22 -17 0 126 19 128
14 144 -34 127 -25 -8 -27 -14 -25 -49 2 -29 -7 -64 -31 -121 -47 -108 -76
-164 -86 -164 -5 0 -3 28 5 63 7 34 16 92 20 129 6 65 6 68 -19 79 -29 13 -62
7 -92 -15 -19 -15 -18 -15 13 -10 31 6 32 6 32 -28 0 -69 -87 -278 -116 -278
-15 0 -16 7 -10 58 3 31 18 99 32 149 39 140 16 162 -73 67 -56 -59 -59 -59
-43 -4 5 19 7 43 4 52 -6 20 -39 24 -49 8 -5 -8 -12 -7 -22 2 -31 26 -128 12
-255 -37 -14 -6 -17 1 -20 47 -3 53 -3 53 -36 52 -63 -3 -125 -70 -120 -129 3
-26 -1 -31 -42 -46 -53 -21 -40 -25 17 -5 36 13 40 12 66 -9 l26 -23 -11 -87
c-11 -81 -14 -89 -46 -113 -28 -21 -35 -23 -43 -11 -14 23 -32 116 -25 134 9
24 41 14 40 -12 0 -12 3 -20 8 -17 13 9 9 51 -7 64 -17 14 -64 0 -97 -28 -20
-17 -25 -100 -8 -132 13 -24 -1 -63 -40 -107 -17 -19 -30 -45 -30 -58 0 -22
-16 -42 -26 -33 -2 3 3 49 11 104 19 127 19 153 -1 161 -30 11 -47 -11 -50
-63 -5 -73 -126 -330 -124 -261 1 6 7 41 15 77 19 88 19 164 0 180 -12 10 -24
10 -55 1 -21 -6 -42 -16 -46 -22 -4 -8 -1 -8 14 0 15 8 23 7 32 -4 10 -13 9
-41 -9 -145 -12 -71 -20 -134 -16 -140 3 -5 16 -10 28 -10 20 0 19 -3 -11 -26
-39 -31 -52 -54 -67 -119 -10 -43 -15 -50 -36 -50 -24 0 -24 0 -23 105 1 86
11 149 53 345 60 280 61 295 27 295 -47 0 -73 -49 -211 -393 -48 -120 -90
-216 -92 -213 -5 5 32 150 68 264 35 107 35 135 0 140 -54 8 -87 -29 -179
-203 -31 -59 -51 -88 -48 -70 52 285 46 374 -28 393 -129 34 -331 -128 -352
-282 -12 -81 13 -126 69 -126 63 0 142 78 153 151 6 41 -10 73 -25 50 -5 -9
-6 -22 -1 -31 15 -28 -2 -70 -43 -106 -52 -44 -82 -52 -107 -29 -27 25 -26 82
3 147 30 67 65 108 124 147 61 41 107 42 126 4 36 -72 27 -175 -38 -456 -39
-165 -46 -275 -19 -301 36 -37 137 5 120 50 -7 18 -9 17 -28 -9 -26 -35 -38
-27 -38 27 0 45 24 123 85 271 56 138 165 335 185 335 4 0 -13 -57 -36 -127
-50 -149 -79 -281 -70 -316 13 -52 63 -41 95 21 10 20 65 152 121 292 56 140
106 262 111 270 14 25 10 -4 -11 -71 -33 -110 -58 -239 -75 -390 -15 -131 -15
-149 -1 -182 13 -31 20 -37 46 -37 17 0 39 4 49 10 15 7 20 4 29 -15 10 -21
19 -25 53 -25 36 0 48 6 79 39 38 39 88 157 112 263 9 38 17 49 41 59 21 9 31
9 36 1 4 -7 21 -14 38 -18 26 -5 37 0 69 29 36 33 38 39 42 105 4 62 7 71 29
81 13 6 26 11 28 11 2 0 3 -35 2 -77 -2 -74 -1 -78 21 -81 33 -5 68 22 93 70
l21 42 14 -26 c27 -51 131 -36 189 29 35 38 79 125 101 198 16 54 56 116 68
104 2 -2 -4 -40 -15 -84 -10 -44 -19 -96 -19 -115 0 -43 24 -80 52 -80 20 0
80 54 105 95 12 19 13 19 10 1 -1 -10 6 -23 15 -29 28 -19 63 7 102 75 20 35
36 55 36 45 0 -70 -73 -312 -106 -349 -36 -38 -84 -13 -84 44 0 70 60 170 81
137 5 -8 6 -27 3 -44 -4 -23 -3 -26 5 -15 13 18 14 50 2 69 -8 12 -15 13 -35
3 -60 -27 -94 -179 -50 -223 19 -18 26 -19 62 -9 64 17 114 100 161 265 18 66
28 83 51 97 16 9 41 35 56 57 29 44 96 229 88 243 -11 18 -20 5 -38 -58z
m-942 -41 c-8 -57 -5 -52 -35 -55 -21 -3 -24 1 -22 30 1 35 27 72 50 72 11 0
13 -10 7 -47z m338 -43 c4 -38 13 -60 27 -71 17 -14 19 -22 12 -41 -5 -13 -15
-45 -22 -71 -17 -70 -80 -162 -115 -172 -62 -17 -77 -1 -71 76 5 63 44 154 81
188 30 28 46 20 46 -21 0 -43 -27 -94 -69 -128 -23 -20 -30 -30 -19 -30 20 0
76 63 94 106 18 44 18 88 -1 104 -25 21 -84 -3 -132 -52 -34 -36 -47 -60 -72
-143 -31 -101 -62 -165 -81 -165 -14 0 -13 11 23 225 l32 190 39 19 c58 28
126 45 176 43 l45 -2 7 -55z m-349 -50 c-3 -11 -9 -20 -13 -20 -14 0 -21 33
-8 41 18 11 27 2 21 -21z m-165 -372 c-3 -44 -7 -54 -28 -65 -45 -22 -51 1
-18 62 16 30 34 55 39 55 6 0 9 -23 7 -52z m-205 -85 c-22 -148 -85 -322 -122
-342 -27 -15 -61 2 -61 29 0 22 68 116 81 113 5 -2 9 22 9 52 0 37 4 57 13 61
7 2 26 31 43 64 16 32 32 59 36 60 4 0 4 -17 1 -37z m-128 -170 c-3 -16 -16
-44 -28 -63 -20 -31 -22 -33 -25 -13 -2 12 6 40 18 62 24 47 46 56 35 14z"/>
<path d="M1728 1032 c-8 -9 -39 -56 -69 -104 -37 -60 -62 -89 -79 -94 -19 -5
-21 -8 -8 -11 37 -9 -150 -235 -205 -249 -93 -23 -102 171 -14 288 18 24 52
53 77 66 24 12 39 22 33 22 -50 0 -142 -79 -172 -149 -46 -107 -34 -222 23
-237 76 -19 155 39 255 186 34 49 66 90 72 90 5 0 9 6 9 14 0 17 51 109 57
103 10 -10 -20 -96 -36 -100 -15 -4 -14 -5 1 -6 14 -1 15 -6 7 -33 -5 -18 -9
-69 -9 -114 0 -67 4 -86 21 -108 52 -66 159 9 159 111 0 15 9 57 20 92 11 35
18 66 15 69 -2 3 -7 -1 -9 -9 -2 -8 -12 -39 -22 -69 -10 -30 -18 -71 -19 -91
-2 -72 -80 -136 -113 -93 -11 15 -13 38 -8 104 8 111 21 159 49 169 32 12 35
7 26 -46 -18 -109 -7 -161 27 -132 8 7 11 15 6 18 -6 4 -4 40 3 93 20 130 24
144 48 157 l22 11 -22 -6 c-19 -4 -23 -1 -23 20 0 28 -11 39 -32 31 -10 -4
-13 -16 -10 -35 3 -21 -1 -32 -12 -36 -25 -9 -31 2 -17 33 11 24 11 25 -5 12
-15 -12 -16 -12 -10 7 9 31 -16 50 -36 26z m55 -96 c20 7 21 1 7 -27 -13 -24
-55 -27 -46 -3 3 9 6 23 6 32 0 13 2 14 8 4 5 -7 16 -10 25 -6z"/>
<path d="M1915 990 c-13 -5 -2 -6 32 -3 42 5 52 3 56 -11 4 -14 5 -14 3 1 -1
20 -57 28 -91 13z"/>
<path d="M1526 915 c24 -39 24 -40 24 -28 0 6 -9 21 -21 34 l-20 24 17 -30z"/>
<path d="M1481 860 c-1 -33 16 -50 49 -49 23 1 22 2 -7 10 -24 7 -33 16 -36
37 -4 27 -4 27 -6 2z"/>
<path d="M1551 854 c0 -11 3 -14 6 -6 3 7 2 16 -1 19 -3 4 -6 -2 -5 -13z"/>
<path d="M1022 514 c3 -17 21 -21 26 -6 1 5 -4 12 -13 16 -11 4 -15 1 -13 -10z"/>
<path d="M2500 180 c0 -5 5 -10 11 -10 5 0 7 5 4 10 -3 6 -8 10 -11 10 -2 0
-4 -4 -4 -10z"/>
</g>
</svg>
